<svg width="1440" height="251" viewBox="0 0 1440 251" fill="none" xmlns="http://www.w3.org/2000/svg">
<path d="M1440 -53.0053C1440 -53.0053 1079.5 289.003 541.02 93.9976C175.173 -38.4893 11.9121 249.671 11.9121 249.671" stroke="#142866" stroke-opacity="0.2" stroke-width="2.49664" stroke-miterlimit="10"/>
<path d="M11.2109 227.623C33.5003 221.415 163.411 23.3694 463.807 79.4388C489.861 84.3018 517.069 89.5851 545.234 97.2122C671.768 131.48 787.495 128.911 891.418 135.723C991.621 142.291 1082.9 129.636 1155.35 101.155C1329.99 31.7407 1430.76 -49.132 1439.63 -38.564" stroke="#142866" stroke-opacity="0.2" stroke-width="2.49664" stroke-miterlimit="10"/>
<path d="M10.5107 205.568C55.0893 193.151 176.095 42.0624 467.732 88.371C494.008 92.5434 521.346 95.405 549.448 100.428C675.117 122.886 789.467 101.833 892.151 117.574C993.187 133.059 1087.26 126.575 1156.75 94.7346C1325.16 17.5735 1421.52 -45.2573 1439.25 -24.1221" stroke="#142866" stroke-opacity="0.2" stroke-width="2.49664" stroke-miterlimit="10"/>
<path d="M9.80957 183.52C76.6773 164.887 188.966 60.3582 471.656 97.3033C498.172 100.769 525.6 101.235 553.662 103.643C678.375 114.339 791.547 74.986 892.875 99.4234C994.874 124.022 1091.55 123.359 1158.15 88.3146C1320.22 3.03229 1412.28 -41.3833 1438.88 -9.68017" stroke="#142866" stroke-opacity="0.2" stroke-width="2.49664" stroke-miterlimit="10"/>
<path d="M9.1084 161.465C98.2663 136.625 202.005 78.2469 475.581 106.236C502.355 108.976 529.842 106.306 557.875 106.858C681.535 109.291 793.676 48.3751 893.607 81.2745C996.637 115.193 1095.86 120.121 1159.55 81.894C1315.28 -11.5609 1403.04 -37.5084 1438.51 4.76204" stroke="#142866" stroke-opacity="0.2" stroke-width="2.49664" stroke-miterlimit="10"/>
<path d="M8.4082 139.417C119.855 108.363 215.187 95.7203 479.506 115.169C506.553 117.159 534.062 112.949 562.089 110.073C684.678 97.4941 795.804 21.9861 894.339 63.1253C998.406 106.574 1100.16 116.86 1160.96 75.4737C1310.35 -26.2088 1393.8 -33.6338 1438.14 19.2045" stroke="#142866" stroke-opacity="0.2" stroke-width="2.49664" stroke-miterlimit="10"/>
<path d="M7.70801 117.361C141.444 80.0999 228.611 137.96 483.431 124.101C510.751 122.616 538.28 118.839 566.304 113.287C687.775 89.2242 797.892 -4.20844 895.065 44.9746C1000.13 98.1478 1104.46 113.574 1162.36 69.0534C1305.39 -40.9129 1384.56 -29.76 1437.76 33.6456" stroke="#142866" stroke-opacity="0.2" stroke-width="2.49664" stroke-miterlimit="10"/>
<path d="M7.00684 95.3089C163.033 51.8368 242.909 155.846 487.356 133.032C514.869 130.463 542.498 124.752 570.517 116.502C690.873 81.0613 799.898 -30.2443 895.797 26.8247C1001.77 89.8935 1108.74 110.267 1163.76 62.6325C1300.43 -55.6692 1375.32 -25.8869 1437.39 48.0873" stroke="#142866" stroke-opacity="0.2" stroke-width="2.49664" stroke-miterlimit="10"/>
<path d="M6.30664 73.2568C184.621 23.5749 257.275 172.493 491.281 141.965C518.983 138.353 546.722 130.687 574.732 119.717C693.997 72.9952 801.823 -56.1578 896.529 8.67522C1003.32 81.7792 1113.01 106.941 1165.17 56.212C1295.42 -70.4745 1366.08 -22.0119 1437.01 62.5289" stroke="#142866" stroke-opacity="0.2" stroke-width="2.49664" stroke-miterlimit="10"/>
<path d="M5.60547 51.2054C206.21 -4.68765 271.594 187.926 495.206 150.899C523.098 146.283 550.957 136.645 578.945 122.932C697.17 65.0064 803.639 -81.9816 897.254 -9.47482C1004.74 73.7734 1117.28 103.598 1166.57 49.7916C1290.37 -85.3211 1356.84 -18.1375 1436.64 76.9705" stroke="#142866" stroke-opacity="0.2" stroke-width="2.49664" stroke-miterlimit="10"/>
<path d="M4.9043 29.1525C227.798 -32.9498 282.264 176.912 499.13 159.832C527.678 157.581 555.207 142.616 583.158 126.147C700.401 57.0749 805.361 -107.747 897.986 -27.6245C1006.05 65.8495 1121.51 100.241 1167.97 43.3709C1285.28 -100.203 1347.6 -14.2634 1436.27 91.4126" stroke="#142866" stroke-opacity="0.2" stroke-width="2.49664" stroke-miterlimit="10"/>
<path d="M4.2041 7.09995C249.387 -61.2128 295.69 191.979 503.055 168.765C531.903 165.532 559.472 148.594 587.372 129.365C703.696 49.1806 806.987 -133.478 898.718 -45.7743C1007.24 57.9808 1125.73 96.8732 1169.38 36.95C1280.15 -115.111 1338.37 -10.3895 1435.89 105.854" stroke="#142866" stroke-opacity="0.2" stroke-width="2.49664" stroke-miterlimit="10"/>
<path d="M3.50391 -14.9516C270.976 -89.4749 309.038 206.694 506.98 177.698C536.118 173.428 563.752 154.579 591.587 132.579C707.053 41.3081 808.527 -159.19 899.444 -63.9239C1008.32 50.1471 1129.93 93.5012 1170.79 30.5308C1274.95 -130.036 1329.12 -6.51529 1435.52 120.297" stroke="#142866" stroke-opacity="0.2" stroke-width="2.49664" stroke-miterlimit="10"/>
<path d="M2.80273 -37.0043C292.565 -117.737 322.265 221.089 510.905 186.631C540.313 181.256 568.046 160.564 595.8 135.791C710.465 33.4407 809.991 -184.901 900.176 -82.0739C1009.29 42.3311 1134.11 90.1248 1172.19 24.1097C1269.71 -144.969 1319.88 -2.64088 1435.15 134.74" stroke="#142866" stroke-opacity="0.2" stroke-width="2.49664" stroke-miterlimit="10"/>
<path d="M2.10254 -59.0565C314.154 -146 335.333 235.18 514.83 195.557C544.483 189.017 572.352 166.555 600.014 139.003C713.929 25.5696 811.38 -210.617 900.908 -100.223C1010.18 34.5204 1138.27 86.7494 1173.59 17.6884C1264.41 -159.903 1310.65 1.2333 1434.77 149.177" stroke="#142866" stroke-opacity="0.2" stroke-width="2.49664" stroke-miterlimit="10"/>
<path d="M1.40137 -81.1088C335.742 -174.263 348.195 249.014 518.755 204.491C548.615 196.696 576.668 172.54 604.227 142.223C717.433 17.6898 812.715 -236.347 901.633 -118.374C1010.99 26.7077 1142.41 83.3768 1174.99 11.2685C1259.07 -174.83 1301.41 5.1075 1434.4 163.62" stroke="#142866" stroke-opacity="0.2" stroke-width="2.49664" stroke-miterlimit="10"/>
<path d="M0.700195 -103.161C357.33 -202.526 360.808 262.63 522.679 213.424C552.702 204.301 581.058 178.572 608.441 145.435C721.242 10.0144 813.996 -262.096 902.365 -136.524C1011.73 18.8838 1146.42 79.9613 1176.4 4.84771C1253.37 -189.869 1292.16 8.98149 1434.03 178.064" stroke="#142866" stroke-opacity="0.2" stroke-width="2.49664" stroke-miterlimit="10"/>
<path d="M0 -125.214C378.919 -230.788 373.125 276.064 526.604 222.356C680.081 168.649 793.771 -320.396 903.097 -154.673C1012.42 11.0458 1150.66 76.6501 1177.8 -1.57308C1248.26 -204.643 1282.92 12.8555 1433.65 192.507" stroke="#142866" stroke-opacity="0.2" stroke-width="2.49664" stroke-miterlimit="10"/>
</svg>
