<svg width="1172" height="398" viewBox="0 0 1172 398" fill="none" xmlns="http://www.w3.org/2000/svg">
<path d="M1170.36 124.243C1170.36 124.243 845.495 432.444 360.249 256.715C30.5666 137.325 -116.556 397 -116.556 397" stroke="#142866" stroke-opacity="0.5" stroke-width="2.49664" stroke-miterlimit="10"/>
<path d="M-117.188 377.131C-97.1014 371.537 19.9671 193.069 290.668 243.595C314.147 247.978 338.666 252.739 364.047 259.612C478.073 290.492 582.359 288.177 676.01 294.316C766.308 300.234 848.567 288.831 913.847 263.165C1071.23 200.612 1162.04 127.734 1170.03 137.257" stroke="#142866" stroke-opacity="0.5" stroke-width="2.49664" stroke-miterlimit="10"/>
<path d="M-117.818 357.257C-77.6465 346.067 31.3974 209.914 294.206 251.645C317.884 255.405 342.519 257.983 367.844 262.51C481.091 282.748 584.137 263.776 676.67 277.961C767.719 291.915 852.489 286.073 915.112 257.379C1066.88 187.846 1153.71 131.226 1169.69 150.272" stroke="#142866" stroke-opacity="0.5" stroke-width="2.49664" stroke-miterlimit="10"/>
<path d="M-118.45 337.388C-58.1925 320.598 42.9964 226.401 297.742 259.694C321.637 262.817 346.354 263.237 371.641 265.407C484.026 275.046 586.011 239.583 677.323 261.605C769.239 283.772 856.361 283.174 916.376 251.594C1062.43 174.742 1145.38 134.717 1169.35 163.286" stroke="#142866" stroke-opacity="0.5" stroke-width="2.49664" stroke-miterlimit="10"/>
<path d="M-119.082 317.513C-38.7376 295.128 54.7465 242.521 301.279 267.744C325.406 270.213 350.176 267.807 375.438 268.304C486.874 270.496 587.929 215.602 677.982 245.249C770.827 275.815 860.239 280.256 917.64 245.808C1057.97 161.591 1137.06 138.208 1169.02 176.3" stroke="#142866" stroke-opacity="0.5" stroke-width="2.49664" stroke-miterlimit="10"/>
<path d="M-119.713 297.644C-19.2828 269.66 66.6252 258.267 304.816 275.793C329.19 277.586 353.979 273.792 379.236 271.201C489.707 259.865 589.847 191.821 678.642 228.894C772.421 268.047 864.118 277.316 918.905 240.022C1053.53 148.391 1128.73 141.7 1168.68 189.315" stroke="#142866" stroke-opacity="0.5" stroke-width="2.49664" stroke-miterlimit="10"/>
<path d="M-120.344 277.769C0.172422 244.191 78.723 296.331 308.353 283.843C332.973 282.504 357.78 279.101 383.034 274.098C492.497 252.413 591.729 168.217 679.297 212.538C773.973 260.455 867.991 274.356 920.17 234.236C1049.06 135.14 1120.41 145.191 1168.35 202.329" stroke="#142866" stroke-opacity="0.5" stroke-width="2.49664" stroke-miterlimit="10"/>
<path d="M-120.976 257.897C19.6269 218.722 91.6073 312.45 311.89 291.891C336.683 289.576 361.581 284.43 386.831 276.995C495.289 245.058 593.537 144.755 679.956 196.182C775.458 253.017 871.851 271.376 921.434 228.45C1044.59 121.843 1112.08 148.681 1168.01 215.343" stroke="#142866" stroke-opacity="0.5" stroke-width="2.49664" stroke-miterlimit="10"/>
<path d="M-121.606 238.024C39.0816 193.254 104.554 327.45 315.427 299.941C340.391 296.686 365.388 289.778 390.629 279.892C498.105 237.789 595.272 121.403 680.616 179.827C776.85 245.704 875.699 268.379 922.698 222.665C1040.07 108.501 1103.75 152.173 1167.67 228.357" stroke="#142866" stroke-opacity="0.5" stroke-width="2.49664" stroke-miterlimit="10"/>
<path d="M-122.238 218.153C58.5359 167.785 117.457 341.358 318.964 307.991C344.099 303.832 369.204 295.146 394.425 282.789C500.963 230.589 596.908 98.1314 681.269 163.471C778.133 238.49 879.541 265.366 923.963 216.879C1035.53 95.1221 1095.43 155.664 1167.33 241.371" stroke="#142866" stroke-opacity="0.5" stroke-width="2.49664" stroke-miterlimit="10"/>
<path d="M-122.87 198.28C77.9904 142.316 127.072 331.433 322.501 316.041C348.226 314.013 373.034 300.527 398.222 285.687C503.876 223.442 598.46 74.9127 681.929 147.115C779.312 231.349 883.358 262.341 925.227 211.093C1030.94 81.7113 1087.1 159.156 1167 254.385" stroke="#142866" stroke-opacity="0.5" stroke-width="2.49664" stroke-miterlimit="10"/>
<path d="M-123.501 178.407C97.4452 116.848 139.171 345.01 326.037 324.091C352.034 321.178 376.878 305.914 402.02 288.587C506.845 216.328 599.926 51.7262 682.589 130.76C780.381 224.259 887.163 259.306 926.497 205.307C1026.31 68.2771 1078.78 162.647 1166.66 267.399" stroke="#142866" stroke-opacity="0.5" stroke-width="2.49664" stroke-miterlimit="10"/>
<path d="M-124.133 158.535C116.899 91.3786 151.198 358.27 329.574 332.141C355.832 328.293 380.734 311.308 405.817 291.482C509.869 209.233 601.312 28.5551 683.242 114.404C781.351 217.199 890.944 256.267 927.761 199.521C1021.63 54.8272 1070.45 166.137 1166.33 280.414" stroke="#142866" stroke-opacity="0.5" stroke-width="2.49664" stroke-miterlimit="10"/>
<path d="M-124.765 138.663C136.354 65.9103 163.118 371.243 333.111 340.191C359.612 335.348 384.603 316.701 409.614 294.377C512.944 202.144 602.631 5.38571 683.901 98.0483C782.231 210.156 894.712 253.225 929.026 193.736C1016.9 41.3704 1062.12 169.629 1165.99 293.43" stroke="#142866" stroke-opacity="0.5" stroke-width="2.49664" stroke-miterlimit="10"/>
<path d="M-125.396 118.79C155.809 40.4415 174.894 383.942 336.648 348.235C363.369 342.341 388.484 322.1 413.411 297.272C516.066 195.051 603.883 -17.7884 684.561 81.6929C783.031 203.117 898.462 250.183 930.29 187.949C1012.13 27.9132 1053.8 173.121 1165.65 306.44" stroke="#142866" stroke-opacity="0.5" stroke-width="2.49664" stroke-miterlimit="10"/>
<path d="M-126.027 98.9181C175.263 14.9725 186.485 396.408 340.185 356.285C367.093 349.261 392.373 327.493 417.208 300.173C519.223 187.95 605.086 -40.9749 685.215 65.3368C783.764 196.077 902.194 247.144 931.554 182.164C1007.32 14.4613 1045.47 176.612 1165.32 319.455" stroke="#142866" stroke-opacity="0.5" stroke-width="2.49664" stroke-miterlimit="10"/>
<path d="M-126.659 79.0458C194.717 -10.4964 197.851 408.678 343.721 364.336C370.777 356.114 396.329 332.929 421.005 303.068C522.655 181.034 606.241 -64.1778 685.874 48.9814C784.43 189.026 905.804 244.066 932.818 176.378C1002.18 0.909354 1037.14 180.103 1164.98 332.471" stroke="#142866" stroke-opacity="0.5" stroke-width="2.49664" stroke-miterlimit="10"/>
<path d="M-127.29 59.1735C214.172 -35.9646 208.951 420.784 347.258 372.386C485.564 323.987 588.015 -116.715 686.534 32.626C785.047 181.963 909.621 241.083 934.083 170.592C997.579 -12.4043 1028.81 183.594 1164.64 345.487" stroke="#142866" stroke-opacity="0.5" stroke-width="2.49664" stroke-miterlimit="10"/>
</svg>
