<svg width="32" height="33" viewBox="0 0 32 33" fill="none" xmlns="http://www.w3.org/2000/svg">
<rect y="0.5" width="32" height="32" rx="6" fill="#1F40AE"/>
<path d="M19.3212 9.96025C21.2812 10.4581 22.5495 11.0404 23.9648 12.09V15.3782C23.9648 16.1561 23.6161 16.8811 23.0085 17.3671L19.3916 20.2607L17.4649 21.8025L13.996 19.0279C13.7606 18.8393 13.7256 18.5943 13.7256 18.4648C13.7256 18.3353 13.7606 18.0899 13.996 17.9017C14.1412 17.7854 14.2458 17.6257 14.2943 17.4454L14.6225 16.2235C14.7222 15.9868 14.7235 15.7221 14.6198 15.4819C14.3923 14.9543 13.81 14.8432 13.5305 14.7894C13.2553 14.7369 12.9175 14.6971 12.5911 14.659C12.3444 14.6301 11.9712 14.5864 11.7428 14.5426L11.2778 13.7538C11.5044 13.6282 11.7345 13.5001 11.9288 13.3749C11.9913 13.3347 12.0718 13.2831 12.1563 13.2179C14.3477 13.2183 16.4289 13.2227 16.4508 13.2227H16.4525C16.729 13.2227 16.9893 13.0919 17.1543 12.8705L19.3208 9.96068M18.9646 8.97412L16.4525 12.3481C16.4525 12.3481 14.1281 12.3433 11.7752 12.3433C11.7752 12.6041 9.8629 13.4226 10.1123 13.5014L11.147 15.2562C11.5079 15.5581 14.0813 15.5336 13.8004 15.9111L13.4491 17.2192C12.6511 17.858 12.6511 19.0725 13.4491 19.7117L17.4649 22.9238L19.9381 20.945L23.5549 18.0514C24.3669 17.4021 24.8398 16.4182 24.8398 15.3791V11.6573C22.9542 10.1882 21.3958 9.5385 18.9646 8.97456V8.97412Z" fill="white"/>
<path d="M20.5145 17.8387L18.569 15.5724L13.2564 14.7145L12.5512 13.7713L13.5128 12.8096L16.1194 12.7943L12.8815 8.97363C10.4503 9.53713 8.89148 10.1868 7.00586 11.6555V15.3773C7.00586 16.4173 7.47836 17.4003 8.29036 18.05L8.9593 18.5855L10.6362 17.4471L15.9995 21.5347L15.2488 23.6163L15.9234 24.1553C17.4105 22.9968 19.0695 21.6659 20.2555 20.7083C21.1367 19.9964 21.2539 18.6966 20.515 17.8383L20.5145 17.8387Z" fill="white"/>
<path d="M11.0602 18.4097C11.3586 18.4097 11.6522 18.5108 11.8875 18.6941L14.4425 20.6852C14.772 20.942 14.961 21.3287 14.961 21.7465V22.1534L10.281 18.4093H11.0602M11.0602 17.4468H9.35921C8.75503 17.4468 8.48815 18.2076 8.95978 18.5852L15.923 24.1558V21.7461C15.923 21.0347 15.5949 20.3627 15.0336 19.9257L12.4786 17.9346C12.073 17.6187 11.5738 17.4468 11.0598 17.4468H11.0602Z" fill="white"/>
<path d="M21.2696 18.705L18.5698 15.5725L13.7441 14.7024C13.2865 14.6197 12.9531 14.2211 12.9531 13.756C12.9531 13.2249 13.3836 12.7944 13.9147 12.7944H16.6784L17.4047 11.8057" stroke="white" stroke-linecap="round" stroke-linejoin="round"/>
</svg>
