<svg width="60" height="62" viewBox="0 0 60 62" fill="none" xmlns="http://www.w3.org/2000/svg">
<g filter="url(#filter0_d_696_13274)">
<path d="M26 9.3094C28.4752 7.88034 31.5248 7.88034 34 9.3094L43.3205 14.6906C45.7957 16.1197 47.3205 18.7607 47.3205 21.6188V32.3812C47.3205 35.2393 45.7957 37.8803 43.3205 39.3094L34 44.6906C31.5248 46.1197 28.4752 46.1197 26 44.6906L16.6795 39.3094C14.2043 37.8803 12.6795 35.2393 12.6795 32.3812V21.6188C12.6795 18.7607 14.2043 16.1197 16.6795 14.6906L26 9.3094Z" fill="#1F40AE"/>
<path d="M26.5 10.1754C28.6658 8.925 31.3342 8.925 33.5 10.1754L42.8205 15.5566C44.9863 16.8071 46.3205 19.1179 46.3205 21.6188V32.3812C46.3205 34.8821 44.9863 37.1929 42.8205 38.4434L33.5 43.8246C31.3342 45.075 28.6658 45.075 26.5 43.8246L17.1795 38.4434C15.0137 37.1929 13.6795 34.8821 13.6795 32.3812V21.6188C13.6795 19.1179 15.0137 16.8071 17.1795 15.5566L26.5 10.1754Z" stroke="#F5F5F5" stroke-width="2"/>
</g>
<g clip-path="url(#clip0_696_13274)">
<path d="M22.0139 33.5959C22.0138 34.3726 22.6433 35.0023 23.4199 35.0024L36.6074 35.0039C37.3841 35.004 38.0138 34.3745 38.0139 33.5978L38.0139 33.1291L22.0139 33.1272L22.0139 33.5959Z" fill="white"/>
<path d="M30.0144 28.8782C30.5322 28.8782 30.952 28.4585 30.952 27.9408C30.9521 27.423 30.5324 27.0032 30.0146 27.0032C29.4969 27.0031 29.0771 27.4228 29.077 27.9406C29.077 28.4583 29.4967 28.8781 30.0144 28.8782Z" fill="#091E63"/>
<path d="M37.0776 23.7227L35.1713 23.7225L35.1714 23.4479L36.109 22.5105L36.1091 21.7613C36.6535 21.5672 37.0466 21.0205 37.0467 20.4102C37.0468 19.6348 36.4161 19.0039 35.6406 19.0038C34.8652 19.0037 34.2343 19.6345 34.2342 20.4099C34.2341 21.0202 34.6271 21.5669 35.1716 21.7612L35.1715 22.1222L34.2339 23.0596L34.2338 23.7224L31.4213 23.7221L31.4214 23.4474L32.359 22.51L32.3591 21.7608C32.9035 21.5667 33.2966 21.0201 33.2967 20.4098C33.2968 19.6344 32.6661 19.0035 31.8906 19.0034C31.1152 19.0033 30.4843 19.634 30.4842 20.4095C30.4841 21.0198 30.8771 21.5665 31.4216 21.7607L31.4215 22.1217L30.4839 23.0591L30.4838 23.722L29.5463 23.7218L29.5464 23.059L28.609 22.1214L28.6091 21.7604C29.1535 21.5663 29.5466 21.0197 29.5467 20.4093C29.5468 19.6339 28.9161 19.003 28.1406 19.0029C27.3652 19.0028 26.7343 19.6336 26.7342 20.409C26.7341 21.0193 27.1271 21.5661 27.6716 21.7603L27.6715 22.5095L28.6089 23.4471L28.6088 23.7217L25.7963 23.7214L25.7964 23.0586L24.859 22.121L24.8591 21.76C25.4035 21.5659 25.7966 21.0192 25.7967 20.4089C25.7968 19.6335 25.1661 19.0026 24.3906 19.0025C23.6152 19.0024 22.9843 19.6331 22.9842 20.4086C22.9841 21.0189 23.3771 21.5656 23.9216 21.7598L23.9215 22.509L24.8589 23.4466L24.8588 23.7213L22.9526 23.7211L22.9516 32.1898L37.0766 32.1915L37.0776 23.7227ZM31.8896 27.9409C31.8896 28.1143 31.8582 28.2791 31.8139 28.4386L32.6841 28.9412L32.2153 29.7532L31.35 29.2534C31.1155 29.4918 30.8164 29.6625 30.4831 29.7491L30.483 30.7532L29.5455 30.7531L29.5456 29.749C29.2124 29.6623 28.9132 29.4916 28.6788 29.2531L27.8134 29.7527L27.3448 28.9406L28.2151 28.4382C28.1708 28.2786 28.1396 28.1139 28.1396 27.9404C28.1396 27.767 28.1709 27.6022 28.2152 27.4427L27.345 26.9401L27.8138 26.1281L28.6791 26.6279C28.9136 26.3895 29.2128 26.2188 29.546 26.1322L29.5462 25.1281L30.4837 25.1282L30.4835 26.1323C30.8168 26.219 31.1159 26.3897 31.3503 26.6282L32.2157 26.1286L32.6844 26.9407L31.814 27.4431C31.8583 27.6027 31.8896 27.7674 31.8896 27.9409Z" fill="white"/>
</g>
<defs>
<filter id="filter0_d_696_13274" x="0.679443" y="0.23761" width="58.6411" height="61.5248" filterUnits="userSpaceOnUse" color-interpolation-filters="sRGB">
<feFlood flood-opacity="0" result="BackgroundImageFix"/>
<feColorMatrix in="SourceAlpha" type="matrix" values="0 0 0 0 0 0 0 0 0 0 0 0 0 0 0 0 0 0 127 0" result="hardAlpha"/>
<feOffset dy="4"/>
<feGaussianBlur stdDeviation="6"/>
<feComposite in2="hardAlpha" operator="out"/>
<feColorMatrix type="matrix" values="0 0 0 0 0.376471 0 0 0 0 0.376471 0 0 0 0 0.376471 0 0 0 0.15 0"/>
<feBlend mode="normal" in2="BackgroundImageFix" result="effect1_dropShadow_696_13274"/>
<feBlend mode="normal" in="SourceGraphic" in2="effect1_dropShadow_696_13274" result="shape"/>
</filter>
<clipPath id="clip0_696_13274">
<rect width="16" height="16" fill="white" transform="translate(22.0156 19.0022)"/>
</clipPath>
</defs>
</svg>
