<svg width="28" height="28" viewBox="0 0 28 28" fill="none" xmlns="http://www.w3.org/2000/svg">
<path d="M27.1337 15.2198C23.0105 13.5227 18.3793 13.5247 14.2574 15.2277C13.6681 15.4712 13.4338 16.1838 13.7606 16.7318C14.6269 18.1828 15.9354 19.3384 17.5006 20.0137H23.8866C25.4543 19.3371 26.7649 18.1782 27.6311 16.7239C27.9573 16.176 27.7223 15.4633 27.133 15.2205L27.1337 15.2198Z" fill="#1F40AE"/>
<path d="M20.6969 12.8649C18.7518 12.8649 17.1748 11.2879 17.1748 9.3428V6.25908L17.2024 6.22298C18.969 3.8933 22.4773 3.91102 24.2196 6.25908V9.3428C24.2196 11.2879 22.6427 12.8649 20.6976 12.8649H20.6969Z" fill="#1F40AE"/>
<path d="M18.5417 17.9934C13.0338 15.726 6.84801 15.7293 1.34208 18.0039C0.554577 18.3287 0.242202 19.2816 0.678608 20.0127C1.83558 21.9506 3.58383 23.4947 5.67464 24.3964H14.2052C16.3 23.4928 18.0502 21.9447 19.2072 20.0015C19.6429 19.2698 19.3292 18.3176 18.5417 17.9934Z" fill="#B4BFE4"/>
<path d="M9.94262 14.6925C7.34387 14.6925 5.2373 12.5859 5.2373 9.98719V5.86791L5.27405 5.81935C7.63327 2.70676 12.3202 2.73104 14.6473 5.86791V9.98719C14.6473 12.5859 12.5407 14.6925 9.94196 14.6925H9.94262Z" fill="#B4BFE4"/>
</svg>
