<svg width="18" height="18" viewBox="0 0 18 18" fill="none" xmlns="http://www.w3.org/2000/svg">
<path d="M14.25 0H9.75C7.68225 0 6 1.68225 6 3.75V8.25C6 10.3177 7.68225 12 9.75 12H14.25C16.3177 12 18 10.3177 18 8.25V3.75C18 1.68225 16.3177 0 14.25 0ZM16.5 8.25C16.5 9.4905 15.4905 10.5 14.25 10.5H9.75C8.5095 10.5 7.5 9.4905 7.5 8.25V3.75C7.5 2.5095 8.5095 1.5 9.75 1.5H14.25C15.4905 1.5 16.5 2.5095 16.5 3.75V8.25ZM12 14.25C12 16.3177 10.3177 18 8.25 18H3.75C1.68225 18 0 16.3177 0 14.25V9.75C0 7.68225 1.68225 6 3.75 6C4.16475 6 4.5 6.336 4.5 6.75C4.5 7.164 4.16475 7.5 3.75 7.5C2.5095 7.5 1.5 8.5095 1.5 9.75V14.25C1.5 15.4905 2.5095 16.5 3.75 16.5H8.25C9.4905 16.5 10.5 15.4905 10.5 14.25C10.5 13.836 10.8352 13.5 11.25 13.5C11.6648 13.5 12 13.836 12 14.25Z" fill="#1F40AE"/>
</svg>
