<svg width="28" height="28" viewBox="0 0 28 28" fill="none" xmlns="http://www.w3.org/2000/svg">
<path d="M11.4803 17.8743C12.5322 17.8743 13.5916 17.9627 14.6291 18.1374C16.0235 18.3723 17.3923 18.7633 18.6966 19.3007C18.7052 19.3044 18.7259 19.3129 18.7366 19.3443C18.7462 19.3736 18.7382 19.3939 18.7329 19.404C18.7302 19.4088 18.727 19.4136 18.7243 19.4184C17.8583 20.8687 16.5502 22.0473 15.0238 22.7578H7.9145C6.38752 22.0468 5.0789 20.8681 4.21341 19.4178C4.20861 19.4093 4.1953 19.3875 4.20648 19.3534C4.21713 19.3214 4.23737 19.3129 4.24643 19.3097C6.55103 18.3579 8.98505 17.8749 11.4803 17.8749M11.4803 16.7031C8.86894 16.7031 6.25809 17.2107 3.79904 18.2264C3.09653 18.5167 2.81744 19.3662 3.20731 20.0186C4.2395 21.7475 5.79898 23.1248 7.66418 23.9296H15.2741C17.1388 23.1253 18.6982 21.748 19.7304 20.0191C19.7326 20.016 19.7347 20.0128 19.7368 20.009C20.1256 19.356 19.8455 18.5065 19.143 18.2173C17.7427 17.6411 16.294 17.2299 14.8235 16.9822C13.7173 16.7958 12.5988 16.7031 11.4803 16.7031Z" fill="#1F88AE"/>
<path d="M11.4715 6.45983C12.6453 6.45983 13.7292 6.94929 14.4972 7.81425V11.0749C14.4972 12.743 13.1401 14.1006 11.4715 14.1006C9.8028 14.1006 8.44571 12.7435 8.44571 11.0749V7.81478C9.21426 6.94983 10.2997 6.45983 11.4709 6.45983M11.4709 5.28809C9.91198 5.28809 8.35303 5.97675 7.30646 7.35727L7.27344 7.40041V11.0754C7.27344 13.3933 9.15248 15.2729 11.4709 15.2729C13.7888 15.2729 15.6684 13.3939 15.6684 11.0754V7.40041C14.6245 5.99326 13.048 5.28809 11.4709 5.28809Z" fill="#1F88AE"/>
<path d="M25.467 9.57621H23.418V7.52726C23.418 7.1294 23.0953 6.80664 22.6974 6.80664H21.3691C20.9712 6.80664 20.6485 7.1294 20.6485 7.52726V9.57621H18.5995C18.2017 9.57621 17.8789 9.89897 17.8789 10.2968V11.6252C17.8789 12.023 18.2017 12.3458 18.5995 12.3458H20.6485V14.3947C20.6485 14.7926 20.9712 15.1153 21.3691 15.1153H22.6974C23.0953 15.1153 23.418 14.7926 23.418 14.3947V12.3458H25.467C25.8648 12.3458 26.1876 12.023 26.1876 11.6252V10.2968C26.1876 9.89897 25.8648 9.57621 25.467 9.57621Z" fill="#1F88AE"/>
</svg>
