<svg width="60" height="62" viewBox="0 0 60 62" fill="none" xmlns="http://www.w3.org/2000/svg">
<g filter="url(#filter0_d_696_13282)">
<path d="M26 9.3094C28.4752 7.88034 31.5248 7.88034 34 9.3094L43.3205 14.6906C45.7957 16.1197 47.3205 18.7607 47.3205 21.6188V32.3812C47.3205 35.2393 45.7957 37.8803 43.3205 39.3094L34 44.6906C31.5248 46.1197 28.4752 46.1197 26 44.6906L16.6795 39.3094C14.2043 37.8803 12.6795 35.2393 12.6795 32.3812V21.6188C12.6795 18.7607 14.2043 16.1197 16.6795 14.6906L26 9.3094Z" fill="#258426"/>
<path d="M26.5 10.1754C28.6658 8.925 31.3342 8.925 33.5 10.1754L42.8205 15.5566C44.9863 16.8071 46.3205 19.1179 46.3205 21.6188V32.3812C46.3205 34.8821 44.9863 37.1929 42.8205 38.4434L33.5 43.8246C31.3342 45.075 28.6658 45.075 26.5 43.8246L17.1795 38.4434C15.0137 37.1929 13.6795 34.8821 13.6795 32.3812V21.6188C13.6795 19.1179 15.0137 16.8071 17.1795 15.5566L26.5 10.1754Z" stroke="#F5F5F5" stroke-width="2"/>
</g>
<path d="M26.3745 25.6706C27.3349 25.4963 29.7619 25.5645 30.7253 25.8263C31.4505 29.8995 31.4505 34.128 31.4505 34.128H26.3745V25.6703V25.6706Z" fill="white"/>
<path d="M28.5742 24.9585C27.3929 24.9585 26.4355 24.0011 26.4355 22.8199L26.4682 20.9475L26.485 20.9254C27.5575 19.5109 29.6875 19.5217 30.7454 20.9475L30.7128 22.8199C30.7128 24.0011 29.7554 24.9585 28.5742 24.9585Z" fill="white"/>
<path d="M30.7252 25.8266L30.7455 34.1284H36.5261V33.4031C36.5261 33.4031 36.5216 33.4013 36.5122 33.3979C34.8716 32.7638 33.6341 31.3943 33.147 29.7041C32.5732 27.7144 31.6886 26.0884 31.6886 26.0884L30.7249 25.8263L30.7252 25.8266Z" fill="white"/>
<path d="M26.3744 29.7986V25.671C26.3744 25.671 24.9127 25.9297 24.2568 26.0696C24.2568 26.0696 23.3021 28.641 23.5012 31.7932C23.5016 31.8004 23.5019 31.8075 23.5027 31.8142C23.5874 33.1185 24.6806 34.1287 25.9878 34.1287H30.7458L30.5842 33.1789C27.1297 32.8935 26.3748 31.3526 26.3748 29.7986H26.3744Z" fill="white"/>
<path d="M28.672 26.2774C28.6656 26.2774 28.6589 26.2766 28.6525 26.2763C28.2115 26.2541 27.8361 26.5946 27.8174 27.036C27.7394 28.8731 27.739 31.3804 27.739 31.3804L28.9124 32.7026L30.0156 31.2769L29.4231 27C29.3875 26.6055 29.0676 26.2973 28.672 26.277V26.2774Z" fill="#2D9E2E"/>
<defs>
<filter id="filter0_d_696_13282" x="0.679443" y="0.23761" width="58.6411" height="61.5248" filterUnits="userSpaceOnUse" color-interpolation-filters="sRGB">
<feFlood flood-opacity="0" result="BackgroundImageFix"/>
<feColorMatrix in="SourceAlpha" type="matrix" values="0 0 0 0 0 0 0 0 0 0 0 0 0 0 0 0 0 0 127 0" result="hardAlpha"/>
<feOffset dy="4"/>
<feGaussianBlur stdDeviation="6"/>
<feComposite in2="hardAlpha" operator="out"/>
<feColorMatrix type="matrix" values="0 0 0 0 0.376471 0 0 0 0 0.376471 0 0 0 0 0.376471 0 0 0 0.15 0"/>
<feBlend mode="normal" in2="BackgroundImageFix" result="effect1_dropShadow_696_13282"/>
<feBlend mode="normal" in="SourceGraphic" in2="effect1_dropShadow_696_13282" result="shape"/>
</filter>
</defs>
</svg>
