<svg width="24" height="24" viewBox="0 0 24 24" fill="none" xmlns="http://www.w3.org/2000/svg">
<path d="M6.78906 10.1299C8.17651 9.87548 11.6828 9.97508 13.0746 10.3571C14.1223 16.3013 14.1223 22.4721 14.1223 22.4721H6.78906V10.1294V10.1299Z" fill="#B4BFE4"/>
<path d="M9.96662 9.09093C8.26007 9.09093 6.87695 7.6938 6.87695 5.96995L6.92409 3.23752L6.94847 3.20523C8.4979 1.141 11.5751 1.15687 13.1034 3.23752L13.0563 5.96995C13.0563 7.6938 11.6732 9.09093 9.96662 9.09093Z" fill="#1F40AE"/>
<path d="M13.0748 10.358L13.104 22.473H21.4553V21.4147C21.4553 21.4147 21.4488 21.4119 21.4352 21.407C19.065 20.4816 17.2772 18.483 16.5735 16.0166C15.7446 13.1128 14.4665 10.74 14.4665 10.74L13.0742 10.3574L13.0748 10.358Z" fill="#B4BFE4"/>
<path d="M6.78907 16.1545V10.1309C6.78907 10.1309 4.67729 10.5085 3.72975 10.7126C3.72975 10.7126 2.35042 14.4651 2.6381 19.0653C2.63864 19.0757 2.63918 19.0861 2.64027 19.0959C2.7627 20.9993 4.34194 22.4736 6.23051 22.4736H13.1044L12.8709 21.0874C7.88018 20.6709 6.78961 18.4223 6.78961 16.1545H6.78907Z" fill="#B4BFE4"/>
<path d="M10.1086 11.0158C10.0994 11.0158 10.0897 11.0147 10.0805 11.0142C9.44336 10.9819 8.90106 11.4788 8.87397 12.1229C8.76128 14.8039 8.76074 18.4628 8.76074 18.4628L10.4559 20.3924L12.0498 18.3118L11.1938 12.0704C11.1423 11.4947 10.6802 11.0448 10.1086 11.0153V11.0158Z" fill="#6A80C9"/>
</svg>
