<svg width="40" height="40" viewBox="0 0 40 40" fill="none" xmlns="http://www.w3.org/2000/svg">
<g clip-path="url(#clip0_1776_953)">
<path d="M39.8218 27.7821L39.8129 27.7731C37.8441 23.6079 34.795 21.4651 30.737 21.4651C26.6789 21.4651 23.6298 23.6124 21.6566 27.7731V27.7776C21.5375 28.0319 21.4758 28.3093 21.4758 28.5901C21.4758 28.8709 21.5375 29.1483 21.6566 29.4026C23.6298 33.5633 26.6789 35.7062 30.737 35.7062C34.795 35.7062 37.8441 33.5588 39.8173 29.3981C40.0584 28.8847 40.0584 28.291 39.8218 27.7821ZM30.737 32.849C27.9647 32.849 25.9423 31.5097 24.4379 28.5856C25.9379 25.6615 27.9647 24.3222 30.737 24.3222C33.5093 24.3222 35.5316 25.6615 37.0361 28.5856C35.5361 31.5097 33.5093 32.849 30.737 32.849Z" fill="#383F4C"/>
<path d="M28.2589 28.6079C28.2589 29.271 28.5223 29.9069 28.9912 30.3757C29.46 30.8446 30.0959 31.1079 30.7589 31.1079C31.422 31.1079 32.0579 30.8446 32.5267 30.3757C32.9955 29.9069 33.2589 29.271 33.2589 28.6079C33.2589 27.9449 32.9955 27.309 32.5267 26.8402C32.0579 26.3713 31.422 26.1079 30.7589 26.1079C30.0959 26.1079 29.46 26.3713 28.9912 26.8402C28.5223 27.309 28.2589 27.9449 28.2589 28.6079ZM3.21429 7.49187H34.6429V18.7865H37.8571V5.70616C37.8571 4.91598 37.2188 4.27759 36.4286 4.27759H1.42857C0.638393 4.27759 0 4.91598 0 5.70616V28.9204C0 29.7106 0.638393 30.349 1.42857 30.349H17.1429V27.1347H3.21429V7.49187Z" fill="#383F4C"/>
<path d="M29.5047 12.2349L27.8618 10.5921C27.7947 10.5256 27.704 10.4883 27.6096 10.4883C27.5151 10.4883 27.4245 10.5256 27.3573 10.5921L19.152 18.8064L15.3082 14.9582C15.2411 14.8917 15.1505 14.8544 15.056 14.8544C14.9615 14.8544 14.8709 14.8917 14.8038 14.9582L8.3618 21.4001C8.29534 21.4673 8.25805 21.5579 8.25805 21.6524C8.25805 21.7468 8.29534 21.8375 8.3618 21.9046L10.0047 23.5474C10.1431 23.6858 10.3707 23.6858 10.5091 23.5474L15.0538 19.0028L18.8975 22.851C19.0359 22.9894 19.2636 22.9894 19.402 22.851L29.5047 12.7394C29.6475 12.601 29.6475 12.3733 29.5047 12.2349Z" fill="#383F4C"/>
</g>
<defs>
<clipPath id="clip0_1776_953">
<rect width="40" height="40" fill="white"/>
</clipPath>
</defs>
</svg>
