<svg width="24" height="24" viewBox="0 0 24 24" fill="none" xmlns="http://www.w3.org/2000/svg">
<path d="M12.2861 20.5127L2.28613 16.5127V18.8556C2.28613 19.1156 2.44442 19.3493 2.68613 19.4458L11.3787 22.923C11.9616 23.1561 12.6113 23.1561 13.1941 22.923L21.8867 19.4458C22.1284 19.3493 22.2867 19.1156 22.2867 18.8556V16.5127L12.2867 20.5127H12.2861Z" fill="#B4BFE4"/>
<path d="M2.59985 16.0499L11.497 12.491C12.0038 12.2882 12.569 12.2882 13.0753 12.491L21.9724 16.0499C22.3907 16.2173 22.3907 16.8087 21.9724 16.9762L13.0753 20.535C12.5684 20.7379 12.0033 20.7379 11.497 20.535L2.59985 16.9762C2.18156 16.8087 2.18156 16.2173 2.59985 16.0499Z" fill="#1F40AE"/>
<path d="M11.5759 7.04199H12.997C13.8022 7.04199 14.4553 7.69571 14.4553 8.50028V15.7448C14.4553 16.9266 13.4959 17.886 12.3142 17.886H12.2593C11.0776 17.886 10.1182 16.9266 10.1182 15.7448V8.50028C10.1182 7.69513 10.7719 7.04199 11.5764 7.04199H11.5759Z" fill="#6A80C9"/>
<path d="M12.286 9.81801C14.6816 9.81801 16.6237 7.87595 16.6237 5.48029C16.6237 3.08464 14.6816 1.14258 12.286 1.14258C9.8903 1.14258 7.94824 3.08464 7.94824 5.48029C7.94824 7.87595 9.8903 9.81801 12.286 9.81801Z" fill="#B4BFE4"/>
</svg>
