<svg width="76" height="82" viewBox="0 0 76 82" fill="none" xmlns="http://www.w3.org/2000/svg">
<g filter="url(#filter0_d_1810_6763)">
<path d="M34 9.3094C36.4752 7.88034 39.5248 7.88034 42 9.3094L59.9808 19.6906C62.456 21.1197 63.9808 23.7607 63.9808 26.6188V47.3812C63.9808 50.2393 62.456 52.8803 59.9808 54.3094L42 64.6906C39.5248 66.1197 36.4752 66.1197 34 64.6906L16.0192 54.3094C13.544 52.8803 12.0192 50.2393 12.0192 47.3812V26.6188C12.0192 23.7607 13.544 21.1197 16.0192 19.6906L34 9.3094Z" fill="#FEF5E2"/>
<path d="M34.5 10.1754C36.6658 8.925 39.3342 8.925 41.5 10.1754L59.4808 20.5566C61.6466 21.8071 62.9808 24.1179 62.9808 26.6188V47.3812C62.9808 49.8821 61.6466 52.1929 59.4808 53.4434L41.5 63.8246C39.3342 65.075 36.6658 65.075 34.5 63.8246L16.5192 53.4434C14.3534 52.1929 13.0192 49.8821 13.0192 47.3812V26.6188C13.0192 24.1179 14.3534 21.8071 16.5192 20.5566L34.5 10.1754Z" stroke="#F5F5F5" stroke-width="2"/>
</g>
<path d="M33.7237 44.7456C33.1375 44.7456 32.6606 44.2687 32.6606 43.6818L32.6456 27.4475C36.2156 26.8637 39.8231 26.8631 43.3931 27.4475L43.405 40.2212C43.79 40.2931 44.1737 40.3775 44.5537 40.4775C45.1262 40.6281 45.5256 41.1418 45.5443 41.7306L45.53 25.6668L44.6618 25.5012C40.2537 24.6612 35.7837 24.6612 31.3762 25.5012L30.5068 25.6668L30.5231 43.6825C30.5231 45.4475 31.9587 46.8831 33.7243 46.8831H36.2281L35.5156 44.745H33.725L33.7237 44.7456Z" fill="#FAB136"/>
<path d="M45.3257 44.8419C45.3638 44.7438 45.3976 44.6438 45.4257 44.5413L45.3257 44.8419Z" fill="#A66C09"/>
<path d="M42.3457 46.8832H36.2275L37.0294 49.2894C39.1644 50.4032 41.7082 50.4032 43.8432 49.2894L45.3257 44.8413C44.86 46.0344 43.7013 46.8832 42.3457 46.8832Z" fill="#533605"/>
<path d="M39.4275 39.0431L38.6519 35.1644C37.7638 34.285 36.6969 34.9 36.6969 35.7644V40.3838C36.5694 40.4138 36.4425 40.4456 36.3163 40.4788C35.7307 40.6319 35.3263 41.1675 35.3263 41.7731V44.1794L35.515 44.745H42.3463C42.9325 44.745 43.4088 44.2681 43.4088 43.6819L43.4057 40.2206C42.4494 40.0425 41.4819 39.95 40.5132 39.9456C39.9838 39.9431 39.5319 39.5619 39.4282 39.0431H39.4275Z" fill="#A66C09"/>
<path d="M45.5463 41.7725C45.5463 41.7581 45.5451 41.7444 45.5444 41.73L45.5463 43.6794V41.7725Z" fill="#8A5700"/>
<path d="M45.5463 43.6812V43.6793L45.5444 41.73C45.5257 41.1412 45.1263 40.6275 44.5538 40.4768C44.1732 40.3768 43.79 40.2925 43.405 40.2206L43.4082 43.6818C43.4082 44.2681 42.9313 44.745 42.3457 44.745H35.5144L36.2269 46.8831H42.345C43.7007 46.8831 44.8594 46.0343 45.325 44.8412L45.425 44.5406C45.5013 44.2668 45.5457 43.9793 45.5457 43.6812H45.5463Z" fill="#A66C09"/>
<defs>
<filter id="filter0_d_1810_6763" x="0.0192871" y="0.237549" width="75.9614" height="81.5249" filterUnits="userSpaceOnUse" color-interpolation-filters="sRGB">
<feFlood flood-opacity="0" result="BackgroundImageFix"/>
<feColorMatrix in="SourceAlpha" type="matrix" values="0 0 0 0 0 0 0 0 0 0 0 0 0 0 0 0 0 0 127 0" result="hardAlpha"/>
<feOffset dy="4"/>
<feGaussianBlur stdDeviation="6"/>
<feComposite in2="hardAlpha" operator="out"/>
<feColorMatrix type="matrix" values="0 0 0 0 0.376471 0 0 0 0 0.376471 0 0 0 0 0.376471 0 0 0 0.15 0"/>
<feBlend mode="normal" in2="BackgroundImageFix" result="effect1_dropShadow_1810_6763"/>
<feBlend mode="normal" in="SourceGraphic" in2="effect1_dropShadow_1810_6763" result="shape"/>
</filter>
</defs>
</svg>
