<svg width="76" height="82" viewBox="0 0 76 82" fill="none" xmlns="http://www.w3.org/2000/svg">
<g filter="url(#filter0_d_1810_6790)">
<path d="M34.0173 9.31246C36.4927 7.88369 39.5423 7.88405 42.0173 9.31341L59.9968 19.6967C62.4719 21.1261 63.9964 23.7673 63.996 26.6254L63.9936 47.3878C63.9932 50.2459 62.4681 52.8868 59.9928 54.3155L42.0108 64.6946C39.5354 66.1234 36.4858 66.123 34.0108 64.6937L16.0312 54.3103C13.5562 52.881 12.0317 50.2398 12.0321 47.3817L12.0345 26.6193C12.0348 23.7612 13.5599 21.1203 16.0353 19.6915L34.0173 9.31246Z" fill="#EDEFF7"/>
<path d="M34.5172 10.1785C36.6832 8.92837 39.3515 8.92869 41.5172 10.1794L59.4967 20.5627C61.6624 21.8134 62.9963 24.1244 62.996 26.6253L62.9936 47.3877C62.9933 49.8885 61.6588 52.1993 59.4929 53.4494L41.5109 63.8285C39.3449 65.0787 36.6765 65.0784 34.5109 63.8277L16.5313 53.4444C14.3657 52.1937 13.0318 49.8826 13.0321 47.3818L13.0345 26.6194C13.0348 24.1185 14.3693 21.8078 16.5352 20.5576L34.5172 10.1785Z" stroke="#F5F5F5" stroke-width="2"/>
</g>
<g clip-path="url(#clip0_1810_6790)">
<path d="M26.013 46.8927C26.0128 48.0577 26.9571 49.0022 28.1221 49.0023L47.9034 49.0047C49.0683 49.0048 50.0128 48.0605 50.013 46.8955L50.0131 46.1924L26.0131 46.1896L26.013 46.8927Z" fill="#152B74"/>
<path d="M38.0137 39.816C38.7904 39.8161 39.42 39.1865 39.4201 38.4099C39.4202 37.6332 38.7907 37.0036 38.014 37.0035C37.2374 37.0034 36.6077 37.6329 36.6076 38.4095C36.6075 39.1862 37.2371 39.8159 38.0137 39.816Z" fill="#091E63"/>
<path d="M48.6084 32.0828L45.749 32.0825L45.7491 31.6705L47.1555 30.2644L47.1556 29.1406C47.9723 28.8495 48.562 28.0295 48.5621 27.1141C48.5623 25.9509 47.6162 25.0046 46.453 25.0044C45.2898 25.0043 44.3435 25.9504 44.3434 27.1136C44.3433 28.029 44.9328 28.8491 45.7494 29.1405L45.7493 29.682L44.3429 31.088L44.3428 32.0823L40.124 32.0818L40.1241 31.6698L41.5305 30.2637L41.5306 29.14C42.3473 28.8488 42.937 28.0289 42.9371 27.1134C42.9373 25.9502 41.9912 25.0039 40.828 25.0038C39.6648 25.0036 38.7185 25.9497 38.7184 27.1129C38.7183 28.0284 39.3078 28.8485 40.1244 29.1398L40.1243 29.6813L38.7179 31.0874L38.7178 32.0817L37.3115 32.0815L37.3117 31.0872L35.9056 29.6808L35.9056 29.1393C36.7223 28.8482 37.312 28.0282 37.3121 27.1127C37.3123 25.9496 36.3662 25.0033 35.203 25.0031C34.0398 25.003 33.0935 25.9491 33.0934 27.1122C33.0933 28.0277 33.6828 28.8478 34.4994 29.1391L34.4993 30.2629L35.9053 31.6693L35.9053 32.0813L31.6865 32.0808L31.6867 31.0866L30.2806 29.6801L30.2806 29.1386C31.0973 28.8475 31.687 28.0275 31.6871 27.1121C31.6873 25.9489 30.7412 25.0026 29.578 25.0025C28.4148 25.0023 27.4685 25.9484 27.4684 27.1116C27.4683 28.027 28.0578 28.8471 28.8744 29.1385L28.8743 30.2623L30.2803 31.6687L30.2803 32.0807L27.4209 32.0803L27.4194 44.7834L48.6069 44.7859L48.6084 32.0828ZM40.8264 38.41C40.8264 38.6702 40.7794 38.9173 40.7129 39.1566L42.0183 39.9105L41.315 41.1285L40.0171 40.3788C39.6654 40.7365 39.2166 40.9925 38.7167 41.1223L38.7166 42.6285L37.3103 42.6284L37.3105 41.1222C36.8106 40.9922 36.3619 40.7361 36.0103 40.3783L34.7122 41.1278L34.0092 39.9096L35.3147 39.156C35.2483 38.9167 35.2014 38.6695 35.2014 38.4094C35.2015 38.1492 35.2485 37.9021 35.3149 37.6628L34.0096 36.9089L34.7128 35.6909L36.0108 36.4406C36.3625 36.0829 36.8112 35.8269 37.3111 35.697L37.3113 34.1909L38.7175 34.191L38.7174 35.6972C39.2172 35.8272 39.6659 36.0832 40.0175 36.441L41.3156 35.6916L42.0186 36.9098L40.7131 37.6634C40.7795 37.9027 40.8265 38.1499 40.8264 38.41Z" fill="#1A3591"/>
</g>
<defs>
<filter id="filter0_d_1810_6790" x="0.0321045" y="0.241089" width="75.9639" height="81.5248" filterUnits="userSpaceOnUse" color-interpolation-filters="sRGB">
<feFlood flood-opacity="0" result="BackgroundImageFix"/>
<feColorMatrix in="SourceAlpha" type="matrix" values="0 0 0 0 0 0 0 0 0 0 0 0 0 0 0 0 0 0 127 0" result="hardAlpha"/>
<feOffset dy="4"/>
<feGaussianBlur stdDeviation="6"/>
<feComposite in2="hardAlpha" operator="out"/>
<feColorMatrix type="matrix" values="0 0 0 0 0.376471 0 0 0 0 0.376471 0 0 0 0 0.376471 0 0 0 0.15 0"/>
<feBlend mode="normal" in2="BackgroundImageFix" result="effect1_dropShadow_1810_6790"/>
<feBlend mode="normal" in="SourceGraphic" in2="effect1_dropShadow_1810_6790" result="shape"/>
</filter>
<clipPath id="clip0_1810_6790">
<rect width="24" height="24" fill="white" transform="translate(26.0155 25.0021)"/>
</clipPath>
</defs>
</svg>
