<svg width="76" height="82" viewBox="0 0 76 82" fill="none" xmlns="http://www.w3.org/2000/svg">
<g filter="url(#filter0_d_1810_6823)">
<path d="M34 9.3094C36.4752 7.88034 39.5248 7.88034 42 9.3094L59.9808 19.6906C62.456 21.1197 63.9808 23.7607 63.9808 26.6188V47.3812C63.9808 50.2393 62.456 52.8803 59.9808 54.3094L42 64.6906C39.5248 66.1197 36.4752 66.1197 34 64.6906L16.0192 54.3094C13.544 52.8803 12.0192 50.2393 12.0192 47.3812V26.6188C12.0192 23.7607 13.544 21.1197 16.0192 19.6906L34 9.3094Z" fill="#F0F5F0"/>
<path d="M34.5 10.1754C36.6658 8.925 39.3342 8.925 41.5 10.1754L59.4808 20.5566C61.6466 21.8071 62.9808 24.1179 62.9808 26.6188V47.3812C62.9808 49.8821 61.6466 52.1929 59.4808 53.4434L41.5 63.8246C39.3342 65.075 36.6658 65.075 34.5 63.8246L16.5192 53.4434C14.3534 52.1929 13.0192 49.8821 13.0192 47.3812V26.6188C13.0192 24.1179 14.3534 21.8071 16.5192 20.5566L34.5 10.1754Z" stroke="#F5F5F5" stroke-width="2"/>
</g>
<path d="M31.9575 34.7843C33.5581 34.4937 37.6031 34.6075 39.2088 35.0437C40.4175 41.8325 40.4175 48.88 40.4175 48.88H31.9575V34.7837V34.7843Z" fill="#73BE74"/>
<path d="M35.6237 33.5976C33.655 33.5976 32.0593 32.0019 32.0593 30.0332L32.1137 26.9126L32.1418 26.8757C33.9293 24.5182 37.4793 24.5363 39.2425 26.9126L39.1881 30.0332C39.1881 32.0019 37.5925 33.5976 35.6237 33.5976Z" fill="#50AE51"/>
<path d="M39.2088 35.0444L39.2425 48.8807H48.8769V47.6719C48.8769 47.6719 48.8694 47.6688 48.8538 47.6632C46.1194 46.6063 44.0569 44.3238 43.245 41.5069C42.2888 38.1907 40.8144 35.4807 40.8144 35.4807L39.2081 35.0438L39.2088 35.0444Z" fill="#73BE74"/>
<path d="M31.9574 37.5212L31.9786 48.8806H40.4174C40.4174 48.8806 40.4174 42.7462 39.5986 37.5212H31.9574Z" fill="#2D9E2E"/>
<path d="M31.9574 41.6644V34.785C31.9574 34.785 29.5212 35.2163 28.4281 35.4494C28.4281 35.4494 26.8368 39.735 27.1687 44.9888C27.1693 45.0007 27.1699 45.0125 27.1712 45.0238C27.3124 47.1975 29.1343 48.8813 31.3131 48.8813H39.2431L38.9737 47.2982C33.2162 46.8225 31.9581 44.2544 31.9581 41.6644H31.9574Z" fill="#73BE74"/>
<path d="M31.9575 37.5212V34.7843C31.9575 34.7843 32.865 34.6375 33.6381 34.6375C33.7869 36.0793 33.8981 37.5212 33.8981 37.5212H31.9581H31.9575Z" fill="#2D9E2E"/>
<path d="M39.5982 37.5213C39.4319 36.2926 39.2088 35.0444 39.2088 35.0444C38.7013 34.9119 38.1832 34.8238 37.66 34.7807L37.5763 34.7738V37.5213H39.5982Z" fill="#2D9E2E"/>
<defs>
<filter id="filter0_d_1810_6823" x="0.0192871" y="0.237549" width="75.9614" height="81.5249" filterUnits="userSpaceOnUse" color-interpolation-filters="sRGB">
<feFlood flood-opacity="0" result="BackgroundImageFix"/>
<feColorMatrix in="SourceAlpha" type="matrix" values="0 0 0 0 0 0 0 0 0 0 0 0 0 0 0 0 0 0 127 0" result="hardAlpha"/>
<feOffset dy="4"/>
<feGaussianBlur stdDeviation="6"/>
<feComposite in2="hardAlpha" operator="out"/>
<feColorMatrix type="matrix" values="0 0 0 0 0.376471 0 0 0 0 0.376471 0 0 0 0 0.376471 0 0 0 0.15 0"/>
<feBlend mode="normal" in2="BackgroundImageFix" result="effect1_dropShadow_1810_6823"/>
<feBlend mode="normal" in="SourceGraphic" in2="effect1_dropShadow_1810_6823" result="shape"/>
</filter>
</defs>
</svg>
