<svg width="76" height="82" viewBox="0 0 76 82" fill="none" xmlns="http://www.w3.org/2000/svg">
<g filter="url(#filter0_d_1810_6752)">
<path d="M34 9.3094C36.4752 7.88034 39.5248 7.88034 42 9.3094L59.9808 19.6906C62.456 21.1197 63.9808 23.7607 63.9808 26.6188V47.3812C63.9808 50.2393 62.456 52.8803 59.9808 54.3094L42 64.6906C39.5248 66.1197 36.4752 66.1197 34 64.6906L16.0192 54.3094C13.544 52.8803 12.0192 50.2393 12.0192 47.3812V26.6188C12.0192 23.7607 13.544 21.1197 16.0192 19.6906L34 9.3094Z" fill="#FCEBEE"/>
<path d="M34.5 10.1754C36.6658 8.925 39.3342 8.925 41.5 10.1754L59.4808 20.5566C61.6466 21.8071 62.9808 24.1179 62.9808 26.6188V47.3812C62.9808 49.8821 61.6466 52.1929 59.4808 53.4434L41.5 63.8246C39.3342 65.075 36.6658 65.075 34.5 63.8246L16.5192 53.4434C14.3534 52.1929 13.0192 49.8821 13.0192 47.3812V26.6188C13.0192 24.1179 14.3534 21.8071 16.5192 20.5566L34.5 10.1754Z" stroke="#F5F5F5" stroke-width="2"/>
</g>
<path d="M28.3901 44.2988L30.8026 38.0188H39.6188L37.4963 43.5438C37.0907 44.5988 37.8701 45.7325 39.0001 45.7325H44.4557V47.9363H30.8901C29.0113 47.9363 27.7163 46.0519 28.3901 44.2976V44.2988Z" fill="#8A102E"/>
<path d="M28.3781 27.3456L27.2031 29.0768C26.9275 29.4825 26.8187 29.9781 26.8981 30.4625L28.4306 39.7925C28.5725 40.6562 29.3187 41.29 30.1944 41.29H47.125C47.7744 41.29 48.3519 40.8768 48.5619 40.2618L49.0212 38.9143L30.4831 38.8156L28.3787 27.3468L28.3781 27.3456Z" fill="#8A102E"/>
<path d="M30.8418 47.9375H46.6606V45.7338H28.2518L28.2825 45.8738C28.5437 47.0781 29.6093 47.9375 30.8418 47.9375Z" fill="#73051F"/>
<path d="M48.2725 39.3563H30.81C30.3925 39.3563 30.0357 39.0544 29.9669 38.6425L28.2225 27.9944C28.1357 27.4738 28.5375 26.9994 29.0657 26.9994H46.5282C46.9457 26.9994 47.3025 27.3013 47.3713 27.7131L49.1157 38.3613C49.2025 38.8819 48.8007 39.3563 48.2725 39.3563Z" fill="#E78BA2"/>
<defs>
<filter id="filter0_d_1810_6752" x="0.0192871" y="0.237549" width="75.9614" height="81.5249" filterUnits="userSpaceOnUse" color-interpolation-filters="sRGB">
<feFlood flood-opacity="0" result="BackgroundImageFix"/>
<feColorMatrix in="SourceAlpha" type="matrix" values="0 0 0 0 0 0 0 0 0 0 0 0 0 0 0 0 0 0 127 0" result="hardAlpha"/>
<feOffset dy="4"/>
<feGaussianBlur stdDeviation="6"/>
<feComposite in2="hardAlpha" operator="out"/>
<feColorMatrix type="matrix" values="0 0 0 0 0.376471 0 0 0 0 0.376471 0 0 0 0 0.376471 0 0 0 0.15 0"/>
<feBlend mode="normal" in2="BackgroundImageFix" result="effect1_dropShadow_1810_6752"/>
<feBlend mode="normal" in="SourceGraphic" in2="effect1_dropShadow_1810_6752" result="shape"/>
</filter>
</defs>
</svg>
