<svg width="68" height="82" viewBox="0 0 68 82" fill="none" xmlns="http://www.w3.org/2000/svg">
<g filter="url(#filter0_d_1810_6802)">
<path d="M34 9.3094C36.4752 7.88034 39.5248 7.88034 42 9.3094L59.9808 19.6906C62.456 21.1197 63.9808 23.7607 63.9808 26.6188V47.3812C63.9808 50.2393 62.456 52.8803 59.9808 54.3094L42 64.6906C39.5248 66.1197 36.4752 66.1197 34 64.6906L16.0192 54.3094C13.544 52.8803 12.0192 50.2393 12.0192 47.3812V26.6188C12.0192 23.7607 13.544 21.1197 16.0192 19.6906L34 9.3094Z" fill="#EDF4F7"/>
<path d="M34.5 10.1754C36.6658 8.925 39.3342 8.925 41.5 10.1754L59.4808 20.5566C61.6466 21.8071 62.9808 24.1179 62.9808 26.6188V47.3812C62.9808 49.8821 61.6466 52.1929 59.4808 53.4434L41.5 63.8246C39.3342 65.075 36.6658 65.075 34.5 63.8246L16.5192 53.4434C14.3534 52.1929 13.0192 49.8821 13.0192 47.3812V26.6188C13.0192 24.1179 14.3534 21.8071 16.5192 20.5566L34.5 10.1754Z" stroke="#F5F5F5" stroke-width="2"/>
</g>
<path d="M27.0787 26.9113V44.815C27.0787 47.5082 29.2619 49.6919 31.9556 49.6919H44.0612C46.7544 49.6919 48.9381 47.5088 48.9381 44.815V26.9113L46.4337 26.3557C40.8844 25.1238 35.1331 25.1238 29.5837 26.3557L27.0794 26.9113H27.0787ZM44.05 47.2657H31.9662C30.6069 47.2657 29.5044 46.1638 29.5044 44.8038V29.3732C35.0594 27.765 40.9562 27.765 46.5112 29.3732V44.8038C46.5112 46.1632 45.4094 47.2657 44.0494 47.2657H44.05Z" fill="#6AB0C9"/>
<path d="M44.085 39.0413H31.9307C31.2607 39.0413 30.7175 39.5844 30.7175 40.2544C30.7175 40.9244 31.2607 41.4675 31.9307 41.4675H44.085C44.755 41.4675 45.2982 40.9244 45.2982 40.2544C45.2982 39.5844 44.755 39.0413 44.085 39.0413Z" fill="#449CBB"/>
<defs>
<filter id="filter0_d_1810_6802" x="0.0192871" y="0.237549" width="75.9615" height="81.5249" filterUnits="userSpaceOnUse" color-interpolation-filters="sRGB">
<feFlood flood-opacity="0" result="BackgroundImageFix"/>
<feColorMatrix in="SourceAlpha" type="matrix" values="0 0 0 0 0 0 0 0 0 0 0 0 0 0 0 0 0 0 127 0" result="hardAlpha"/>
<feOffset dy="4"/>
<feGaussianBlur stdDeviation="6"/>
<feComposite in2="hardAlpha" operator="out"/>
<feColorMatrix type="matrix" values="0 0 0 0 0.376471 0 0 0 0 0.376471 0 0 0 0 0.376471 0 0 0 0.15 0"/>
<feBlend mode="normal" in2="BackgroundImageFix" result="effect1_dropShadow_1810_6802"/>
<feBlend mode="normal" in="SourceGraphic" in2="effect1_dropShadow_1810_6802" result="shape"/>
</filter>
</defs>
</svg>
