<svg width="76" height="67" viewBox="0 0 76 67" fill="none" xmlns="http://www.w3.org/2000/svg">
<g filter="url(#filter0_d_1810_6811)">
<path d="M34 9.3094C36.4752 7.88034 39.5248 7.88034 42 9.3094L59.9808 19.6906C62.456 21.1197 63.9808 23.7607 63.9808 26.6188V47.3812C63.9808 50.2393 62.456 52.8803 59.9808 54.3094L42 64.6906C39.5248 66.1197 36.4752 66.1197 34 64.6906L16.0192 54.3094C13.544 52.8803 12.0192 50.2393 12.0192 47.3812V26.6188C12.0192 23.7607 13.544 21.1197 16.0192 19.6906L34 9.3094Z" fill="#FCEBEE"/>
<path d="M34.5 10.1754C36.6658 8.925 39.3342 8.925 41.5 10.1754L59.4808 20.5566C61.6466 21.8071 62.9808 24.1179 62.9808 26.6188V47.3812C62.9808 49.8821 61.6466 52.1929 59.4808 53.4434L41.5 63.8246C39.3342 65.075 36.6658 65.075 34.5 63.8246L16.5192 53.4434C14.3534 52.1929 13.0192 49.8821 13.0192 47.3812V26.6188C13.0192 24.1179 14.3534 21.8071 16.5192 20.5566L34.5 10.1754Z" stroke="#F5F5F5" stroke-width="2"/>
</g>
<path d="M30.0481 39.4086V45.3168C36.39 47.7636 43.3518 46.4443 48.435 40.7205V39.883C48.435 39.228 47.7031 38.8424 47.1612 39.2105C40.7562 43.5605 32.8968 42.5855 30.0481 39.4086Z" fill="#D73E64"/>
<path d="M33.2806 40.3306L29.6931 45.8656C29.4262 46.2774 28.8044 46.2093 28.6325 45.7499L26.5281 40.1199C26.3994 39.7756 26.6537 39.4087 27.0219 39.4087H32.7794C33.2531 39.4087 33.5381 39.9331 33.2806 40.3306Z" fill="#D73E64"/>
<path d="M45.9718 34.5762V28.6681C39.6299 26.2212 33.8093 27.6062 28.7262 33.3299V34.1574C28.7262 34.8162 29.4656 35.1999 30.0068 34.8256C36.2793 30.4843 43.1262 31.4031 45.9718 34.5762Z" fill="#DF6583"/>
<path d="M42.7394 33.6543L46.3269 28.1193C46.5938 27.7075 47.2156 27.7756 47.3875 28.235L49.4919 33.865C49.6206 34.2093 49.3663 34.5762 48.9981 34.5762H43.2406C42.7669 34.5762 42.4819 34.0518 42.7394 33.6543Z" fill="#DF6583"/>
<defs>
<filter id="filter0_d_1810_6811" x="0.0192871" y="0.237549" width="75.9614" height="81.5249" filterUnits="userSpaceOnUse" color-interpolation-filters="sRGB">
<feFlood flood-opacity="0" result="BackgroundImageFix"/>
<feColorMatrix in="SourceAlpha" type="matrix" values="0 0 0 0 0 0 0 0 0 0 0 0 0 0 0 0 0 0 127 0" result="hardAlpha"/>
<feOffset dy="4"/>
<feGaussianBlur stdDeviation="6"/>
<feComposite in2="hardAlpha" operator="out"/>
<feColorMatrix type="matrix" values="0 0 0 0 0.376471 0 0 0 0 0.376471 0 0 0 0 0.376471 0 0 0 0.15 0"/>
<feBlend mode="normal" in2="BackgroundImageFix" result="effect1_dropShadow_1810_6811"/>
<feBlend mode="normal" in="SourceGraphic" in2="effect1_dropShadow_1810_6811" result="shape"/>
</filter>
</defs>
</svg>
