<svg width="24" height="24" viewBox="0 0 24 24" fill="none" xmlns="http://www.w3.org/2000/svg">
<path d="M8.18066 10.066C9.57757 9.81237 13.1078 9.91165 14.509 10.2924C15.5639 16.2171 15.5639 22.3676 15.5639 22.3676H8.18066V10.0655V10.066Z" fill="#B4BFE4"/>
<path d="M11.3812 9.03041C9.66305 9.03041 8.27051 7.63787 8.27051 5.91968L8.31796 3.19623L8.34251 3.16405C9.90251 1.10659 13.0007 1.12241 14.5394 3.19623L14.492 5.91968C14.492 7.63787 13.0994 9.03041 11.3812 9.03041Z" fill="#1F40AE"/>
<path d="M14.5093 10.2925L14.5388 22.3678H22.947V21.3129C22.947 21.3129 22.9404 21.3102 22.9268 21.3053C20.5404 20.3829 18.7404 18.3909 18.0319 15.9325C17.1973 13.0384 15.9106 10.6733 15.9106 10.6733L14.5088 10.292L14.5093 10.2925Z" fill="#B4BFE4"/>
<path d="M8.18092 16.0712V10.0674C8.18092 10.0674 6.05474 10.4437 5.10074 10.6472C5.10074 10.6472 3.71201 14.3874 4.00165 18.9725C4.0022 18.9828 4.00274 18.9932 4.00383 19.003C4.1271 20.9001 5.7171 22.3696 7.61856 22.3696H14.5393L14.3042 20.9879C9.27947 20.5728 8.18147 18.3316 8.18147 16.0712H8.18092Z" fill="#1F40AE"/>
</svg>
