<svg width="28" height="28" viewBox="0 0 28 28" fill="none" xmlns="http://www.w3.org/2000/svg">
<path d="M14.8695 15.6387H2.2373L2.98084 17.2662C3.20659 17.7597 3.69877 18.0766 4.24149 18.0766H23.5779C24.1206 18.0766 24.6135 17.7603 24.8386 17.2662L25.5821 15.6387H14.8688H14.8695Z" fill="#1F88AE"/>
<path d="M21.9616 4.1542L24.3149 14.7448H3.50588L5.85919 4.1542H21.9609M22.1086 2.71045H5.71153C5.12157 2.71045 4.61035 3.12061 4.48238 3.69679L2.04703 14.6562C1.87247 15.4424 2.47097 16.1885 3.27619 16.1885H24.5446C25.3505 16.1885 25.949 15.4424 25.7738 14.6562L23.3384 3.69679C23.2104 3.12061 22.6992 2.71045 22.1093 2.71045H22.1086Z" fill="#1F88AE"/>
<path d="M18.1803 18.0776H8.99609V22.8263H18.1803V18.0776Z" fill="#1F88AE"/>
<path d="M25.7742 22.8262H2.04688V25.1965H25.7742V22.8262Z" fill="#1F88AE"/>
</svg>
