<svg width="60" height="62" viewBox="0 0 60 62" fill="none" xmlns="http://www.w3.org/2000/svg">
<g filter="url(#filter0_d_696_13250)">
<path d="M26 9.3094C28.4752 7.88034 31.5248 7.88034 34 9.3094L43.3205 14.6906C45.7957 16.1197 47.3205 18.7607 47.3205 21.6188V32.3812C47.3205 35.2393 45.7957 37.8803 43.3205 39.3094L34 44.6906C31.5248 46.1197 28.4752 46.1197 26 44.6906L16.6795 39.3094C14.2043 37.8803 12.6795 35.2393 12.6795 32.3812V21.6188C12.6795 18.7607 14.2043 16.1197 16.6795 14.6906L26 9.3094Z" fill="#1F88AE"/>
<path d="M26.5 10.1754C28.6658 8.925 31.3342 8.925 33.5 10.1754L42.8205 15.5566C44.9863 16.8071 46.3205 19.1179 46.3205 21.6188V32.3812C46.3205 34.8821 44.9863 37.1929 42.8205 38.4434L33.5 43.8246C31.3342 45.075 28.6658 45.075 26.5 43.8246L17.1795 38.4434C15.0137 37.1929 13.6795 34.8821 13.6795 32.3812V21.6188C13.6795 19.1179 15.0137 16.8071 17.1795 15.5566L26.5 10.1754Z" stroke="#F5F5F5" stroke-width="2"/>
</g>
<path d="M23.4473 20.9468V31.6891C23.4473 33.3049 24.7571 34.6152 26.3734 34.6152H33.6368C35.2526 34.6152 36.5629 33.3053 36.5629 31.6891V20.9468L35.0603 20.6134C31.7306 19.8743 28.2799 19.8743 24.9503 20.6134L23.4476 20.9468H23.4473ZM33.63 33.1594H26.3798C25.5641 33.1594 24.9026 32.4983 24.9026 31.6823V22.4239C28.2356 21.4591 31.7738 21.4591 35.1068 22.4239V31.6823C35.1068 32.4979 34.4456 33.1594 33.6296 33.1594H33.63Z" fill="white"/>
<path d="M33.6511 28.2249H26.3585C25.9565 28.2249 25.6306 28.5507 25.6306 28.9527C25.6306 29.3547 25.9565 29.6806 26.3585 29.6806H33.6511C34.0531 29.6806 34.379 29.3547 34.379 28.9527C34.379 28.5507 34.0531 28.2249 33.6511 28.2249Z" fill="white"/>
<defs>
<filter id="filter0_d_696_13250" x="0.679443" y="0.237549" width="58.6411" height="61.5249" filterUnits="userSpaceOnUse" color-interpolation-filters="sRGB">
<feFlood flood-opacity="0" result="BackgroundImageFix"/>
<feColorMatrix in="SourceAlpha" type="matrix" values="0 0 0 0 0 0 0 0 0 0 0 0 0 0 0 0 0 0 127 0" result="hardAlpha"/>
<feOffset dy="4"/>
<feGaussianBlur stdDeviation="6"/>
<feComposite in2="hardAlpha" operator="out"/>
<feColorMatrix type="matrix" values="0 0 0 0 0.376471 0 0 0 0 0.376471 0 0 0 0 0.376471 0 0 0 0.15 0"/>
<feBlend mode="normal" in2="BackgroundImageFix" result="effect1_dropShadow_696_13250"/>
<feBlend mode="normal" in="SourceGraphic" in2="effect1_dropShadow_696_13250" result="shape"/>
</filter>
</defs>
</svg>
