<svg width="40" height="40" viewBox="0 0 40 40" fill="none" xmlns="http://www.w3.org/2000/svg">
<path d="M25.7418 16.3331H37.2195C37.5721 16.3331 37.8578 16.0474 37.8578 15.6947V4.21255C37.8578 3.85987 37.5721 3.57416 37.2195 3.57416H25.7418C25.3891 3.57416 25.1034 3.85987 25.1034 4.21255V8.35987H19.0453C18.8712 8.35987 18.7284 8.50273 18.7284 8.67684V18.5652H14.9025V14.2572C14.9025 13.9045 14.6168 13.6188 14.2641 13.6188H2.78195C2.42927 13.6188 2.14355 13.9045 2.14355 14.2572V25.7393C2.14355 26.092 2.42927 26.3777 2.78195 26.3777H14.2596C14.6123 26.3777 14.898 26.092 14.898 25.7393V21.4313H18.7239V31.3197C18.7239 31.4938 18.8668 31.6367 19.0409 31.6367H25.0989V35.784C25.0989 36.1367 25.3846 36.4224 25.7373 36.4224H37.215C37.5677 36.4224 37.8534 36.1367 37.8534 35.784V24.3108C37.8534 23.9581 37.5677 23.6724 37.215 23.6724H25.7418C25.3891 23.6724 25.1034 23.9581 25.1034 24.3108V28.7751H21.5944V11.2304H25.1034V15.6947C25.1034 16.0474 25.3891 16.3331 25.7418 16.3331ZM28.1302 6.60541H34.8266V13.3063H28.1302V6.60541ZM11.8712 23.3509H5.1748V16.6545H11.8712V23.3509ZM28.1302 26.7036H34.8266V33.4045H28.1302V26.7036Z" fill="#383F4C"/>
</svg>
