<svg width="60" height="62" viewBox="0 0 60 62" fill="none" xmlns="http://www.w3.org/2000/svg">
<g filter="url(#filter0_d_696_13103)">
<path d="M26 9.3094C28.4752 7.88034 31.5248 7.88034 34 9.3094L43.3205 14.6906C45.7957 16.1197 47.3205 18.7607 47.3205 21.6188V32.3812C47.3205 35.2393 45.7957 37.8803 43.3205 39.3094L34 44.6906C31.5248 46.1197 28.4752 46.1197 26 44.6906L16.6795 39.3094C14.2043 37.8803 12.6795 35.2393 12.6795 32.3812V21.6188C12.6795 18.7607 14.2043 16.1197 16.6795 14.6906L26 9.3094Z" fill="#CF1845"/>
<path d="M26.5 10.1754C28.6658 8.925 31.3342 8.925 33.5 10.1754L42.8205 15.5566C44.9863 16.8071 46.3205 19.1179 46.3205 21.6188V32.3812C46.3205 34.8821 44.9863 37.1929 42.8205 38.4434L33.5 43.8246C31.3342 45.075 28.6658 45.075 26.5 43.8246L17.1795 38.4434C15.0137 37.1929 13.6795 34.8821 13.6795 32.3812V21.6188C13.6795 19.1179 15.0137 16.8071 17.1795 15.5566L26.5 10.1754Z" stroke="#F5F5F5" stroke-width="2"/>
</g>
<path d="M24.2341 31.3793L25.6816 27.6113H30.9713L29.6978 30.9263C29.4545 31.5593 29.9221 32.2396 30.6001 32.2396H33.8735V33.5618H25.7341C24.6068 33.5618 23.8298 32.4312 24.2341 31.3786V31.3793Z" fill="white"/>
<path d="M24.2269 21.2073L23.5219 22.246C23.3565 22.4894 23.2913 22.7868 23.3389 23.0774L24.2584 28.6754C24.3435 29.1936 24.7913 29.5739 25.3167 29.5739H35.475C35.8647 29.5739 36.2112 29.326 36.3372 28.957L36.6128 28.1485L25.4899 28.0893L24.2273 21.208L24.2269 21.2073Z" fill="white"/>
<path d="M25.7051 33.5625H35.1964V32.2402H24.1511L24.1695 32.3242C24.3262 33.0469 24.9656 33.5625 25.7051 33.5625Z" fill="#F5F5F5"/>
<path d="M24.627 21.5157L24.627 21.5157L24.6268 21.5142C24.6262 21.511 24.6266 21.5097 24.6267 21.5092L24.6267 21.5091C24.6271 21.508 24.6279 21.5061 24.6296 21.5041C24.6314 21.502 24.6331 21.5009 24.6342 21.5004L24.6342 21.5004C24.6348 21.5001 24.636 21.4995 24.6394 21.4995H35.117C35.1233 21.4995 35.1286 21.5042 35.1296 21.5099C35.1296 21.51 35.1296 21.51 35.1296 21.5101L36.176 27.8975L36.1763 27.8989C36.1768 27.9022 36.1765 27.9034 36.1763 27.904L36.1763 27.904C36.176 27.9051 36.1751 27.907 36.1734 27.9091C36.1717 27.9111 36.1699 27.9122 36.1688 27.9128C36.1683 27.913 36.167 27.9136 36.1636 27.9136H25.6861C25.6797 27.9136 25.6745 27.909 25.6734 27.9033C25.6734 27.9032 25.6734 27.9031 25.6734 27.9031L24.627 21.5157Z" stroke="white"/>
<defs>
<filter id="filter0_d_696_13103" x="0.679443" y="0.237549" width="58.6411" height="61.5249" filterUnits="userSpaceOnUse" color-interpolation-filters="sRGB">
<feFlood flood-opacity="0" result="BackgroundImageFix"/>
<feColorMatrix in="SourceAlpha" type="matrix" values="0 0 0 0 0 0 0 0 0 0 0 0 0 0 0 0 0 0 127 0" result="hardAlpha"/>
<feOffset dy="4"/>
<feGaussianBlur stdDeviation="6"/>
<feComposite in2="hardAlpha" operator="out"/>
<feColorMatrix type="matrix" values="0 0 0 0 0.376471 0 0 0 0 0.376471 0 0 0 0 0.376471 0 0 0 0.15 0"/>
<feBlend mode="normal" in2="BackgroundImageFix" result="effect1_dropShadow_696_13103"/>
<feBlend mode="normal" in="SourceGraphic" in2="effect1_dropShadow_696_13103" result="shape"/>
</filter>
</defs>
</svg>
