<svg width="60" height="62" viewBox="0 0 60 62" fill="none" xmlns="http://www.w3.org/2000/svg">
<g filter="url(#filter0_d_1810_6727)">
<path d="M26 9.3094C28.4752 7.88034 31.5248 7.88034 34 9.3094L43.3205 14.6906C45.7957 16.1197 47.3205 18.7607 47.3205 21.6188V32.3812C47.3205 35.2393 45.7957 37.8803 43.3205 39.3094L34 44.6906C31.5248 46.1197 28.4752 46.1197 26 44.6906L16.6795 39.3094C14.2043 37.8803 12.6795 35.2393 12.6795 32.3812V21.6188C12.6795 18.7607 14.2043 16.1197 16.6795 14.6906L26 9.3094Z" fill="#CF1845"/>
<path d="M26.5 10.1754C28.6658 8.925 31.3342 8.925 33.5 10.1754L42.8205 15.5566C44.9863 16.8071 46.3205 19.1179 46.3205 21.6188V32.3812C46.3205 34.8821 44.9863 37.1929 42.8205 38.4434L33.5 43.8246C31.3342 45.075 28.6658 45.075 26.5 43.8246L17.1795 38.4434C15.0137 37.1929 13.6795 34.8821 13.6795 32.3812V21.6188C13.6795 19.1179 15.0137 16.8071 17.1795 15.5566L26.5 10.1754Z" stroke="#F5F5F5" stroke-width="2"/>
</g>
<path d="M24.2341 31.3792L25.6816 27.6112H30.9713L29.6978 30.9262C29.4545 31.5592 29.9221 32.2395 30.6001 32.2395H33.8735V33.5617H25.7341C24.6068 33.5617 23.8298 32.4311 24.2341 31.3785V31.3792Z" fill="white"/>
<path d="M24.2269 21.2074L23.5219 22.2461C23.3565 22.4895 23.2913 22.7869 23.3389 23.0775L24.2584 28.6755C24.3435 29.1938 24.7913 29.574 25.3167 29.574H35.475C35.8647 29.574 36.2112 29.3261 36.3372 28.9571L36.6128 28.1486L25.4899 28.0894L24.2273 21.2081L24.2269 21.2074Z" fill="white"/>
<path d="M25.7051 33.5625H35.1964V32.2402H24.1511L24.1695 32.3242C24.3262 33.0469 24.9656 33.5625 25.7051 33.5625Z" fill="#F5F5F5"/>
<path d="M24.627 21.5158L24.627 21.5158L24.6268 21.5143C24.6262 21.5111 24.6266 21.5098 24.6267 21.5093L24.6267 21.5093C24.6271 21.5081 24.6279 21.5063 24.6296 21.5042C24.6314 21.5022 24.6331 21.501 24.6342 21.5005L24.6342 21.5005C24.6348 21.5002 24.636 21.4996 24.6394 21.4996H35.117C35.1233 21.4996 35.1286 21.5043 35.1296 21.51C35.1296 21.5101 35.1296 21.5101 35.1296 21.5102L36.176 27.8976L36.1763 27.8991C36.1768 27.9023 36.1765 27.9036 36.1763 27.9041L36.1763 27.9041C36.176 27.9052 36.1751 27.9071 36.1734 27.9092C36.1717 27.9112 36.1699 27.9124 36.1688 27.9129C36.1683 27.9132 36.167 27.9138 36.1636 27.9138H25.6861C25.6797 27.9138 25.6745 27.9091 25.6734 27.9034C25.6734 27.9033 25.6734 27.9033 25.6734 27.9032L24.627 21.5158Z" stroke="white"/>
<defs>
<filter id="filter0_d_1810_6727" x="0.679443" y="0.237549" width="58.6411" height="61.5249" filterUnits="userSpaceOnUse" color-interpolation-filters="sRGB">
<feFlood flood-opacity="0" result="BackgroundImageFix"/>
<feColorMatrix in="SourceAlpha" type="matrix" values="0 0 0 0 0 0 0 0 0 0 0 0 0 0 0 0 0 0 127 0" result="hardAlpha"/>
<feOffset dy="4"/>
<feGaussianBlur stdDeviation="6"/>
<feComposite in2="hardAlpha" operator="out"/>
<feColorMatrix type="matrix" values="0 0 0 0 0.376471 0 0 0 0 0.376471 0 0 0 0 0.376471 0 0 0 0.15 0"/>
<feBlend mode="normal" in2="BackgroundImageFix" result="effect1_dropShadow_1810_6727"/>
<feBlend mode="normal" in="SourceGraphic" in2="effect1_dropShadow_1810_6727" result="shape"/>
</filter>
</defs>
</svg>
