<svg width="24" height="24" viewBox="0 0 24 24" fill="none" xmlns="http://www.w3.org/2000/svg">
<path d="M10.8526 22.4244C8.9602 23.6557 5.8924 23.6557 4 22.4244V15.4062H10.8526V22.4244Z" fill="#B4BFE4"/>
<path d="M7.42572 0.0341797L6.31152 2.26318V15.4074H8.54052V0.0341797H7.42572Z" fill="#6A80C9"/>
<path d="M4 15.4072L6.3232 10.9492H8.5252L10.8526 15.4072H4Z" fill="#1F40AE"/>
<path d="M17.2724 17.3702C15.5294 17.4638 14.129 18.9332 14.1134 20.6786C14.1032 21.8078 14.6552 22.8062 15.5042 23.4188L16.0838 21.1232C16.2422 20.4956 16.8074 20.0552 17.4548 20.0552C18.1022 20.0552 18.6662 20.4944 18.8258 21.122L19.4084 23.4194C20.2502 22.8122 20.8004 21.8258 20.8004 20.7086C20.8004 18.8012 19.2026 17.2664 17.2724 17.3702Z" fill="#B4BFE4"/>
<path d="M17.6413 6.0492C19.3843 5.9556 20.7847 4.4862 20.8003 2.7408C20.8105 1.6116 20.2585 0.6132 19.4095 0.000600128L18.8299 2.2962C18.6715 2.9238 18.1063 3.3642 17.4589 3.3642C16.8115 3.3642 16.2475 2.925 16.0879 2.2974L15.5053 0C14.6635 0.6072 14.1133 1.5936 14.1133 2.7108C14.1133 4.6182 15.7111 6.153 17.6413 6.0492Z" fill="#B4BFE4"/>
<path d="M18.8499 4.45801H16.0635V18.9756H18.8499V4.45801Z" fill="#B4BFE4"/>
</svg>
