<svg width="60" height="62" viewBox="0 0 60 62" fill="none" xmlns="http://www.w3.org/2000/svg">
<g filter="url(#filter0_d_696_13266)">
<path d="M26 9.3094C28.4752 7.88034 31.5248 7.88034 34 9.3094L43.3205 14.6906C45.7957 16.1197 47.3205 18.7607 47.3205 21.6188V32.3812C47.3205 35.2393 45.7957 37.8803 43.3205 39.3094L34 44.6906C31.5248 46.1197 28.4752 46.1197 26 44.6906L16.6795 39.3094C14.2043 37.8803 12.6795 35.2393 12.6795 32.3812V21.6188C12.6795 18.7607 14.2043 16.1197 16.6795 14.6906L26 9.3094Z" fill="#D73E64"/>
<path d="M26.5 10.1754C28.6658 8.925 31.3342 8.925 33.5 10.1754L42.8205 15.5566C44.9863 16.8071 46.3205 19.1179 46.3205 21.6188V32.3812C46.3205 34.8821 44.9863 37.1929 42.8205 38.4434L33.5 43.8246C31.3342 45.075 28.6658 45.075 26.5 43.8246L17.1795 38.4434C15.0137 37.1929 13.6795 34.8821 13.6795 32.3812V21.6188C13.6795 19.1179 15.0137 16.8071 17.1795 15.5566L26.5 10.1754Z" stroke="#F5F5F5" stroke-width="2"/>
</g>
<path d="M25.229 28.4452V31.9901C29.0341 33.4582 33.2113 32.6666 36.2611 29.2323V28.7298C36.2611 28.3368 35.822 28.1055 35.4969 28.3263C31.6539 30.9363 26.9383 30.3513 25.229 28.4452Z" fill="white"/>
<path d="M27.1685 28.9984L25.016 32.3194C24.8559 32.5666 24.4827 32.5257 24.3796 32.2501L23.117 28.8721C23.0397 28.6654 23.1924 28.4453 23.4132 28.4453H26.8677C27.152 28.4453 27.323 28.7599 27.1685 28.9984Z" fill="white"/>
<path d="M34.7832 25.5458V22.0009C30.978 20.5328 27.4857 21.3638 24.4358 24.798V25.2945C24.4358 25.6898 24.8794 25.92 25.2042 25.6954C28.9677 23.0906 33.0758 23.6419 34.7832 25.5458Z" fill="white"/>
<path d="M32.8436 24.9927L34.9961 21.6717C35.1563 21.4246 35.5294 21.4654 35.6325 21.7411L36.8951 25.1191C36.9724 25.3257 36.8198 25.5458 36.5989 25.5458H33.1444C32.8601 25.5458 32.6891 25.2312 32.8436 24.9927Z" fill="white"/>
<defs>
<filter id="filter0_d_696_13266" x="0.679443" y="0.237549" width="58.6411" height="61.5249" filterUnits="userSpaceOnUse" color-interpolation-filters="sRGB">
<feFlood flood-opacity="0" result="BackgroundImageFix"/>
<feColorMatrix in="SourceAlpha" type="matrix" values="0 0 0 0 0 0 0 0 0 0 0 0 0 0 0 0 0 0 127 0" result="hardAlpha"/>
<feOffset dy="4"/>
<feGaussianBlur stdDeviation="6"/>
<feComposite in2="hardAlpha" operator="out"/>
<feColorMatrix type="matrix" values="0 0 0 0 0.376471 0 0 0 0 0.376471 0 0 0 0 0.376471 0 0 0 0.15 0"/>
<feBlend mode="normal" in2="BackgroundImageFix" result="effect1_dropShadow_696_13266"/>
<feBlend mode="normal" in="SourceGraphic" in2="effect1_dropShadow_696_13266" result="shape"/>
</filter>
</defs>
</svg>
