<svg width="40" height="40" viewBox="0 0 40 40" fill="none" xmlns="http://www.w3.org/2000/svg">
<path d="M36.0527 27.418H12.791L13.959 25.0391L33.3652 25.0039C34.0215 25.0039 34.584 24.5352 34.7012 23.8867L37.3887 8.84375C37.459 8.44922 37.3535 8.04297 37.0957 7.73438C36.9683 7.5825 36.8093 7.46016 36.6299 7.37585C36.4505 7.29153 36.2549 7.24726 36.0566 7.24609L11.3691 7.16406L11.1582 6.17188C11.0254 5.53906 10.4551 5.07812 9.80664 5.07812H3.77148C3.40578 5.07813 3.05505 5.2234 2.79645 5.482C2.53786 5.74059 2.39258 6.09132 2.39258 6.45703C2.39258 6.82274 2.53786 7.17347 2.79645 7.43207C3.05505 7.69066 3.40578 7.83594 3.77148 7.83594H8.68945L9.61133 12.2187L11.8809 23.207L8.95898 27.9766C8.80725 28.1814 8.71585 28.4245 8.69514 28.6786C8.67443 28.9326 8.72523 29.1874 8.8418 29.4141C9.07617 29.8789 9.54883 30.1719 10.0723 30.1719H12.5254C12.0024 30.8665 11.7199 31.7126 11.7207 32.582C11.7207 34.793 13.5176 36.5898 15.7285 36.5898C17.9395 36.5898 19.7363 34.793 19.7363 32.582C19.7363 31.7109 19.4473 30.8633 18.9316 30.1719H25.2246C24.7016 30.8665 24.4192 31.7126 24.4199 32.582C24.4199 34.793 26.2168 36.5898 28.4277 36.5898C30.6387 36.5898 32.4355 34.793 32.4355 32.582C32.4355 31.7109 32.1465 30.8633 31.6309 30.1719H36.0566C36.8144 30.1719 37.4355 29.5547 37.4355 28.793C37.4333 28.4276 37.2866 28.078 37.0275 27.8204C36.7685 27.5629 36.4181 27.4182 36.0527 27.418ZM11.9434 9.88281L34.4355 9.95703L32.2324 22.293L14.5645 22.3242L11.9434 9.88281ZM15.7285 33.8164C15.0488 33.8164 14.4941 33.2617 14.4941 32.582C14.4941 31.9023 15.0488 31.3477 15.7285 31.3477C16.4082 31.3477 16.9629 31.9023 16.9629 32.582C16.9629 32.9094 16.8328 33.2234 16.6013 33.4549C16.3699 33.6864 16.0559 33.8164 15.7285 33.8164ZM28.4277 33.8164C27.748 33.8164 27.1934 33.2617 27.1934 32.582C27.1934 31.9023 27.748 31.3477 28.4277 31.3477C29.1074 31.3477 29.6621 31.9023 29.6621 32.582C29.6621 32.9094 29.5321 33.2234 29.3006 33.4549C29.0691 33.6864 28.7551 33.8164 28.4277 33.8164Z" fill="#383F4C"/>
</svg>
