<svg width="28" height="28" viewBox="0 0 28 28" fill="none" xmlns="http://www.w3.org/2000/svg">
<path d="M18.6495 4.84444C21.3935 5.54147 23.1691 6.3567 25.1506 7.82609V12.4296C25.1506 13.5187 24.6624 14.5336 23.8116 15.2141L18.7481 19.2651L16.0507 21.4236L11.1941 17.5391C10.8646 17.2751 10.8156 16.9321 10.8156 16.7508C10.8156 16.5695 10.8646 16.2259 11.1941 15.9625C11.3975 15.7996 11.5439 15.5761 11.6119 15.3237L12.0713 13.613C12.2109 13.2816 12.2127 12.9111 12.0676 12.5748C11.7491 11.8361 10.9338 11.6806 10.5424 11.6052C10.1572 11.5317 9.68434 11.476 9.22741 11.4227C8.88196 11.3823 8.3595 11.321 8.03978 11.2598L7.38869 10.1554C7.70596 9.97964 8.02814 9.80018 8.30009 9.62501C8.38768 9.56866 8.50038 9.49638 8.61859 9.40512C11.6866 9.40573 14.6003 9.41185 14.6309 9.41185H14.6333C15.0204 9.41185 15.3849 9.22872 15.6158 8.91879L18.6489 4.84505M18.1503 3.46387L14.6333 8.18747C14.6333 8.18747 11.3791 8.18073 8.0851 8.18073C8.0851 8.54578 5.40786 9.69177 5.75699 9.80202L7.20555 12.2588C7.71086 12.6814 11.3136 12.6471 10.9204 13.1757L10.4285 15.007C9.31133 15.9013 9.31133 17.6016 10.4285 18.4965L16.0507 22.9934L19.5131 20.2231L24.5767 16.172C25.7135 15.2631 26.3756 13.8856 26.3756 12.4309V7.22033C23.7357 5.16355 21.554 4.25399 18.1503 3.46448V3.46387Z" fill="#1F88AE"/>
<path d="M20.3204 15.874L17.5966 12.7012L10.159 11.5001L9.17164 10.1796L10.5179 8.83329L14.1672 8.81185L9.63408 3.46289C6.23041 4.25179 4.04808 5.16135 1.4082 7.21752V12.4281C1.4082 13.884 2.0697 15.2603 3.2065 16.1698L4.14302 16.9195L6.49073 15.3258L13.9994 21.0484L12.9483 23.9627L13.8928 24.7173C15.9747 23.0954 18.2973 21.2321 19.9578 19.8914C21.1913 18.8948 21.3555 17.0751 20.321 15.8734L20.3204 15.874Z" fill="#1F88AE"/>
<path d="M7.08469 16.6733C7.50242 16.6733 7.9134 16.8148 8.24293 17.0714L11.8199 19.8589C12.2811 20.2185 12.5457 20.7599 12.5457 21.3448V21.9145L5.99383 16.6727H7.08469M7.08469 15.3252H4.70329C3.85743 15.3252 3.4838 16.3903 4.14408 16.9189L13.8926 24.7179V21.3442C13.8926 20.3483 13.4333 19.4075 12.6474 18.7956L9.07042 16.0081C8.50263 15.5659 7.80377 15.3252 7.08408 15.3252H7.08469Z" fill="#1F88AE"/>
<path d="M21.3774 17.0869L17.5977 12.7014L10.8418 11.4831C10.2011 11.3673 9.73438 10.8093 9.73438 10.1583C9.73438 9.41468 10.3371 8.81198 11.0806 8.81198H14.9498L15.9666 7.42773" stroke="#1F88AE" stroke-linecap="round" stroke-linejoin="round"/>
</svg>
