<svg width="60" height="62" viewBox="0 0 60 62" fill="none" xmlns="http://www.w3.org/2000/svg">
<g filter="url(#filter0_d_696_13242)">
<path d="M26 9.3094C28.4752 7.88034 31.5248 7.88034 34 9.3094L43.3205 14.6906C45.7957 16.1197 47.3205 18.7607 47.3205 21.6188V32.3812C47.3205 35.2393 45.7957 37.8803 43.3205 39.3094L34 44.6906C31.5248 46.1197 28.4752 46.1197 26 44.6906L16.6795 39.3094C14.2043 37.8803 12.6795 35.2393 12.6795 32.3812V21.6188C12.6795 18.7607 14.2043 16.1197 16.6795 14.6906L26 9.3094Z" fill="#FAB136"/>
<path d="M26.5 10.1754C28.6658 8.925 31.3342 8.925 33.5 10.1754L42.8205 15.5566C44.9863 16.8071 46.3205 19.1179 46.3205 21.6188V32.3812C46.3205 34.8821 44.9863 37.1929 42.8205 38.4434L33.5 43.8246C31.3342 45.075 28.6658 45.075 26.5 43.8246L17.1795 38.4434C15.0137 37.1929 13.6795 34.8821 13.6795 32.3812V21.6188C13.6795 19.1179 15.0137 16.8071 17.1795 15.5566L26.5 10.1754Z" stroke="#F5F5F5" stroke-width="2"/>
</g>
<path d="M27.4343 31.6473C27.0825 31.6473 26.7964 31.3612 26.7964 31.009L26.7874 21.2684C28.9294 20.9182 31.0939 20.9178 33.2359 21.2684L33.243 28.9327C33.474 28.9758 33.7043 29.0264 33.9323 29.0864C34.2758 29.1768 34.5154 29.485 34.5267 29.8383L34.518 20.2L33.9972 20.1007C31.3523 19.5967 28.6703 19.5967 26.0258 20.1007L25.5042 20.2L25.5139 31.0094C25.5139 32.0684 26.3753 32.9298 27.4347 32.9298H28.9369L28.5094 31.6469H27.435L27.4343 31.6473Z" fill="white"/>
<path d="M34.3953 31.705C34.4181 31.6462 34.4384 31.5862 34.4553 31.5247L34.3953 31.705Z" fill="#EDEDED"/>
<path d="M32.6074 32.93H28.9365L29.4176 34.3737C30.6986 35.042 32.2249 35.042 33.5059 34.3737L34.3954 31.7048C34.116 32.4207 33.4208 32.93 32.6074 32.93Z" fill="#E0E0E0"/>
<path d="M30.8565 28.2259L30.3911 25.8987C29.8583 25.3711 29.2181 25.7401 29.2181 26.2587V29.0303C29.1416 29.0483 29.0655 29.0674 28.9898 29.0873C28.6384 29.1792 28.3958 29.5006 28.3958 29.8639V31.3077L28.509 31.6471H32.6078C32.9595 31.6471 33.2453 31.3609 33.2453 31.0092L33.2434 28.9324C32.6696 28.8256 32.0891 28.7701 31.5079 28.7674C31.1903 28.7659 30.9191 28.5372 30.8569 28.2259H30.8565Z" fill="#EDEDED"/>
<path d="M34.5277 29.8634C34.5277 29.8548 34.527 29.8465 34.5266 29.8379L34.5277 31.0075V29.8634Z" fill="white"/>
<path d="M34.5277 31.0087V31.0076L34.5265 29.838C34.5153 29.4847 34.2757 29.1765 33.9322 29.0861C33.7038 29.0261 33.4739 28.9755 33.2429 28.9324L33.2448 31.0091C33.2448 31.3609 32.9587 31.647 32.6073 31.647H28.5085L28.936 32.9299H32.6069C33.4203 32.9299 34.1155 32.4206 34.3949 31.7047L34.4549 31.5244C34.5007 31.3601 34.5273 31.1876 34.5273 31.0087H34.5277Z" fill="#EDEDED"/>
<defs>
<filter id="filter0_d_696_13242" x="0.679443" y="0.237549" width="58.6411" height="61.5249" filterUnits="userSpaceOnUse" color-interpolation-filters="sRGB">
<feFlood flood-opacity="0" result="BackgroundImageFix"/>
<feColorMatrix in="SourceAlpha" type="matrix" values="0 0 0 0 0 0 0 0 0 0 0 0 0 0 0 0 0 0 127 0" result="hardAlpha"/>
<feOffset dy="4"/>
<feGaussianBlur stdDeviation="6"/>
<feComposite in2="hardAlpha" operator="out"/>
<feColorMatrix type="matrix" values="0 0 0 0 0.376471 0 0 0 0 0.376471 0 0 0 0 0.376471 0 0 0 0.15 0"/>
<feBlend mode="normal" in2="BackgroundImageFix" result="effect1_dropShadow_696_13242"/>
<feBlend mode="normal" in="SourceGraphic" in2="effect1_dropShadow_696_13242" result="shape"/>
</filter>
</defs>
</svg>
