<svg width="28" height="28" viewBox="0 0 28 28" fill="none" xmlns="http://www.w3.org/2000/svg">
<path d="M9.50956 22.1327C8.89399 22.1327 8.39327 21.632 8.39327 21.0158L8.37752 3.96971C12.126 3.35677 15.9139 3.35612 19.6624 3.96971L19.6749 17.3821C20.0791 17.4576 20.4821 17.5462 20.8811 17.6512C21.4822 17.8094 21.9015 18.3488 21.9212 18.967L21.9061 2.10005L20.9946 1.92615C16.3661 1.04415 11.6726 1.04415 7.04468 1.92615L6.13184 2.10005L6.1489 21.0165C6.1489 22.8697 7.6563 24.3771 9.51021 24.3771H12.1391L11.391 22.1321H9.51087L9.50956 22.1327Z" fill="#B4BFE4"/>
<path d="M21.6924 22.2341C21.7324 22.1311 21.7679 22.0261 21.7974 21.9185L21.6924 22.2341Z" fill="#B4BFE4"/>
<path d="M18.5627 24.3769H12.1387L12.9806 26.9034C15.2224 28.0729 17.8933 28.0729 20.1351 26.9034L21.6917 22.2329C21.2028 23.4857 19.9861 24.3769 18.5627 24.3769Z" fill="#1F40AE"/>
<path d="M15.4987 16.1453L14.6843 12.0726C13.7518 11.1493 12.6315 11.795 12.6315 12.7026V17.5529C12.4977 17.5844 12.3644 17.6179 12.2319 17.6527C11.617 17.8135 11.1924 18.3759 11.1924 19.0118V21.5384L11.3906 22.1323H18.5634C19.1789 22.1323 19.679 21.6315 19.679 21.016L19.6757 17.3817C18.6717 17.1946 17.6558 17.0975 16.6386 17.0929C16.0828 17.0903 15.6083 16.69 15.4994 16.1453H15.4987Z" fill="#6A80C9"/>
<path d="M21.9238 19.0109C21.9238 18.9958 21.9225 18.9814 21.9219 18.9663L21.9238 21.0132V19.0109Z" fill="#1F40AE"/>
<path d="M21.9241 21.0155V21.0135L21.9221 18.9667C21.9024 18.3485 21.4831 17.8091 20.882 17.6509C20.4823 17.5459 20.08 17.4573 19.6758 17.3818L19.6791 21.0161C19.6791 21.6317 19.1783 22.1324 18.5634 22.1324H11.3906L12.1387 24.3775H18.5628C19.9862 24.3775 21.2029 23.4863 21.6918 22.2335L21.7968 21.9178C21.8768 21.6304 21.9234 21.3285 21.9234 21.0155H21.9241Z" fill="#6A80C9"/>
</svg>
