<svg width="60" height="62" viewBox="0 0 60 62" fill="none" xmlns="http://www.w3.org/2000/svg">
<g filter="url(#filter0_d_696_13258)">
<path d="M26 9.3094C28.4752 7.88034 31.5248 7.88034 34 9.3094L43.3205 14.6906C45.7957 16.1197 47.3205 18.7607 47.3205 21.6188V32.3812C47.3205 35.2393 45.7957 37.8803 43.3205 39.3094L34 44.6906C31.5248 46.1197 28.4752 46.1197 26 44.6906L16.6795 39.3094C14.2043 37.8803 12.6795 35.2393 12.6795 32.3812V21.6188C12.6795 18.7607 14.2043 16.1197 16.6795 14.6906L26 9.3094Z" fill="#50AE51"/>
<path d="M26.5 10.1754C28.6658 8.925 31.3342 8.925 33.5 10.1754L42.8205 15.5566C44.9863 16.8071 46.3205 19.1179 46.3205 21.6188V32.3812C46.3205 34.8821 44.9863 37.1929 42.8205 38.4434L33.5 43.8246C31.3342 45.075 28.6658 45.075 26.5 43.8246L17.1795 38.4434C15.0137 37.1929 13.6795 34.8821 13.6795 32.3812V21.6188C13.6795 19.1179 15.0137 16.8071 17.1795 15.5566L26.5 10.1754Z" stroke="#F5F5F5" stroke-width="2"/>
</g>
<path d="M26.3745 25.6706C27.3349 25.4963 29.7619 25.5645 30.7253 25.8263C31.4505 29.8995 31.4505 34.128 31.4505 34.128H26.3745V25.6703V25.6706Z" fill="#73BE74"/>
<path d="M28.5742 24.9585C27.3929 24.9585 26.4355 24.0012 26.4355 22.8199L26.4682 20.9475L26.485 20.9254C27.5575 19.5109 29.6875 19.5218 30.7454 20.9475L30.7128 22.8199C30.7128 24.0012 29.7554 24.9585 28.5742 24.9585Z" fill="white"/>
<path d="M31.3463 26.5135L31.2268 26.481L31.2443 33.6284H35.7992C34.2771 32.8651 33.1423 31.4932 32.6666 29.8427L31.3463 26.5135ZM31.3463 26.5135C31.3593 26.539 31.3735 26.5671 31.3887 26.5974C31.4778 26.7753 31.6031 27.0341 31.7462 27.3542C32.0329 27.9956 32.388 28.8768 32.6665 29.8426L31.3463 26.5135Z" stroke="white"/>
<path d="M30.9429 33.514C30.9437 33.5539 30.9444 33.592 30.945 33.6284H26.8863L26.8754 27.8127H30.5281C30.7285 29.2342 30.8342 30.7338 30.8897 31.9196C30.9201 32.5702 30.9353 33.1237 30.9429 33.514Z" stroke="white"/>
<path d="M25.8744 29.7986V30.2986H25.9004C25.9754 31.0043 26.2286 31.7214 26.8321 32.3196C27.5021 32.9838 28.5432 33.4403 30.0703 33.6288H25.9878C24.9402 33.6288 24.0691 32.8192 24.0016 31.7818L24.0009 31.7704L24.0005 31.767L24.0005 31.767L24.0002 31.7617C23.9042 30.2421 24.0864 28.8574 24.294 27.8503C24.3977 27.3478 24.5071 26.9418 24.59 26.6633C24.6078 26.6034 24.6244 26.5493 24.6394 26.5016C24.9417 26.4415 25.3176 26.3711 25.6519 26.3097C25.729 26.2955 25.8037 26.2819 25.8744 26.269V29.7986Z" stroke="white"/>
<path d="M26.3745 27.3128V25.6706C26.3745 25.6706 26.919 25.5825 27.3829 25.5825C27.4721 26.4476 27.5389 27.3128 27.5389 27.3128H26.3749H26.3745Z" fill="white"/>
<path d="M30.959 27.3128C30.8592 26.5756 30.7253 25.8267 30.7253 25.8267C30.4208 25.7472 30.11 25.6943 29.7961 25.6684L29.7458 25.6643V27.3128H30.959Z" fill="white"/>
<defs>
<filter id="filter0_d_696_13258" x="0.679443" y="0.237549" width="58.6411" height="61.5249" filterUnits="userSpaceOnUse" color-interpolation-filters="sRGB">
<feFlood flood-opacity="0" result="BackgroundImageFix"/>
<feColorMatrix in="SourceAlpha" type="matrix" values="0 0 0 0 0 0 0 0 0 0 0 0 0 0 0 0 0 0 127 0" result="hardAlpha"/>
<feOffset dy="4"/>
<feGaussianBlur stdDeviation="6"/>
<feComposite in2="hardAlpha" operator="out"/>
<feColorMatrix type="matrix" values="0 0 0 0 0.376471 0 0 0 0 0.376471 0 0 0 0 0.376471 0 0 0 0.15 0"/>
<feBlend mode="normal" in2="BackgroundImageFix" result="effect1_dropShadow_696_13258"/>
<feBlend mode="normal" in="SourceGraphic" in2="effect1_dropShadow_696_13258" result="shape"/>
</filter>
</defs>
</svg>
