<svg width="40" height="40" viewBox="0 0 40 40" fill="none" xmlns="http://www.w3.org/2000/svg">
<path d="M33.9383 28.3948C32.8209 27.2765 31.5152 26.3638 30.0812 25.6984C32.1035 24.06 33.3937 21.56 33.3937 18.7564C33.3937 13.81 29.2687 9.75198 24.3222 9.82787C19.4517 9.90377 15.5276 13.8725 15.5276 18.7564C15.5276 21.56 16.8222 24.06 18.8401 25.6984C17.4058 26.3633 16.1 27.2761 14.983 28.3948C12.5455 30.8368 11.1615 34.06 11.0722 37.4975C11.071 37.5452 11.0794 37.5926 11.0968 37.6369C11.1142 37.6813 11.1404 37.7217 11.1736 37.7558C11.2069 37.79 11.2467 37.8171 11.2906 37.8356C11.3345 37.8541 11.3817 37.8636 11.4294 37.8636H13.9294C14.1213 37.8636 14.2821 37.7118 14.2865 37.5198C14.3713 34.9306 15.4205 32.5064 17.2642 30.6672C18.2077 29.7187 19.3299 28.9667 20.566 28.4548C21.802 27.9429 23.1273 27.6813 24.4651 27.685C27.1838 27.685 29.7419 28.7431 31.666 30.6672C33.5053 32.5064 34.5544 34.9306 34.6437 37.5198C34.6481 37.7118 34.8088 37.8636 35.0008 37.8636H37.5008C37.5485 37.8636 37.5957 37.8541 37.6396 37.8356C37.6835 37.8171 37.7233 37.79 37.7566 37.7558C37.7898 37.7217 37.816 37.6813 37.8334 37.6369C37.8508 37.5926 37.8591 37.5452 37.858 37.4975C37.7687 34.06 36.3847 30.8368 33.9383 28.3948ZM24.4651 24.4707C22.9383 24.4707 21.5008 23.877 20.4249 22.7966C19.885 22.2609 19.4585 21.622 19.1708 20.9179C18.8832 20.2138 18.7404 19.4589 18.7508 18.6984C18.7642 17.2341 19.349 15.8189 20.3713 14.7698C21.4428 13.6716 22.8758 13.06 24.4071 13.0422C25.9205 13.0288 27.3892 13.6181 28.4696 14.6761C29.5767 15.7609 30.1838 17.2118 30.1838 18.7564C30.1838 20.2832 29.5901 21.7163 28.5097 22.7966C27.9797 23.3292 27.3493 23.7514 26.6551 24.0387C25.9608 24.3261 25.2165 24.4729 24.4651 24.4707ZM13.2821 19.935C13.2419 19.5466 13.2196 19.1538 13.2196 18.7564C13.2196 18.0466 13.2865 17.3547 13.4115 16.6806C13.4428 16.5198 13.358 16.3547 13.2106 16.2877C12.6035 16.0154 12.0455 15.6404 11.5633 15.1672C10.9952 14.6163 10.5481 13.9531 10.2507 13.2198C9.95318 12.4865 9.81184 11.6992 9.83563 10.9082C9.87581 9.4752 10.4517 8.11359 11.4562 7.0868C12.5588 5.95734 14.041 5.34127 15.6169 5.35912C17.041 5.37252 18.416 5.92162 19.4562 6.89484C19.8088 7.2252 20.1124 7.59127 20.3669 7.98412C20.4562 8.12252 20.6303 8.18055 20.7821 8.12698C21.5678 7.85466 22.3981 7.6627 23.2508 7.57341C23.5008 7.54662 23.6437 7.27877 23.5321 7.05555C22.0812 4.18502 19.1169 2.20287 15.6883 2.1493C10.7374 2.07341 6.61242 6.13145 6.61242 11.0734C6.61242 13.877 7.9026 16.377 9.92492 18.0154C8.50527 18.6716 7.19724 19.5779 6.06331 20.7118C3.61688 23.1538 2.23295 26.377 2.14367 29.8189C2.14247 29.8666 2.15083 29.914 2.16825 29.9584C2.18566 30.0027 2.21178 30.0432 2.24506 30.0773C2.27834 30.1114 2.31812 30.1385 2.36204 30.157C2.40597 30.1755 2.45315 30.185 2.50081 30.185H5.00527C5.19724 30.185 5.35795 30.0332 5.36242 29.8413C5.44724 27.252 6.49635 24.8279 8.3401 22.9886C9.6526 21.6761 11.2597 20.7654 13.0142 20.3234C13.1883 20.2788 13.3044 20.1136 13.2821 19.935Z" fill="#383F4C"/>
</svg>
