<svg width="544" height="386" viewBox="0 0 544 386" fill="none" xmlns="http://www.w3.org/2000/svg">
<g opacity="0.7" clip-path="url(#clip0_836_24986)">
<mask id="mask0_836_24986" style="mask-type:luminance" maskUnits="userSpaceOnUse" x="0" y="-7" width="544" height="393">
<path d="M543.579 378.271L4.82324 385.017L-0.000359817 -0.254888L538.756 -7.00012L543.579 378.271Z" fill="white"/>
</mask>
<g mask="url(#mask0_836_24986)">
<path opacity="0.4" d="M130.398 93.1362C42.7239 100.938 -44.0975 59.6349 -107.44 -19.3286C-70.5231 -88.5262 -15.5287 -140.835 49.1427 -165.328C57.6455 -139.61 71.1433 -117.295 90.2762 -98.5921C153.825 -33.446 352.786 -113.235 434.514 -47.4749C439.426 -34.0033 443.77 -20.1358 447.406 -5.85273C412.356 -26.4502 189.243 89.902 130.395 93.1398L130.398 93.1362Z" fill="#1F40AE"/>
<path opacity="0.4" d="M372.648 -52.434C281.886 -2.10724 207.051 74.0765 119.502 138.285C92.7296 157.901 63.0493 178.142 32.4623 189.625C-11.6734 207.45 -58.7449 216.07 -105.824 215.136C-124.805 175.595 -138.324 130.945 -144.67 82.5296C-146.621 67.6331 -147.761 52.8156 -148.29 38.1047C-75.4942 75.7229 9.9753 74.4994 83.6565 39.789C151.077 15.6609 324.064 -96.7026 419.156 -89.6585C420.749 -83.4561 422.206 -77.1663 423.554 -70.8073C406.148 -68.6021 388.594 -60.2583 372.653 -52.4305L372.648 -52.434Z" fill="#1F40AE"/>
<path opacity="0.4" d="M209.415 -44.8705C239.118 -78.7448 286.455 -138.604 332.863 -159.158C332.924 -158.816 333.001 -158.482 333.061 -158.14C333.847 -153.633 334.49 -149.131 335.141 -144.629C321.043 -135.333 308.04 -121.951 296.313 -109.517C223.241 -25.4987 170.574 78.4938 105.061 173.82C82.6605 206.811 57.6442 239.803 28.7616 264.579C20.641 271.856 12.28 278.757 3.7121 285.276C-28.9867 278.489 -60.2719 264.695 -88.9382 244.874C-55.2957 234.009 -22.8968 216.614 6.62262 193.613C84.0289 129.606 140.55 35.1417 209.415 -44.8776L209.415 -44.8705Z" fill="#1F40AE"/>
</g>
</g>
<defs>
<clipPath id="clip0_836_24986">
<rect width="538.798" height="385.302" fill="white" transform="matrix(0.999922 -0.012519 -0.012519 -0.999922 4.82324 385.017)"/>
</clipPath>
</defs>
</svg>
