<svg width="586" height="526" viewBox="0 0 586 526" fill="none" xmlns="http://www.w3.org/2000/svg">
<mask id="mask0_836_24971" style="mask-type:luminance" maskUnits="userSpaceOnUse" x="-85" y="0" width="1146" height="671">
<path d="M1060.05 39.0259L-63.0479 0L-84.9999 631.742L1038.1 670.768L1060.05 39.0259Z" fill="white"/>
</mask>
<g mask="url(#mask0_836_24971)">
<path opacity="0.4" d="M189.764 485.313C7.20354 467.965 -175.094 531.212 -309.601 657.455C-234.766 772.881 -121.717 861.542 12.366 905.077C30.8884 863.331 59.7204 827.425 100.19 797.739C234.7 694.172 647.071 835.383 819.504 731.753C830.16 709.909 839.646 687.386 847.668 664.145C773.954 696.114 312.355 493.673 189.758 485.307L189.764 485.313Z" fill="#1F40AE"/>
<path opacity="0.4" d="M690.36 736.676C502.675 649.411 348.997 520.556 168.439 410.686C113.225 377.119 51.9663 342.375 -11.4531 321.952C-102.926 290.422 -200.804 273.838 -298.992 272.927C-339.788 336.803 -369.355 409.346 -384.08 488.436C-388.609 512.771 -391.443 537.018 -393.001 561.122C-240.059 503.192 -61.8929 509.634 90.6608 570.397C230.488 613.475 587.696 806.772 786.181 800.153C789.694 790.061 792.926 779.819 795.933 769.458C759.709 764.937 723.367 750.339 690.372 736.671L690.36 736.676Z" fill="#1F40AE"/>
<path opacity="0.4" d="M350.253 715.798C411.139 772.907 507.987 873.555 604.114 909.68C604.251 909.123 604.422 908.578 604.558 908.021C606.337 900.668 607.816 893.317 609.313 885.966C580.205 869.986 553.507 847.359 529.44 826.353C379.678 684.739 273.08 511.418 139.428 351.646C93.7409 296.366 42.6006 240.949 -16.8547 198.806C-33.5615 186.448 -50.7812 174.693 -68.444 163.555C-136.831 172.992 -202.486 193.996 -262.867 225.022C-193.058 244.59 -126.043 274.808 -65.2055 314.07C94.2104 423.082 209.14 580.974 350.253 715.81L350.253 715.798Z" fill="#1F40AE"/>
</g>
</svg>
