<svg width="1440" height="1191" viewBox="0 0 1440 1191" fill="none" xmlns="http://www.w3.org/2000/svg">
<mask id="mask0_836_24829" style="mask-type:luminance" maskUnits="userSpaceOnUse" x="-484" y="0" width="2033" height="1191">
<path d="M-483.001 1120.89L1509.68 1190.13L1548.63 69.2429L-444.052 8.90055e-05L-483.001 1120.89Z" fill="white"/>
</mask>
<g mask="url(#mask0_836_24829)">
<path opacity="0.4" d="M1061.13 329.049C1385.04 359.829 1708.48 247.612 1947.14 23.6221C1814.36 -181.176 1613.78 -338.484 1375.88 -415.727C1343.01 -341.658 1291.86 -277.951 1220.05 -225.28C981.397 -41.5248 249.738 -292.072 -56.2059 -108.203C-75.1136 -69.4461 -91.9433 -29.4849 -106.178 11.7511C24.6115 -44.97 843.615 314.217 1061.14 329.06L1061.13 329.049Z" fill="#1F40AE"/>
<path opacity="0.4" d="M172.931 -116.939C505.936 37.8945 778.604 266.518 1098.96 461.458C1196.93 521.015 1305.62 582.66 1418.14 618.897C1580.44 674.84 1754.1 704.265 1928.31 705.881C2000.7 592.546 2053.16 463.836 2079.28 323.508C2087.32 280.332 2092.35 237.311 2095.11 194.543C1823.75 297.328 1507.63 285.896 1236.96 178.087C988.871 101.654 355.086 -241.309 2.91784 -229.563C-3.3154 -211.658 -9.04881 -193.486 -14.3845 -175.102C49.8862 -167.081 114.367 -141.18 172.909 -116.929L172.931 -116.939Z" fill="#1F40AE"/>
<path opacity="0.4" d="M776.374 -79.895C668.346 -181.221 496.511 -359.799 325.955 -423.895C325.713 -422.905 325.409 -421.939 325.167 -420.95C322.012 -407.905 319.387 -394.862 316.731 -381.82C368.376 -353.465 415.747 -313.32 458.448 -276.049C724.166 -24.7868 913.301 282.732 1150.44 566.212C1231.5 664.294 1322.23 762.619 1427.72 837.391C1457.37 859.318 1487.92 880.174 1519.26 899.936C1640.59 883.193 1757.09 845.926 1864.22 790.877C1740.36 756.158 1621.46 702.544 1513.51 632.883C1230.66 439.464 1026.75 159.321 776.375 -79.9158L776.374 -79.895Z" fill="#1F40AE"/>
</g>
</svg>
