<svg width="1440" height="3224" viewBox="0 0 1440 3224" fill="none" xmlns="http://www.w3.org/2000/svg">
<mask id="mask0_101_3818" style="mask-type:alpha" maskUnits="userSpaceOnUse" x="-307" y="487" width="3752" height="2338">
<path d="M1470 2774.5C2072.73 2544.11 2495.9 812.68 3108.28 653.173L3108.32 653.195C3215.09 630.122 3332.46 606.061 3444.18 611.853C3440.55 579.501 3436.17 547.383 3430.86 515.562C2835.18 390.636 1869.76 719.805 1425.05 773.523C932.631 872.987 125.258 895.409 -306.001 642.321C-313.955 714.702 -266.328 745.579 -265.434 820.22C-262.515 1062.81 -69 2780.5 -69 2780.5C-69 2780.5 713.5 2883.5 1470 2774.5Z" fill="#0F2057"/>
</mask>
<g mask="url(#mask0_101_3818)">
<path d="M1473 2815C2075.74 2584.61 2495.9 812.678 3108.28 653.17L3108.32 653.193C3215.09 630.12 3332.46 606.06 3444.18 611.852C3440.55 579.499 3436.17 547.381 3430.86 515.56C2835.18 390.634 1869.76 719.803 1425.05 773.521C932.631 872.985 125.258 895.407 -306.001 642.319C-313.955 714.7 -266.328 745.576 -265.434 820.217C-262.515 1062.81 -66 2821 -66 2821C-66 2821 716.5 2924 1473 2815Z" fill="#0F2057"/>
</g>
</svg>
