<svg width="1440" height="1035" viewBox="0 0 1440 1035" fill="none" xmlns="http://www.w3.org/2000/svg">
<mask id="mask0_836_24838" style="mask-type:luminance" maskUnits="userSpaceOnUse" x="-406" y="0" width="1970" height="1154">
<path d="M1563.88 67.1039L-367.254 0L-405 1086.26L1526.13 1153.37L1563.88 67.1039Z" fill="white"/>
</mask>
<g mask="url(#mask0_836_24838)">
<path opacity="0.4" d="M67.4476 834.48C-246.459 804.651 -559.914 913.402 -791.195 1130.47C-662.517 1328.94 -468.134 1481.39 -237.582 1556.25C-205.733 1484.47 -156.158 1422.73 -86.572 1371.69C144.713 1193.61 853.772 1436.41 1150.27 1258.23C1168.59 1220.67 1184.9 1181.94 1198.69 1141.98C1071.94 1196.95 278.239 848.854 67.4378 834.47L67.4476 834.48Z" fill="#1F40AE"/>
<path opacity="0.4" d="M928.207 1266.69C605.487 1116.64 341.243 895.08 30.7798 706.162C-64.1596 648.444 -169.492 588.703 -278.539 553.586C-435.824 499.371 -604.121 470.855 -772.953 469.288C-843.101 579.122 -893.94 703.857 -919.258 839.85C-927.047 881.693 -931.919 923.385 -934.598 964.831C-671.62 865.222 -365.269 876.3 -102.958 980.779C137.471 1054.85 751.679 1387.22 1092.97 1375.84C1099.01 1358.48 1104.56 1340.87 1109.74 1323.06C1047.45 1315.28 984.961 1290.18 928.227 1266.68L928.207 1266.69Z" fill="#1F40AE"/>
<path opacity="0.4" d="M343.404 1230.79C448.094 1328.99 614.622 1502.05 779.91 1564.17C780.144 1563.21 780.439 1562.27 780.673 1561.31C783.731 1548.67 786.275 1536.03 788.849 1523.39C738.798 1495.91 692.891 1457.01 651.509 1420.89C393.999 1177.39 210.706 879.366 -19.1043 604.643C-97.6614 509.591 -185.596 414.303 -287.827 341.841C-316.554 320.592 -346.163 300.379 -376.533 281.228C-494.122 297.453 -607.014 333.569 -710.838 386.918C-590.803 420.564 -475.574 472.522 -370.965 540.032C-96.8542 727.476 100.764 998.965 343.403 1230.81L343.404 1230.79Z" fill="#1F40AE"/>
</g>
</svg>
