<svg width="375" height="389" viewBox="0 0 375 389" fill="none" xmlns="http://www.w3.org/2000/svg">
<g opacity="0.8" clip-path="url(#clip0_933_17787)">
<mask id="mask0_933_17787" style="mask-type:luminance" maskUnits="userSpaceOnUse" x="-297" y="0" width="691" height="389">
<path d="M-297 389L394 389L394 -6.10352e-05L-297 -6.26018e-07L-297 389Z" fill="white"/>
</mask>
<g mask="url(#mask0_933_17787)">
<path opacity="0.4" d="M228.279 95.9281C340.836 102.696 451.511 59.9023 531.473 -20.6135C483.02 -90.0032 411.657 -142.115 328.33 -166.024C317.839 -139.954 300.888 -117.255 276.652 -98.1325C196.205 -31.5631 -60.2208 -109.597 -163.972 -42.1777C-170.054 -28.5159 -175.402 -14.4615 -179.836 0.00357171C-135.219 -21.233 152.766 93.4068 228.282 95.9317L228.279 95.9281Z" fill="#1F40AE"/>
<path opacity="0.4" d="M-84.7154 -47.9659C32.4847 1.69281 129.675 77.6559 242.977 141.369C277.624 160.833 316.011 180.892 355.419 192.098C412.304 209.534 472.806 217.642 533.165 216.104C556.871 175.947 573.491 130.7 580.851 81.744C583.114 66.681 584.338 51.7081 584.781 36.8505C492.032 75.7469 382.408 75.592 287.363 41.4825C200.516 17.9768 -23.1228 -93.27 -144.955 -84.9569C-146.898 -78.6753 -148.665 -72.3072 -150.292 -65.8707C-127.935 -63.8645 -105.291 -55.6631 -84.7226 -47.9623L-84.7154 -47.9659Z" fill="#1F40AE"/>
<path opacity="0.4" d="M124.733 -42.3938C86.0984 -76.2152 24.4338 -136.046 -35.4096 -156.209C-35.4817 -155.863 -35.5752 -155.524 -35.6472 -155.179C-36.5829 -150.619 -37.3351 -146.066 -38.0981 -141.513C-19.8694 -132.307 -2.97941 -118.962 12.2586 -106.557C107.314 -22.6629 176.522 81.654 262.066 177.06C291.322 210.082 323.932 243.071 361.368 267.718C371.899 274.962 382.732 281.823 393.824 288.296C435.647 281.031 475.545 266.71 511.988 246.338C468.671 235.795 426.844 218.643 388.62 195.797C288.327 132.159 214.329 37.5097 124.733 -42.401L124.733 -42.3938Z" fill="#1F40AE"/>
</g>
</g>
<defs>
<clipPath id="clip0_933_17787">
<rect width="691" height="389" fill="white" transform="translate(394 389) rotate(180)"/>
</clipPath>
</defs>
</svg>
