<svg width="1440" height="810" viewBox="0 0 1440 810" fill="none" xmlns="http://www.w3.org/2000/svg">
<mask id="mask0_836_24807" style="mask-type:luminance" maskUnits="userSpaceOnUse" x="-1" y="0" width="1443" height="810">
<path d="M-0.000488281 810L1441.72 810V0L-0.000488281 0V810Z" fill="white"/>
</mask>
<g mask="url(#mask0_836_24807)">
<path opacity="0.4" d="M850.492 199.747C1085.05 213.84 1315.69 124.732 1482.33 -42.9225C1381.36 -187.41 1232.64 -295.92 1058.99 -345.705C1037.13 -291.42 1001.8 -244.155 951.299 -204.337C783.652 -65.7225 249.276 -228.21 33.0665 -87.825C20.3915 -59.3775 9.24658 -30.1125 0.0065918 0.00749207C92.984 -44.2125 693.127 194.497 850.499 199.755L850.492 199.747Z" fill="#1F40AE"/>
<path opacity="0.4" d="M198.239 -99.8775C442.477 3.52496 645.014 161.7 881.129 294.367C953.332 334.897 1033.33 376.665 1115.45 399.998C1234 436.305 1360.08 453.188 1485.86 449.985C1535.26 366.368 1569.9 272.153 1585.24 170.212C1589.95 138.848 1592.5 107.67 1593.43 76.7325C1400.14 157.725 1171.69 157.402 973.627 86.3775C792.644 37.4325 326.594 -194.212 72.7041 -176.902C68.6542 -163.822 64.9718 -150.563 61.5818 -137.16C108.172 -132.983 155.362 -115.905 198.224 -99.87L198.239 -99.8775Z" fill="#1F40AE"/>
<path opacity="0.4" d="M634.71 -88.275C554.197 -158.7 425.692 -283.282 300.982 -325.267C300.832 -324.547 300.637 -323.842 300.487 -323.122C298.537 -313.628 296.97 -304.148 295.38 -294.668C333.367 -275.498 368.565 -247.71 400.32 -221.88C598.41 -47.19 742.635 170.025 920.902 368.685C981.87 437.445 1049.83 506.137 1127.84 557.46C1149.79 572.542 1172.36 586.83 1195.48 600.307C1282.63 585.18 1365.78 555.36 1441.72 512.94C1351.45 490.988 1264.29 455.272 1184.63 407.7C975.63 275.19 821.422 78.105 634.71 -88.29V-88.275Z" fill="#1F40AE"/>
</g>
</svg>
