<svg width="32" height="33" viewBox="0 0 32 33" fill="none" xmlns="http://www.w3.org/2000/svg">
<rect y="0.5" width="32" height="32" rx="6" fill="#1F40AE"/>
<path d="M13.8406 19.8212C14.7422 19.8212 15.6502 19.8969 16.5395 20.0467C17.7347 20.248 18.9079 20.5831 20.026 21.0437C20.0333 21.0469 20.0511 21.0542 20.0602 21.0812C20.0684 21.1063 20.0616 21.1236 20.057 21.1323C20.0547 21.1364 20.052 21.1405 20.0497 21.1446C19.3074 22.3877 18.1862 23.398 16.8778 24.007H10.7841C9.47529 23.3975 8.35362 22.3873 7.61177 21.1442C7.60766 21.1368 7.59625 21.1181 7.60584 21.0889C7.61497 21.0615 7.63231 21.0542 7.64007 21.0515C9.61544 20.2357 11.7017 19.8216 13.8406 19.8216M13.8406 18.8173C11.6022 18.8173 9.36436 19.2523 7.2566 20.1229C6.65444 20.3717 6.41523 21.0999 6.7494 21.6591C7.63414 23.141 8.97084 24.3215 10.5696 25.0113H17.0924C18.6906 24.322 20.0273 23.1414 20.9121 21.6596C20.9139 21.6568 20.9157 21.6541 20.9176 21.6509C21.2508 21.0912 21.0107 20.363 20.4085 20.1152C19.2083 19.6212 17.9666 19.2688 16.7061 19.0565C15.7579 18.8967 14.7992 18.8173 13.8406 18.8173Z" fill="white"/>
<path d="M13.8327 10.037C14.8389 10.037 15.7679 10.4565 16.4262 11.1979V13.9927C16.4262 15.4226 15.263 16.5862 13.8327 16.5862C12.4024 16.5862 11.2392 15.423 11.2392 13.9927V11.1984C11.8979 10.457 12.8283 10.037 13.8322 10.037M13.8322 9.03262C12.496 9.03262 11.1597 9.62291 10.2627 10.8062L10.2344 10.8432V13.9932C10.2344 15.98 11.845 17.591 13.8322 17.591C15.819 17.591 17.4301 15.9804 17.4301 13.9932V10.8432C16.5353 9.63706 15.184 9.03262 13.8322 9.03262Z" fill="white"/>
<path d="M25.8293 12.7078H24.073V10.9516C24.073 10.6105 23.7964 10.3339 23.4553 10.3339H22.3168C21.9758 10.3339 21.6991 10.6105 21.6991 10.9516V12.7078H19.9429C19.6018 12.7078 19.3252 12.9845 19.3252 13.3255V14.464C19.3252 14.8051 19.6018 15.0817 19.9429 15.0817H21.6991V16.838C21.6991 17.179 21.9758 17.4556 22.3168 17.4556H23.4553C23.7964 17.4556 24.073 17.179 24.073 16.838V15.0817H25.8293C26.1703 15.0817 26.4469 14.8051 26.4469 14.464V13.3255C26.4469 12.9845 26.1703 12.7078 25.8293 12.7078Z" fill="white"/>
</svg>
