<svg width="560" height="500" viewBox="0 0 560 500" fill="none" xmlns="http://www.w3.org/2000/svg">
<circle cx="280" cy="250" r="249.5" stroke="url(#paint0_linear_881_15486)"/>
<circle cx="280" cy="250" r="209.5" stroke="url(#paint1_linear_881_15486)"/>
<circle cx="280" cy="250" r="169.5" stroke="url(#paint2_linear_881_15486)"/>
<path d="M270.58 144.397C265.911 145.046 259.125 146.616 255.108 148.023C252.176 149.051 252.122 149.105 253.588 149.647C270.472 156.304 276.498 160.309 304.51 183.041C326.334 200.793 336.432 207.937 346.584 212.808C354.998 216.868 354.998 216.868 354.998 214.324C354.998 211.076 353.533 202.958 352.013 197.654C351.253 194.948 349.081 189.59 347.127 185.747C336.758 164.693 317.757 150.134 294.576 145.371C288.17 144.072 276.389 143.585 270.58 144.397Z" fill="#D2D9EF"/>
<path d="M225.467 167.239C222.752 170.054 219.007 174.6 217.215 177.306C213.903 182.231 209.723 190.242 210.266 190.729C210.375 190.837 212.438 190.675 214.772 190.296C217.378 189.809 223.35 189.592 230.407 189.592C250.928 189.7 259.723 192.136 296.367 208.21C303.968 211.566 313.143 215.409 316.726 216.87C331.221 222.607 345.824 226.612 352.284 226.612H354.999V222.878V219.143L352.719 218.764C342.675 217.087 325.792 208.156 297.725 189.809C280.624 178.659 274.706 175.141 266.346 171.136C256.031 166.211 245.282 163.18 234.967 162.422L230.407 162.043L225.467 167.239Z" fill="#D2D9EF"/>
<path d="M239.365 216.867C229.05 217.95 218.735 220.927 209.832 225.365L205 227.746L205.38 230.561C206.194 237.597 210.32 249.45 214.338 256.269C218.138 262.656 217.541 262.439 221.504 258.921C231.493 249.883 245.499 242.847 259.017 240.14C270.092 237.867 282.089 238.138 306.411 241.223C329.375 244.091 338.604 244.578 345.39 243.117C351.687 241.818 351.796 241.656 353.207 235.865C353.859 233.05 354.347 230.669 354.239 230.561C354.184 230.452 352.176 230.669 349.787 230.994C344.847 231.697 334.749 231.318 325.52 230.128C316.997 229.045 307.985 227.259 287.844 222.875C261.731 217.138 250.385 215.731 239.365 216.867Z" fill="#D2D9EF"/>
<path d="M343.055 252.372C336.486 255.728 327.854 258.434 308.636 263.143C281.601 269.8 273.783 272.993 266.509 280.192C264.011 282.627 261.731 285.604 260.591 287.661C259.614 289.555 258.908 291.179 259.017 291.287C259.125 291.395 261.786 292.045 264.88 292.694C272.969 294.426 286.595 294.426 294.576 292.748C301.145 291.341 308.256 288.906 313.468 286.254C326.877 279.542 339.472 267.31 346.095 254.591C347.453 251.994 348.321 249.883 348.104 249.937C347.887 249.937 345.607 251.073 343.055 252.372Z" fill="#D2D9EF"/>
<g filter="url(#filter0_f_881_15486)">
<rect x="154" y="144" width="252" height="164" fill="url(#paint3_linear_881_15486)"/>
</g>
<g filter="url(#filter1_d_881_15486)">
<path d="M152 13.3094C154.475 11.8803 157.525 11.8803 160 13.3094L169.321 18.6906C171.796 20.1197 173.321 22.7607 173.321 25.6188V36.3812C173.321 39.2393 171.796 41.8803 169.321 43.3094L160 48.6906C157.525 50.1197 154.475 50.1197 152 48.6906L142.679 43.3094C140.204 41.8803 138.679 39.2393 138.679 36.3812V25.6188C138.679 22.7607 140.204 20.1197 142.679 18.6906L152 13.3094Z" fill="#FCEBEE"/>
<path d="M152.5 14.1754C154.666 12.925 157.334 12.925 159.5 14.1754L168.821 19.5566C170.986 20.8071 172.321 23.1179 172.321 25.6188V36.3812C172.321 38.8821 170.986 41.1929 168.821 42.4434L159.5 47.8246C157.334 49.075 154.666 49.075 152.5 47.8246L143.179 42.4434C141.014 41.1929 139.679 38.8821 139.679 36.3812V25.6188C139.679 23.1179 141.014 20.8071 143.179 19.5566L152.5 14.1754Z" stroke="#F5F5F5" stroke-width="2"/>
</g>
<path d="M149.593 35.8664L151.201 31.6797H157.079L155.664 35.363C155.393 36.0664 155.913 36.8222 156.666 36.8222H160.303V38.2914H151.26C150.007 38.2914 149.144 37.0351 149.593 35.8655V35.8664Z" fill="#8A102E"/>
<path d="M149.585 24.5645L148.802 25.7186C148.618 25.989 148.546 26.3195 148.598 26.6424L149.62 32.8624C149.715 33.4382 150.212 33.8607 150.796 33.8607H162.083C162.516 33.8607 162.901 33.5853 163.041 33.1753L163.347 32.277L150.988 32.2111L149.586 24.5653L149.585 24.5645Z" fill="#8A102E"/>
<path d="M151.228 38.2924H161.773V36.8232H149.501L149.521 36.9166C149.696 37.7195 150.406 38.2924 151.228 38.2924Z" fill="#73051F"/>
<path d="M162.848 32.5709H151.207C150.928 32.5709 150.69 32.3697 150.644 32.0951L149.482 24.9963C149.424 24.6493 149.692 24.333 150.044 24.333H161.685C161.964 24.333 162.202 24.5343 162.247 24.8088L163.41 31.9076C163.468 32.2547 163.2 32.5709 162.848 32.5709Z" fill="#E78BA2"/>
<g filter="url(#filter2_d_881_15486)">
<path d="M250 26.3094C252.475 24.8803 255.525 24.8803 258 26.3094L267.321 31.6906C269.796 33.1197 271.321 35.7607 271.321 38.6188V49.3812C271.321 52.2393 269.796 54.8803 267.321 56.3094L258 61.6906C255.525 63.1197 252.475 63.1197 250 61.6906L240.679 56.3094C238.204 54.8803 236.679 52.2393 236.679 49.3812V38.6188C236.679 35.7607 238.204 33.1197 240.679 31.6906L250 26.3094Z" fill="#FEF5E2"/>
<path d="M250.5 27.1754C252.666 25.925 255.334 25.925 257.5 27.1754L266.821 32.5566C268.986 33.8071 270.321 36.1179 270.321 38.6188V49.3812C270.321 51.8821 268.986 54.1929 266.821 55.4434L257.5 60.8246C255.334 62.075 252.666 62.075 250.5 60.8246L241.179 55.4434C239.014 54.1929 237.679 51.8821 237.679 49.3812V38.6188C237.679 36.1179 239.014 33.8071 241.179 32.5566L250.5 27.1754Z" stroke="#F5F5F5" stroke-width="2"/>
</g>
<path d="M251.149 49.1636C250.758 49.1636 250.44 48.8457 250.44 48.4545L250.43 37.6316C252.81 37.2424 255.215 37.242 257.595 37.6316L257.603 46.1474C257.86 46.1953 258.116 46.2516 258.369 46.3182C258.751 46.4186 259.017 46.7611 259.029 47.1536L259.02 36.4445L258.441 36.3341C255.502 35.7741 252.522 35.7741 249.584 36.3341L249.004 36.4445L249.015 48.4549C249.015 49.6316 249.972 50.5886 251.149 50.5886H252.819L252.344 49.1632H251.15L251.149 49.1636Z" fill="#FAB136"/>
<path d="M258.884 49.2278C258.909 49.1623 258.932 49.0957 258.95 49.0273L258.884 49.2278Z" fill="#A66C09"/>
<path d="M256.897 50.5888H252.818L253.353 52.193C254.776 52.9355 256.472 52.9355 257.895 52.193L258.884 49.2275C258.573 50.023 257.801 50.5888 256.897 50.5888Z" fill="#533605"/>
<path d="M254.951 45.3622L254.434 42.7763C253.842 42.1901 253.131 42.6001 253.131 43.1763V46.2559C253.046 46.2759 252.961 46.2972 252.877 46.3192C252.487 46.4213 252.217 46.7784 252.217 47.1822V48.7863L252.343 49.1634H256.897C257.288 49.1634 257.606 48.8455 257.606 48.4547L257.604 46.1472C256.966 46.0284 256.321 45.9667 255.675 45.9638C255.322 45.9622 255.021 45.708 254.952 45.3622H254.951Z" fill="#A66C09"/>
<path d="M259.031 47.1817C259.031 47.1721 259.03 47.1629 259.029 47.1533L259.031 48.4529V47.1817Z" fill="#8A5700"/>
<path d="M259.031 48.4545V48.4533L259.029 47.1537C259.017 46.7612 258.751 46.4187 258.369 46.3183C258.115 46.2516 257.86 46.1954 257.603 46.1475L257.605 48.455C257.605 48.8458 257.287 49.1637 256.897 49.1637H252.343L252.818 50.5891H256.897C257.8 50.5891 258.573 50.0233 258.883 49.2279L258.95 49.0275C259.001 48.845 259.03 48.6533 259.03 48.4545H259.031Z" fill="#A66C09"/>
<g filter="url(#filter3_d_881_15486)">
<path d="M469 67.3094C471.475 65.8803 474.525 65.8803 477 67.3094L486.321 72.6906C488.796 74.1197 490.321 76.7607 490.321 79.6188V90.3812C490.321 93.2393 488.796 95.8803 486.321 97.3094L477 102.691C474.525 104.12 471.475 104.12 469 102.691L459.679 97.3094C457.204 95.8803 455.679 93.2393 455.679 90.3812V79.6188C455.679 76.7607 457.204 74.1197 459.679 72.6906L469 67.3094Z" fill="#F0F5F0"/>
<path d="M469.5 68.1754C471.666 66.925 474.334 66.925 476.5 68.1754L485.821 73.5566C487.986 74.8071 489.321 77.1179 489.321 79.6188V90.3812C489.321 92.8821 487.986 95.1929 485.821 96.4434L476.5 101.825C474.334 103.075 471.666 103.075 469.5 101.825L460.179 96.4434C458.014 95.1929 456.679 92.8821 456.679 90.3812V79.6188C456.679 77.1179 458.014 74.8071 460.179 73.5566L469.5 68.1754Z" stroke="#F5F5F5" stroke-width="2"/>
</g>
<path d="M468.972 83.5231C470.039 83.3294 472.735 83.4052 473.806 83.6961C474.612 88.2219 474.612 92.9202 474.612 92.9202H468.972V83.5227V83.5231Z" fill="#96CE96"/>
<path d="M471.415 82.7315C470.103 82.7315 469.039 81.6678 469.039 80.3553L469.075 78.2749L469.094 78.2503C470.286 76.6786 472.652 76.6907 473.828 78.2749L473.792 80.3553C473.792 81.6678 472.728 82.7315 471.415 82.7315Z" fill="#96CE96"/>
<path d="M473.806 83.6957L473.828 92.9199H480.251V92.1141C480.251 92.1141 480.246 92.112 480.236 92.1082C478.413 91.4036 477.038 89.882 476.496 88.0041C475.859 85.7932 474.876 83.9866 474.876 83.9866L473.805 83.6953L473.806 83.6957Z" fill="#96CE96"/>
<path d="M468.971 88.1097V83.5234C468.971 83.5234 467.347 83.8109 466.618 83.9664C466.618 83.9664 465.558 86.8234 465.779 90.3259C465.779 90.3339 465.78 90.3418 465.781 90.3493C465.875 91.7984 467.089 92.9209 468.542 92.9209H473.828L473.649 91.8655C469.811 91.5484 468.972 89.8364 468.972 88.1097H468.971Z" fill="#96CE96"/>
<path d="M471.524 84.1977C471.517 84.1977 471.51 84.1969 471.503 84.1964C471.013 84.1719 470.596 84.5502 470.575 85.0406C470.488 87.0819 470.488 89.8677 470.488 89.8677L471.792 91.3369L473.017 89.7527L472.359 85.0006C472.319 84.5623 471.964 84.2198 471.524 84.1973V84.1977Z" fill="#2D9E2E"/>
<g filter="url(#filter4_d_881_15486)">
<path d="M438.017 167.311C440.493 165.883 443.542 165.883 446.017 167.312L455.337 172.695C457.812 174.124 459.337 176.765 459.336 179.623L459.335 190.386C459.335 193.244 457.81 195.885 455.334 197.313L446.013 202.693C443.538 204.122 440.488 204.122 438.013 202.692L428.693 197.31C426.218 195.881 424.694 193.24 424.694 190.382L424.695 179.619C424.696 176.761 426.221 174.12 428.696 172.691L438.017 167.311Z" fill="#EDEFF7"/>
<path d="M438.517 168.177C440.683 166.927 443.352 166.928 445.517 168.178L454.837 173.56C457.003 174.811 458.337 177.122 458.336 179.623L458.335 190.385C458.335 192.886 457 195.197 454.834 196.447L445.513 201.827C443.347 203.078 440.679 203.077 438.513 201.827L429.193 196.444C427.028 195.194 425.694 192.882 425.694 190.382L425.695 179.619C425.696 177.118 427.03 174.808 429.196 173.557L438.517 168.177Z" stroke="#F5F5F5" stroke-width="2"/>
</g>
<g clip-path="url(#clip0_881_15486)">
<path d="M434.015 191.595C434.015 192.371 434.644 193.001 435.421 193.001L448.608 193.003C449.385 193.003 450.015 192.373 450.015 191.597L450.015 191.128L434.015 191.126L434.015 191.595Z" fill="#152B74"/>
<path d="M442.015 186.877C442.533 186.877 442.952 186.457 442.953 185.94C442.953 185.422 442.533 185.002 442.015 185.002C441.497 185.002 441.078 185.422 441.078 185.939C441.077 186.457 441.497 186.877 442.015 186.877Z" fill="#091E63"/>
<path d="M449.078 181.721L447.172 181.721L447.172 181.447L448.109 180.509L448.11 179.76C448.654 179.566 449.047 179.019 449.047 178.409C449.047 177.633 448.417 177.003 447.641 177.002C446.866 177.002 446.235 177.633 446.235 178.409C446.235 179.019 446.628 179.566 447.172 179.76L447.172 180.121L446.234 181.058L446.234 181.721L443.422 181.721L443.422 181.446L444.359 180.509L444.36 179.759C444.904 179.565 445.297 179.019 445.297 178.408C445.297 177.633 444.667 177.002 443.891 177.002C443.116 177.002 442.485 177.633 442.485 178.408C442.485 179.018 442.878 179.565 443.422 179.759L443.422 180.12L442.484 181.058L442.484 181.721L441.547 181.721L441.547 181.058L440.609 180.12L440.61 179.759C441.154 179.565 441.547 179.018 441.547 178.408C441.547 177.633 440.917 177.002 440.141 177.002C439.366 177.001 438.735 177.632 438.735 178.408C438.735 179.018 439.128 179.565 439.672 179.759L439.672 180.508L440.609 181.446L440.609 181.72L437.797 181.72L437.797 181.057L436.859 180.12L436.86 179.759C437.404 179.565 437.797 179.018 437.797 178.408C437.797 177.632 437.167 177.001 436.391 177.001C435.616 177.001 434.985 177.632 434.985 178.407C434.985 179.018 435.378 179.564 435.922 179.758L435.922 180.508L436.859 181.445L436.859 181.72L434.953 181.72L434.952 190.188L449.077 190.19L449.078 181.721ZM443.89 185.94C443.89 186.113 443.859 186.278 443.814 186.437L444.685 186.94L444.216 187.752L443.351 187.252C443.116 187.491 442.817 187.661 442.484 187.748L442.483 188.752L441.546 188.752L441.546 187.748C441.213 187.661 440.914 187.49 440.679 187.252L439.814 187.751L439.345 186.939L440.216 186.437C440.171 186.277 440.14 186.113 440.14 185.939C440.14 185.766 440.171 185.601 440.216 185.441L439.345 184.939L439.814 184.127L440.68 184.627C440.914 184.388 441.213 184.217 441.547 184.131L441.547 183.127L442.484 183.127L442.484 184.131C442.817 184.218 443.116 184.388 443.351 184.627L444.216 184.127L444.685 184.939L443.815 185.442C443.859 185.601 443.89 185.766 443.89 185.94Z" fill="#1A3591"/>
</g>
<g filter="url(#filter5_d_881_15486)">
<path d="M119 172.309C121.475 170.88 124.525 170.88 127 172.309L136.321 177.691C138.796 179.12 140.321 181.761 140.321 184.619V195.381C140.321 198.239 138.796 200.88 136.321 202.309L127 207.691C124.525 209.12 121.475 209.12 119 207.691L109.679 202.309C107.204 200.88 105.679 198.239 105.679 195.381V184.619C105.679 181.761 107.204 179.12 109.679 177.691L119 172.309Z" fill="#EDF4F7"/>
<path d="M119.5 173.175C121.666 171.925 124.334 171.925 126.5 173.175L135.821 178.557C137.986 179.807 139.321 182.118 139.321 184.619V195.381C139.321 197.882 137.986 200.193 135.821 201.443L126.5 206.825C124.334 208.075 121.666 208.075 119.5 206.825L110.179 201.443C108.014 200.193 106.679 197.882 106.679 195.381V184.619C106.679 182.118 108.014 179.807 110.179 178.557L119.5 173.175Z" stroke="#F5F5F5" stroke-width="2"/>
</g>
<path d="M115.719 183.274V195.21C115.719 197.006 117.175 198.462 118.97 198.462H127.041C128.836 198.462 130.292 197.006 130.292 195.21V183.274L128.623 182.904C124.923 182.083 121.089 182.083 117.389 182.904L115.72 183.274H115.719ZM127.033 196.844H118.978C118.071 196.844 117.336 196.109 117.336 195.203V184.916C121.04 183.844 124.971 183.844 128.674 184.916V195.203C128.674 196.109 127.94 196.844 127.033 196.844H127.033Z" fill="#6AB0C9"/>
<path d="M127.057 191.361H118.954C118.507 191.361 118.145 191.723 118.145 192.17C118.145 192.617 118.507 192.979 118.954 192.979H127.057C127.503 192.979 127.865 192.617 127.865 192.17C127.865 191.723 127.503 191.361 127.057 191.361Z" fill="#449CBB"/>
<g filter="url(#filter6_d_881_15486)">
<path d="M526 242.309C528.475 240.88 531.525 240.88 534 242.309L543.321 247.691C545.796 249.12 547.321 251.761 547.321 254.619V265.381C547.321 268.239 545.796 270.88 543.321 272.309L534 277.691C531.525 279.12 528.475 279.12 526 277.691L516.679 272.309C514.204 270.88 512.679 268.239 512.679 265.381V254.619C512.679 251.761 514.204 249.12 516.679 247.691L526 242.309Z" fill="#FCEBEE"/>
<path d="M526.5 243.175C528.666 241.925 531.334 241.925 533.5 243.175L542.821 248.557C544.986 249.807 546.321 252.118 546.321 254.619V265.381C546.321 267.882 544.986 270.193 542.821 271.443L533.5 276.825C531.334 278.075 528.666 278.075 526.5 276.825L517.179 271.443C515.014 270.193 513.679 267.882 513.679 265.381V254.619C513.679 252.118 515.014 249.807 517.179 248.557L526.5 243.175Z" stroke="#F5F5F5" stroke-width="2"/>
</g>
<path d="M524.698 261.606V265.545C528.926 267.176 533.567 266.297 536.956 262.481V261.922C536.956 261.486 536.468 261.229 536.107 261.474C531.837 264.374 526.597 263.724 524.698 261.606Z" fill="#D73E64"/>
<path d="M526.853 262.22L524.462 265.91C524.284 266.185 523.869 266.139 523.755 265.833L522.352 262.08C522.266 261.85 522.435 261.605 522.681 261.605H526.519C526.835 261.605 527.025 261.955 526.853 262.22Z" fill="#D73E64"/>
<path d="M535.314 258.384V254.445C531.086 252.814 527.206 253.737 523.817 257.553V258.105C523.817 258.544 524.31 258.8 524.671 258.55C528.852 255.656 533.417 256.269 535.314 258.384Z" fill="#DF6583"/>
<path d="M533.159 257.769L535.551 254.079C535.729 253.805 536.144 253.85 536.258 254.156L537.661 257.91C537.747 258.139 537.577 258.384 537.332 258.384H533.494C533.178 258.384 532.988 258.034 533.159 257.769Z" fill="#DF6583"/>
<g filter="url(#filter7_d_881_15486)">
<path d="M26 263.309C28.4752 261.88 31.5248 261.88 34 263.309L43.3205 268.691C45.7957 270.12 47.3205 272.761 47.3205 275.619V286.381C47.3205 289.239 45.7957 291.88 43.3205 293.309L34 298.691C31.5248 300.12 28.4752 300.12 26 298.691L16.6795 293.309C14.2043 291.88 12.6795 289.239 12.6795 286.381V275.619C12.6795 272.761 14.2043 270.12 16.6795 268.691L26 263.309Z" fill="#F0F5F0"/>
<path d="M26.5 264.175C28.6658 262.925 31.3342 262.925 33.5 264.175L42.8205 269.557C44.9863 270.807 46.3205 273.118 46.3205 275.619V286.381C46.3205 288.882 44.9863 291.193 42.8205 292.443L33.5 297.825C31.3342 299.075 28.6658 299.075 26.5 297.825L17.1795 292.443C15.0137 291.193 13.6795 288.882 13.6795 286.381V275.619C13.6795 273.118 15.0137 270.807 17.1795 269.557L26.5 264.175Z" stroke="#F5F5F5" stroke-width="2"/>
</g>
<path d="M25.9717 279.523C27.0388 279.329 29.7354 279.405 30.8058 279.696C31.6117 284.222 31.6117 288.92 31.6117 288.92H25.9717V279.523V279.523Z" fill="#73BE74"/>
<path d="M28.4153 278.732C27.1028 278.732 26.0391 277.668 26.0391 276.355L26.0753 274.275L26.0941 274.25C27.2857 272.679 29.6524 272.691 30.8278 274.275L30.7916 276.355C30.7916 277.668 29.7278 278.732 28.4153 278.732Z" fill="#50AE51"/>
<path d="M30.8056 279.696L30.8281 288.92H37.251V288.114C37.251 288.114 37.246 288.112 37.2356 288.108C35.4127 287.404 34.0377 285.882 33.4964 284.004C32.8589 281.793 31.876 279.987 31.876 279.987L30.8052 279.695L30.8056 279.696Z" fill="#73BE74"/>
<path d="M25.9717 281.348L25.9858 288.921H31.6117C31.6117 288.921 31.6117 284.831 31.0658 281.348H25.9717Z" fill="#2D9E2E"/>
<path d="M25.9714 284.11V279.523C25.9714 279.523 24.3472 279.811 23.6185 279.966C23.6185 279.966 22.5576 282.823 22.7789 286.326C22.7793 286.334 22.7797 286.342 22.7806 286.349C22.8747 287.798 24.0893 288.921 25.5418 288.921H30.8285L30.6489 287.866C26.8106 287.548 25.9718 285.836 25.9718 284.11H25.9714Z" fill="#73BE74"/>
<path d="M25.9717 281.348V279.524C25.9717 279.524 26.5767 279.426 27.0921 279.426C27.1913 280.387 27.2654 281.348 27.2654 281.348H25.9721H25.9717Z" fill="#2D9E2E"/>
<path d="M31.0652 281.348C30.9544 280.529 30.8056 279.697 30.8056 279.697C30.4673 279.609 30.1219 279.55 29.7731 279.521L29.7173 279.517V281.348H31.0652Z" fill="#2D9E2E"/>
<defs>
<filter id="filter0_f_881_15486" x="150" y="140" width="260" height="172" filterUnits="userSpaceOnUse" color-interpolation-filters="sRGB">
<feFlood flood-opacity="0" result="BackgroundImageFix"/>
<feBlend mode="normal" in="SourceGraphic" in2="BackgroundImageFix" result="shape"/>
<feGaussianBlur stdDeviation="2" result="effect1_foregroundBlur_881_15486"/>
</filter>
<filter id="filter1_d_881_15486" x="126.68" y="4.2373" width="58.6406" height="61.5254" filterUnits="userSpaceOnUse" color-interpolation-filters="sRGB">
<feFlood flood-opacity="0" result="BackgroundImageFix"/>
<feColorMatrix in="SourceAlpha" type="matrix" values="0 0 0 0 0 0 0 0 0 0 0 0 0 0 0 0 0 0 127 0" result="hardAlpha"/>
<feOffset dy="4"/>
<feGaussianBlur stdDeviation="6"/>
<feComposite in2="hardAlpha" operator="out"/>
<feColorMatrix type="matrix" values="0 0 0 0 0.376471 0 0 0 0 0.376471 0 0 0 0 0.376471 0 0 0 0.15 0"/>
<feBlend mode="normal" in2="BackgroundImageFix" result="effect1_dropShadow_881_15486"/>
<feBlend mode="normal" in="SourceGraphic" in2="effect1_dropShadow_881_15486" result="shape"/>
</filter>
<filter id="filter2_d_881_15486" x="224.68" y="17.2373" width="58.6406" height="61.5254" filterUnits="userSpaceOnUse" color-interpolation-filters="sRGB">
<feFlood flood-opacity="0" result="BackgroundImageFix"/>
<feColorMatrix in="SourceAlpha" type="matrix" values="0 0 0 0 0 0 0 0 0 0 0 0 0 0 0 0 0 0 127 0" result="hardAlpha"/>
<feOffset dy="4"/>
<feGaussianBlur stdDeviation="6"/>
<feComposite in2="hardAlpha" operator="out"/>
<feColorMatrix type="matrix" values="0 0 0 0 0.376471 0 0 0 0 0.376471 0 0 0 0 0.376471 0 0 0 0.15 0"/>
<feBlend mode="normal" in2="BackgroundImageFix" result="effect1_dropShadow_881_15486"/>
<feBlend mode="normal" in="SourceGraphic" in2="effect1_dropShadow_881_15486" result="shape"/>
</filter>
<filter id="filter3_d_881_15486" x="443.68" y="58.2373" width="58.6406" height="61.5254" filterUnits="userSpaceOnUse" color-interpolation-filters="sRGB">
<feFlood flood-opacity="0" result="BackgroundImageFix"/>
<feColorMatrix in="SourceAlpha" type="matrix" values="0 0 0 0 0 0 0 0 0 0 0 0 0 0 0 0 0 0 127 0" result="hardAlpha"/>
<feOffset dy="4"/>
<feGaussianBlur stdDeviation="6"/>
<feComposite in2="hardAlpha" operator="out"/>
<feColorMatrix type="matrix" values="0 0 0 0 0.376471 0 0 0 0 0.376471 0 0 0 0 0.376471 0 0 0 0.15 0"/>
<feBlend mode="normal" in2="BackgroundImageFix" result="effect1_dropShadow_881_15486"/>
<feBlend mode="normal" in="SourceGraphic" in2="effect1_dropShadow_881_15486" result="shape"/>
</filter>
<filter id="filter4_d_881_15486" x="412.694" y="158.24" width="58.6426" height="61.5244" filterUnits="userSpaceOnUse" color-interpolation-filters="sRGB">
<feFlood flood-opacity="0" result="BackgroundImageFix"/>
<feColorMatrix in="SourceAlpha" type="matrix" values="0 0 0 0 0 0 0 0 0 0 0 0 0 0 0 0 0 0 127 0" result="hardAlpha"/>
<feOffset dy="4"/>
<feGaussianBlur stdDeviation="6"/>
<feComposite in2="hardAlpha" operator="out"/>
<feColorMatrix type="matrix" values="0 0 0 0 0.376471 0 0 0 0 0.376471 0 0 0 0 0.376471 0 0 0 0.15 0"/>
<feBlend mode="normal" in2="BackgroundImageFix" result="effect1_dropShadow_881_15486"/>
<feBlend mode="normal" in="SourceGraphic" in2="effect1_dropShadow_881_15486" result="shape"/>
</filter>
<filter id="filter5_d_881_15486" x="93.6797" y="163.237" width="58.6406" height="61.5254" filterUnits="userSpaceOnUse" color-interpolation-filters="sRGB">
<feFlood flood-opacity="0" result="BackgroundImageFix"/>
<feColorMatrix in="SourceAlpha" type="matrix" values="0 0 0 0 0 0 0 0 0 0 0 0 0 0 0 0 0 0 127 0" result="hardAlpha"/>
<feOffset dy="4"/>
<feGaussianBlur stdDeviation="6"/>
<feComposite in2="hardAlpha" operator="out"/>
<feColorMatrix type="matrix" values="0 0 0 0 0.376471 0 0 0 0 0.376471 0 0 0 0 0.376471 0 0 0 0.15 0"/>
<feBlend mode="normal" in2="BackgroundImageFix" result="effect1_dropShadow_881_15486"/>
<feBlend mode="normal" in="SourceGraphic" in2="effect1_dropShadow_881_15486" result="shape"/>
</filter>
<filter id="filter6_d_881_15486" x="500.68" y="233.237" width="58.6406" height="61.5254" filterUnits="userSpaceOnUse" color-interpolation-filters="sRGB">
<feFlood flood-opacity="0" result="BackgroundImageFix"/>
<feColorMatrix in="SourceAlpha" type="matrix" values="0 0 0 0 0 0 0 0 0 0 0 0 0 0 0 0 0 0 127 0" result="hardAlpha"/>
<feOffset dy="4"/>
<feGaussianBlur stdDeviation="6"/>
<feComposite in2="hardAlpha" operator="out"/>
<feColorMatrix type="matrix" values="0 0 0 0 0.376471 0 0 0 0 0.376471 0 0 0 0 0.376471 0 0 0 0.15 0"/>
<feBlend mode="normal" in2="BackgroundImageFix" result="effect1_dropShadow_881_15486"/>
<feBlend mode="normal" in="SourceGraphic" in2="effect1_dropShadow_881_15486" result="shape"/>
</filter>
<filter id="filter7_d_881_15486" x="0.679688" y="254.237" width="58.6406" height="61.5254" filterUnits="userSpaceOnUse" color-interpolation-filters="sRGB">
<feFlood flood-opacity="0" result="BackgroundImageFix"/>
<feColorMatrix in="SourceAlpha" type="matrix" values="0 0 0 0 0 0 0 0 0 0 0 0 0 0 0 0 0 0 127 0" result="hardAlpha"/>
<feOffset dy="4"/>
<feGaussianBlur stdDeviation="6"/>
<feComposite in2="hardAlpha" operator="out"/>
<feColorMatrix type="matrix" values="0 0 0 0 0.376471 0 0 0 0 0.376471 0 0 0 0 0.376471 0 0 0 0.15 0"/>
<feBlend mode="normal" in2="BackgroundImageFix" result="effect1_dropShadow_881_15486"/>
<feBlend mode="normal" in="SourceGraphic" in2="effect1_dropShadow_881_15486" result="shape"/>
</filter>
<linearGradient id="paint0_linear_881_15486" x1="280" y1="0" x2="280" y2="500" gradientUnits="userSpaceOnUse">
<stop stop-color="#A9B3D6"/>
<stop offset="1" stop-color="#A9B3D6" stop-opacity="0"/>
</linearGradient>
<linearGradient id="paint1_linear_881_15486" x1="280" y1="40" x2="280" y2="460" gradientUnits="userSpaceOnUse">
<stop stop-color="#A9B3D6"/>
<stop offset="1" stop-color="#A9B3D6" stop-opacity="0"/>
</linearGradient>
<linearGradient id="paint2_linear_881_15486" x1="280" y1="80" x2="280" y2="420" gradientUnits="userSpaceOnUse">
<stop stop-color="#A9B3D6"/>
<stop offset="1" stop-color="#A9B3D6" stop-opacity="0"/>
</linearGradient>
<linearGradient id="paint3_linear_881_15486" x1="269.189" y1="308" x2="269.189" y2="144" gradientUnits="userSpaceOnUse">
<stop stop-color="white"/>
<stop offset="1" stop-color="white" stop-opacity="0"/>
</linearGradient>
<clipPath id="clip0_881_15486">
<rect width="16" height="16" fill="white" transform="translate(434.016 177.001)"/>
</clipPath>
</defs>
</svg>
