<svg width="24" height="24" viewBox="0 0 24 24" fill="none" xmlns="http://www.w3.org/2000/svg">
<path d="M10.5253 8.73043H15.4924C14.881 8.14575 14.0735 7.76375 13.177 7.69637C13.7795 7.02872 14.1465 6.145 14.1465 5.17498C14.1465 3.09572 12.4609 1.41016 10.3817 1.41016H3.80866C2.81804 1.41016 2.01562 2.21313 2.01562 3.2032V13.4207C2.01562 14.4114 2.81859 15.2138 3.80866 15.2138H8.29015V10.9651C8.29015 9.73108 9.2908 8.73043 10.5248 8.73043H10.5253Z" fill="#B4BFE4"/>
<path d="M21.9706 16.2596C21.3408 15.5568 20.451 15.0913 19.4514 15.0167C20.0539 14.349 20.4209 13.4653 20.4209 12.4953C20.4209 10.416 18.7353 8.73047 16.6561 8.73047H15.4917C15.5619 8.79785 15.6304 8.86689 15.6955 8.93984C16.2925 9.60583 16.6561 10.4851 16.6561 11.4495C16.6561 13.5288 14.9705 15.2144 12.8912 15.2144H8.30452H8.29004V20.7416C8.29004 21.7322 9.09301 22.5346 10.0831 22.5346H19.1658C21.245 22.5346 22.9306 20.8491 22.9306 18.7698C22.9306 17.8048 22.567 16.9261 21.97 16.2601L21.9706 16.2596Z" fill="#B4BFE4"/>
<path d="M12.8922 15.2144C14.9715 15.2144 16.657 13.5288 16.657 11.4495C16.657 10.4845 16.2934 9.60583 15.6965 8.93984C15.6313 8.86745 15.5628 8.79785 15.4927 8.73047H10.2756C9.17974 8.73047 8.29102 9.61919 8.29102 10.7151V15.2144H12.8922Z" fill="#1F40AE"/>
</svg>
