<svg width="24" height="24" viewBox="0 0 24 24" fill="none" xmlns="http://www.w3.org/2000/svg">
<path d="M14.5605 9.01312H15.2878C14.6449 8.29593 13.737 7.82118 12.7177 7.74468C13.3326 7.06349 13.7072 6.1618 13.7072 5.1718C13.7072 3.05062 11.9876 1.33105 9.86643 1.33105H3.1648C2.15174 1.33105 1.33105 2.1523 1.33105 3.1648V13.5806C1.33105 14.5937 2.1523 15.4144 3.1648 15.4144H7.74693C7.96743 11.8419 10.9329 9.01255 14.5605 9.01255V9.01312Z" fill="#B4BFE4"/>
<path d="M15.2879 9.01228C15.8971 9.69178 16.2678 10.5884 16.2678 11.5728C16.2678 13.694 14.5482 15.4135 12.427 15.4135H7.74705C7.73805 15.5547 7.73242 15.697 7.73242 15.8405C7.73242 19.6115 10.7896 22.6687 14.5606 22.6687H20.9917C21.9181 22.6687 22.6696 21.9172 22.6696 20.9907V10.6897C22.6696 9.76322 21.9181 9.01172 20.9917 9.01172H15.2879V9.01228Z" fill="#B4BFE4"/>
<path d="M16.2678 11.5732C16.2678 10.5888 15.8966 9.6922 15.2879 9.0127H14.5606C10.9331 9.0127 7.96757 11.8421 7.74707 15.4145H12.4271C14.5483 15.4145 16.2678 13.6949 16.2678 11.5738V11.5732Z" fill="#1F40AE"/>
</svg>
