<svg width="24" height="24" viewBox="0 0 24 24" fill="none" xmlns="http://www.w3.org/2000/svg">
<path d="M23.2577 13.0455C19.7235 11.5909 15.754 11.5926 12.2209 13.0523C11.7158 13.261 11.515 13.8719 11.7951 14.3415C12.5376 15.5852 13.6592 16.5758 15.0008 17.1546H20.4745C21.8183 16.5747 22.9416 15.5813 23.6841 14.3348C23.9637 13.8651 23.7623 13.2542 23.2572 13.0461L23.2577 13.0455Z" fill="#1F40AE"/>
<path d="M17.7406 11.0269C16.0734 11.0269 14.7217 9.67522 14.7217 8.00797V5.36478L14.7453 5.33385C16.2596 3.33697 19.2667 3.35216 20.7601 5.36478V8.00797C20.7601 9.67522 19.4084 11.0269 17.7412 11.0269H17.7406Z" fill="#1F40AE"/>
<path d="M15.8932 15.4232C11.1721 13.4797 5.87001 13.4825 1.15063 15.4322C0.475631 15.7106 0.207881 16.5274 0.581943 17.154C1.57363 18.8151 3.07213 20.1386 4.86426 20.9115H12.1762C13.9717 20.1369 15.4719 18.81 16.4636 17.1444C16.8371 16.5172 16.5682 15.7011 15.8932 15.4232Z" fill="#B4BFE4"/>
<path d="M8.52238 12.5936C6.29488 12.5936 4.48926 10.788 4.48926 8.56045V5.02964L4.52076 4.98801C6.54295 2.32008 10.5603 2.34089 12.5549 5.02964V8.56045C12.5549 10.788 10.7493 12.5936 8.52182 12.5936H8.52238Z" fill="#B4BFE4"/>
</svg>
