<svg width="32" height="32" viewBox="0 0 32 32" fill="none" xmlns="http://www.w3.org/2000/svg">
<rect width="32" height="32" rx="6" fill="#1F40AE"/>
<path d="M13.8406 19.3213C14.7422 19.3213 15.6502 19.3971 16.5395 19.5468C17.7347 19.7481 18.9079 20.0832 20.026 20.5438C20.0333 20.547 20.0511 20.5543 20.0602 20.5813C20.0684 20.6064 20.0616 20.6237 20.057 20.6324C20.0547 20.6365 20.052 20.6406 20.0497 20.6447C19.3074 21.8878 18.1862 22.8981 16.8778 23.5071H10.7841C9.47529 22.8977 8.35362 21.8874 7.61177 20.6443C7.60766 20.637 7.59625 20.6183 7.60584 20.589C7.61497 20.5616 7.63231 20.5543 7.64007 20.5516C9.61544 19.7358 11.7017 19.3217 13.8406 19.3217M13.8406 18.3174C11.6022 18.3174 9.36436 18.7524 7.2566 19.623C6.65444 19.8718 6.41523 20.6 6.7494 21.1592C7.63414 22.6411 8.97084 23.8217 10.5696 24.5115H17.0924C18.6906 23.8221 20.0273 22.6416 20.9121 21.1597C20.9139 21.1569 20.9157 21.1542 20.9176 21.151C21.2508 20.5913 21.0107 19.8632 20.4085 19.6153C19.2083 19.1213 17.9666 18.7689 16.7061 18.5566C15.7579 18.3968 14.7992 18.3174 13.8406 18.3174Z" fill="white"/>
<path d="M13.8327 9.53706C14.8389 9.53706 15.7679 9.95661 16.4262 10.698V13.4928C16.4262 14.9226 15.263 16.0863 13.8327 16.0863C12.4024 16.0863 11.2392 14.9231 11.2392 13.4928V10.6985C11.8979 9.95706 12.8283 9.53706 13.8322 9.53706M13.8322 8.53271C12.496 8.53271 11.1597 9.123 10.2627 10.3063L10.2344 10.3433V13.4933C10.2344 15.4801 11.845 17.0911 13.8322 17.0911C15.819 17.0911 17.4301 15.4805 17.4301 13.4933V10.3433C16.5353 9.13715 15.184 8.53271 13.8322 8.53271Z" fill="white"/>
<path d="M25.8293 12.2079H24.073V10.4517C24.073 10.1106 23.7964 9.83398 23.4553 9.83398H22.3168C21.9758 9.83398 21.6991 10.1106 21.6991 10.4517V12.2079H19.9429C19.6018 12.2079 19.3252 12.4845 19.3252 12.8256V13.9641C19.3252 14.3052 19.6018 14.5818 19.9429 14.5818H21.6991V16.3381C21.6991 16.6791 21.9758 16.9557 22.3168 16.9557H23.4553C23.7964 16.9557 24.073 16.6791 24.073 16.3381V14.5818H25.8293C26.1703 14.5818 26.4469 14.3052 26.4469 13.9641V12.8256C26.4469 12.4845 26.1703 12.2079 25.8293 12.2079Z" fill="white"/>
</svg>
