<svg width="155" height="64" viewBox="0 0 155 64" fill="none" xmlns="http://www.w3.org/2000/svg">
<path d="M77.466 9.94296C74.4156 10.8117 72.4078 13.1671 71.8479 16.5457C71.2494 20.2525 73.0835 24.0558 76.2497 25.6196C77.2923 26.1215 77.5433 26.1602 79.5897 26.1602C81.7134 26.1602 81.8678 26.1409 83.1034 25.5231C86.5206 23.8434 88.1617 19.8663 87.1963 15.6383C86.4241 12.2018 83.644 9.88504 80.111 9.73059C79.0684 9.67267 78.161 9.7499 77.466 9.94296ZM81.4624 11.6805C82.6787 12.0473 84.088 13.2636 84.7058 14.4799C86.0959 17.2214 85.5553 21.044 83.5089 23.0132C82.3891 24.0944 81.308 24.5191 79.5897 24.5191C77.8135 24.5191 76.5586 23.9979 75.4775 22.8009C74.184 21.3722 73.9137 20.5034 73.8944 17.955C73.8944 15.9086 73.933 15.6576 74.435 14.6344C75.7285 12.0087 78.5472 10.8117 81.4624 11.6805Z" fill="white"/>
<path d="M90.9225 9.98142C90.8453 10.0393 90.7874 13.6882 90.7874 18.09V26.0635H91.7527H92.718L92.7566 19.5959L92.8145 13.109L97.3128 19.5959L101.811 26.0635H102.873H103.916L103.877 17.9935L103.819 9.94281L102.912 9.88489L101.985 9.82697L101.946 16.3332L101.888 22.8586L97.3708 16.3525L92.8531 9.84628H91.9457C91.4438 9.84628 90.9804 9.9042 90.9225 9.98142Z" fill="white"/>
<path d="M108.105 9.98142C108.028 10.0393 107.97 13.6882 107.97 18.09V26.0635H113.588H119.187L119.129 25.2333L119.071 24.4225L114.592 24.3645L110.093 24.3259V21.43V18.5341L114.206 18.4955L118.299 18.4375V17.6653V16.893L114.206 16.8351L110.093 16.7965V14.1902V11.5838H114.534H118.974V10.7151V9.84628H113.607C110.653 9.84628 108.163 9.9042 108.105 9.98142Z" fill="white"/>
<path d="M72.6394 42.4541V50.582H73.6047H74.57V47.0876V43.6125L78.3733 47.0876L82.196 50.582H83.6439H85.0919L84.5127 50.0415C84.1845 49.7326 82.4083 48.1495 80.5549 46.5084L77.1957 43.5353L79.0104 43.4194C80.9797 43.3036 81.8291 43.0333 82.8524 42.1645C84.6285 40.678 84.7058 37.589 83.0261 35.9093C81.7905 34.6737 81.0183 34.5 76.5586 34.4035L72.6394 34.3262V42.4541ZM80.9025 36.5464C81.8871 37.087 82.3311 37.9365 82.2346 39.1528C82.1767 39.8864 82.0415 40.2918 81.694 40.6587C80.8059 41.624 80.2653 41.7591 77.3308 41.8556L74.57 41.9522V38.9983V36.0638L77.4273 36.141C79.6862 36.1989 80.4005 36.2762 80.9025 36.5464Z" fill="white"/>
<path d="M87.8916 42.4734V50.582H93.5097H99.1085L99.0506 49.7519L98.9927 48.941L94.4171 48.8831L89.8222 48.8445V45.9485V43.0526H93.973H98.1239V42.1838V41.3151H93.973H89.8222V38.7087V36.1024H94.3785H98.9154L98.8575 35.2722L98.7996 34.4614L93.3553 34.4034L87.8916 34.3648V42.4734Z" fill="white"/>
<path d="M101.405 35.2336V36.1024H104.205H107.004V43.3422V50.582H107.969H108.935V43.3422V36.1024H111.734H114.533V35.2336V34.3648H107.969H101.405V35.2336Z" fill="white"/>
<path d="M116.909 42.3383C115.171 46.7208 113.762 50.3697 113.762 50.4662C113.762 50.5434 114.167 50.582 114.669 50.5434L115.576 50.4855L116.465 48.1688L117.353 45.852L121.137 45.7941L124.921 45.7555L125.133 46.3733C125.249 46.7208 125.674 47.8212 126.04 48.7866L126.735 50.582H127.701C128.396 50.582 128.647 50.5048 128.589 50.3311C128.55 50.1766 127.141 46.5277 125.442 42.2225L122.353 34.3648H121.195H120.036L116.909 42.3383ZM124.11 43.96C124.071 43.9986 122.7 43.9986 121.059 43.9793L118.086 43.9214L119.38 40.5428C120.113 38.6894 120.789 36.8939 120.905 36.585C121.117 36.0252 121.195 36.1989 122.643 39.9636C123.492 42.1259 124.148 43.9407 124.11 43.96Z" fill="white"/>
<path d="M131.852 34.4807C131.775 34.5579 131.717 38.2068 131.717 42.6086V50.582H132.779H133.84L133.802 42.512L133.744 34.4614L132.875 34.4034C132.393 34.3648 131.929 34.4034 131.852 34.4807Z" fill="white"/>
<path d="M137.894 42.4734V50.582H143.107H148.32V49.7133V48.8445H144.072H139.825V41.6047V34.3648H138.86H137.894V42.4734Z" fill="white"/>
<path d="M27.5588 5.23248C25.8985 5.46416 23.4852 6.02404 22.0565 6.526C21.014 6.89281 20.9947 6.91212 21.516 7.10518C27.5202 9.47984 29.6632 10.9085 39.6252 19.0171C47.3862 25.3495 50.9772 27.8979 54.5874 29.6355C57.5799 31.0835 57.5799 31.0835 57.5799 30.1761C57.5799 29.0177 57.0586 26.1218 56.5181 24.2298C56.2478 23.2645 55.4755 21.3531 54.7805 19.9824C51.093 12.4723 44.3359 7.27894 36.0921 5.57999C33.814 5.11665 29.6246 4.94289 27.5588 5.23248Z" fill="white"/>
<path d="M11.5155 13.3797C10.5502 14.3836 9.21811 16.0053 8.58101 16.9707C7.40333 18.7275 5.91675 21.5848 6.10981 21.7586C6.14843 21.7972 6.88206 21.7393 7.71223 21.6041C8.63893 21.4304 10.7626 21.3532 13.2724 21.3532C20.5701 21.3918 23.6977 22.2606 36.7294 27.9945C39.4323 29.1915 42.695 30.5622 43.9692 31.0835C49.124 33.1299 54.3174 34.5586 56.6148 34.5586H57.5801V33.2265V31.8943L56.7692 31.7592C53.1976 31.1607 47.1934 27.9752 37.2121 21.4304C31.1306 17.4533 29.0263 16.1984 26.0531 14.7698C22.3849 13.0129 18.5623 11.9317 14.8941 11.6615L13.2724 11.5263L11.5155 13.3797Z" fill="white"/>
<path d="M16.4581 31.083C12.7899 31.4691 9.12177 32.5309 5.95555 34.114L4.2373 34.9635L4.37245 35.9674C4.66204 38.4772 6.12931 42.7053 7.55797 45.1379C8.9094 47.416 8.69703 47.3388 10.1064 46.0839C13.6587 42.8597 18.6397 40.3499 23.447 39.3846C27.3854 38.5738 31.6521 38.6703 40.3013 39.7707C48.4678 40.794 51.7498 40.9677 54.1631 40.4465C56.4026 39.9831 56.4412 39.9252 56.9432 37.8594C57.1749 36.8555 57.3486 36.006 57.31 35.9674C57.2907 35.9288 56.5764 36.006 55.7269 36.1219C53.97 36.3728 50.3791 36.2377 47.097 35.813C44.066 35.4268 40.8611 34.7897 33.6985 33.2259C24.4123 31.1795 20.3773 30.6775 16.4581 31.083Z" fill="white"/>
<path d="M53.3333 43.7478C50.9972 44.9448 47.9275 45.9101 41.0931 47.5897C31.4787 49.9644 28.6986 51.1034 26.1115 53.6712C25.2234 54.5399 24.4126 55.6018 24.0072 56.3354C23.6596 57.0111 23.4087 57.5903 23.4473 57.6289C23.4859 57.6675 24.4319 57.8992 25.5323 58.1309C28.409 58.7487 33.2548 58.7487 36.0928 58.1502C38.4289 57.6482 40.958 56.7795 42.8114 55.8335C47.58 53.4395 52.059 49.0763 54.4144 44.5393C54.8971 43.6126 55.206 42.8597 55.1287 42.879C55.0515 42.879 54.2406 43.2844 53.3333 43.7478Z" fill="white"/>
</svg>
