<svg width="113" height="48" viewBox="0 0 113 48" fill="none" xmlns="http://www.w3.org/2000/svg">
<path d="M16.0189 16.472C18.0376 16.7455 20.0711 17.4882 21.9172 18.2294C27.9534 20.6559 33.2899 23.8448 39.4143 25.5087C40.4819 25.7482 41.6552 25.9977 42.7682 25.9268C42.8257 25.3032 42.8565 24.6711 42.8578 24.0319C39.7448 23.628 36.1448 21.2001 33.9267 19.8664C28.7681 16.7001 24.2209 12.6098 18.7038 10.3945C16.6155 9.62353 14.4082 9.18274 12.1954 9.09912C9.98005 11.1245 8.22352 13.6955 7.10913 16.6151C10.063 16.0624 13.0945 16.0099 16.0189 16.472Z" fill="#1F40AE"/>
<path d="M19.1895 42.8637C20.8162 43.3583 22.5326 43.6276 24.3092 43.6276C31.8678 43.6276 38.3668 38.8343 41.2565 31.9632C36.1019 35.5079 25.7527 35.7913 21.7567 39.2921C20.5527 40.2984 19.7112 41.4917 19.1895 42.8623V42.8637Z" fill="#1F40AE"/>
<path d="M20.4751 23.7711C15.5533 22.7422 10.1674 23.5925 5.89844 26.3407C6.26901 29.6147 7.39945 32.6406 9.09846 35.2159C13.0704 30.981 18.5687 28.7317 24.1608 29.0874C27.9119 29.2207 31.2377 29.8684 34.518 30.2298C36.9073 30.4155 39.8291 30.8619 42.0458 29.7451C42.3067 28.8422 42.51 27.9125 42.6478 26.9601C36.724 28.3462 24.9166 24.3125 20.4764 23.7711H20.4751Z" fill="#1F40AE"/>
<path d="M25.0504 10.019C30.1675 14.0271 34.5782 18.666 40.0418 21.9796C40.9074 22.4573 41.8625 22.9661 42.8418 23.2467C42.4793 12.7317 34.3227 4.32422 24.3093 4.32422C21.9146 4.32422 19.6283 4.81036 17.5266 5.68625C18.1313 5.90168 18.7266 6.14121 19.3112 6.40199C21.3795 7.27506 23.2965 8.62859 25.0504 10.019Z" fill="#1F40AE"/>
<path d="M59.6097 23.1291C58.5622 23.1291 57.5963 22.9448 56.7133 22.5777C55.829 22.2106 55.0638 21.6905 54.415 21.0173C53.7661 20.3441 53.2631 19.5419 52.9033 18.6107C52.5434 17.6795 52.3628 16.6491 52.3628 15.5195C52.3628 14.0243 52.6705 12.7147 53.2859 11.5922C53.9013 10.4697 54.7561 9.5966 55.8491 8.97015C56.9421 8.34512 58.1889 8.03189 59.5909 8.03189C60.9929 8.03189 62.2746 8.34512 63.3622 8.97015C64.4485 9.59518 65.3033 10.4725 65.9254 11.6021C66.5475 12.7317 66.8579 14.0427 66.8579 15.5394C66.8579 16.6548 66.6773 17.6781 66.3174 18.6093C65.9575 19.5404 65.4532 20.3426 64.8043 21.0159C64.1568 21.6891 63.3903 22.2092 62.506 22.5763C61.6217 22.9434 60.6558 23.1276 59.6097 23.1276V23.1291ZM59.5896 20.6403C60.415 20.6403 61.1414 20.4234 61.7702 19.9883C62.399 19.5532 62.8926 18.9508 63.2525 18.1827C63.6124 17.4145 63.793 16.5202 63.793 15.4997C63.793 14.4792 63.6164 13.6161 63.2632 12.8677C62.91 12.1194 62.419 11.5426 61.7903 11.1344C61.1615 10.7262 60.4284 10.5221 59.5909 10.5221C58.7535 10.5221 58.0391 10.7262 57.4117 11.1344C56.7842 11.5426 56.2946 12.1166 55.9481 12.8578C55.6016 13.5991 55.4277 14.4792 55.4277 15.4997C55.4277 16.5202 55.6043 17.4343 55.9575 18.2025C56.3106 18.9707 56.8016 19.5688 57.4304 19.9982C58.0591 20.4263 58.7789 20.6403 59.5909 20.6403H59.5896Z" fill="black"/>
<path d="M69.0544 22.925V8.2374H72.7976L78.708 19.0373L78.8873 18.9296C78.7107 18.5923 78.617 18.2138 78.617 17.8283V8.2374H81.397V22.925H77.6552L70.8725 10.4782L71.8344 9.70715V22.925H69.0544Z" fill="black"/>
<path d="M83.9871 19.7204V8.2374H87.0118V22.925C85.3409 22.925 83.9871 21.4907 83.9871 19.7204ZM85.4011 10.644V8.2374H94.7751V10.644H85.4011ZM85.4011 16.6009V14.234H94.3242V16.6009H85.4011ZM87.0118 22.925V20.5184H95.0119V22.925H87.0118Z" fill="black"/>
<path d="M52.6799 39.8887V28.04H57.9402C58.7642 28.04 59.4693 28.1718 60.0552 28.4355C60.6412 28.6991 61.0907 29.0747 61.4024 29.5622C61.7141 30.0512 61.8693 30.6394 61.8693 31.331C61.8693 32.1545 61.6205 32.8121 61.1241 33.3053C60.6278 33.7986 59.8612 34.1557 58.8271 34.3754V33.9318C59.7355 33.9105 60.4378 34.1274 60.9342 34.5823C61.4305 35.0373 61.6793 35.6878 61.6793 36.5326V39.8902H60.288C59.7087 39.8902 59.2392 39.3927 59.2392 38.779V37.2072C59.2392 36.4617 59.0813 35.9104 58.7643 35.5532C58.4472 35.1974 57.9562 35.0189 57.2913 35.0189H53.6311V33.1594H57.6244C58.205 33.1594 58.6519 33.019 58.9636 32.7398C59.2753 32.4606 59.4305 32.068 59.4305 31.5635C59.4305 31.0589 59.2766 30.6564 58.9716 30.3871C58.6653 30.1178 58.2157 29.9846 57.6244 29.9846H55.1214V39.8916H52.6813L52.6799 39.8887Z" fill="black"/>
<path d="M63.6738 37.3036V28.04H66.114V39.8887C64.7668 39.8887 63.6738 38.7308 63.6738 37.3036ZM64.815 29.9818V28.04H72.3776V29.9818H64.815ZM64.815 34.7864V32.8773H72.0137V34.7864H64.815ZM66.114 39.8873V37.9456H72.5675V39.8873H66.114Z" fill="black"/>
<path d="M77.4948 39.8887V29.9818H73.7717V28.04H83.6581V29.9818H79.935V39.8887H77.4948Z" fill="black"/>
<path d="M82.834 39.8887L86.9223 28.04H89.0133L85.2581 39.8887H82.834ZM88.5785 35.2981H91.3892V37.2724H86.7136C86.7136 36.1825 87.5484 35.2981 88.5772 35.2981H88.5785ZM91.1993 39.8887L87.4601 28.04H89.6461L93.7344 39.8887H91.1993Z" fill="black"/>
<path d="M95.1458 39.8887V29.395C95.1458 28.6466 95.7183 28.04 96.4247 28.04H97.5859V39.8887H95.1458Z" fill="black"/>
<path d="M99.5403 37.3036V28.04H101.98V39.8887C100.633 39.8887 99.5403 38.7308 99.5403 37.3036ZM101.98 39.8887V37.947H106.6C107.076 37.947 107.463 38.3566 107.463 38.8612V39.8887H101.98Z" fill="black"/>
</svg>
