<svg width="32" height="32" viewBox="0 0 32 32" fill="none" xmlns="http://www.w3.org/2000/svg">
<rect width="32" height="32" rx="6" fill="#1F40AE"/>
<path d="M24.2983 14.822L22.466 14.2961C21.7551 14.0923 21.4186 13.2798 21.777 12.6332L22.701 10.9655L21.035 9.29946L19.3672 10.2235C18.7201 10.5818 17.9081 10.2453 17.7043 9.5344L17.1784 7.70215H14.8225L14.2716 9.62059C14.0805 10.2873 13.3183 10.6028 12.7115 10.2668L10.9655 9.29946L9.29946 10.9655L10.2235 12.6332C10.5818 13.2803 10.2453 14.0923 9.5344 14.2961L7.70215 14.822V17.178L9.5344 17.7038C10.2453 17.9077 10.5818 18.7201 10.2235 19.3668L9.29946 21.0345L10.9655 22.7005L12.6332 21.7765C13.2803 21.4182 14.0923 21.7546 14.2961 22.4656L14.822 24.2978H17.178L17.7038 22.4656C17.9077 21.7546 18.7201 21.4182 19.3668 21.7765L21.0345 22.7005L22.7005 21.0345L21.7765 19.3668C21.4182 18.7197 21.7546 17.9077 22.4656 17.7038L24.2978 17.178L24.2983 14.822ZM15.9998 20.8757C14.6536 20.8757 13.4347 20.3301 12.5523 19.4477C11.6698 18.5653 11.1243 17.346 11.1243 15.9998C11.1243 14.6536 11.6698 13.4347 12.5523 12.5523C13.4347 11.6698 14.6536 11.1238 15.9998 11.1238C18.6926 11.1238 20.8757 13.307 20.8757 15.9998C20.8757 18.6926 18.6926 20.8757 15.9998 20.8757Z" stroke="white" stroke-miterlimit="10"/>
<path d="M24.2983 14.822L22.466 14.2961C21.7551 14.0923 21.4186 13.2798 21.777 12.6332L22.701 10.9655L21.035 9.29946L19.3672 10.2235C18.7201 10.5818 17.9081 10.2453 17.7043 9.5344L17.1784 7.70215H14.8225L14.2716 9.62059C14.0805 10.2873 13.3183 10.6028 12.7115 10.2668L10.9655 9.29946L9.29946 10.9655L10.2235 12.6332C10.5818 13.2803 10.2453 14.0923 9.5344 14.2961L7.70215 14.822V17.178L9.5344 17.7038C10.2453 17.9077 10.5818 18.7201 10.2235 19.3668L9.29946 21.0345L10.9655 22.7005L12.6332 21.7765C13.2803 21.4182 14.0923 21.7546 14.2961 22.4656L14.822 24.2978H17.178L17.7038 22.4656C17.9077 21.7546 18.7201 21.4182 19.3668 21.7765L21.0345 22.7005L22.7005 21.0345L21.7765 19.3668C21.4182 18.7197 21.7546 17.9077 22.4656 17.7038L24.2978 17.178V14.822H24.2983ZM15.9998 19.7802C14.9559 19.7802 14.0113 19.3571 13.3271 18.6733C12.6433 17.9895 12.2202 17.0445 12.2202 16.0006C12.2202 14.9568 12.6433 14.0122 13.3271 13.328C14.0109 12.6441 14.9559 12.2211 15.9998 12.2211C18.0875 12.2211 19.7798 13.9133 19.7798 16.0011C19.7798 18.0888 18.0875 19.7811 15.9998 19.7811V19.7802Z" stroke="white" stroke-linecap="round" stroke-linejoin="round"/>
</svg>
