<svg width="28" height="28" viewBox="0 0 28 28" fill="none" xmlns="http://www.w3.org/2000/svg">
<path d="M25.6174 12.3506L23.0522 11.6144C22.0569 11.329 21.5859 10.1916 22.0876 9.2863L23.3812 6.95145L21.0488 4.61905L18.7139 5.91265C17.808 6.41429 16.6712 5.94328 16.3858 4.94796L15.6496 2.38281H12.3513L11.5801 5.06862C11.3125 6.00207 10.2455 6.44369 9.39594 5.97329L6.95145 4.61905L4.61905 6.95145L5.91265 9.2863C6.41429 10.1922 5.94328 11.329 4.94796 11.6144L2.38281 12.3506V15.649L4.94796 16.3852C5.94328 16.6706 6.41429 17.808 5.91265 18.7133L4.61905 21.0481L6.95145 23.3805L9.2863 22.0869C10.1922 21.5853 11.329 22.0563 11.6144 23.0516L12.3506 25.6168H15.649L16.3852 23.0516C16.6706 22.0563 17.808 21.5853 18.7133 22.0869L21.0481 23.3805L23.3805 21.0481L22.0869 18.7133C21.5853 17.8074 22.0563 16.6706 23.0516 16.3852L25.6168 15.649L25.6174 12.3506ZM13.9995 20.8258C12.1148 20.8258 10.4084 20.062 9.17299 18.8266C7.93758 17.5912 7.17379 15.8841 7.17379 13.9995C7.17379 12.1148 7.93758 10.4084 9.17299 9.17299C10.4084 7.93757 12.1148 7.17317 13.9995 7.17317C17.7694 7.17317 20.8258 10.2295 20.8258 13.9995C20.8258 17.7694 17.7694 20.8258 13.9995 20.8258Z" stroke="white" stroke-width="1.5" stroke-miterlimit="10"/>
<path d="M25.6174 12.3506L23.0522 11.6144C22.0569 11.329 21.5859 10.1916 22.0875 9.2863L23.3812 6.95145L21.0488 4.61905L18.7139 5.91265C17.808 6.41429 16.6712 5.94328 16.3858 4.94796L15.6496 2.38281H12.3513L11.5801 5.06862C11.3125 6.00207 10.2455 6.44369 9.39594 5.97329L6.95145 4.61905L4.61905 6.95145L5.91265 9.2863C6.41429 10.1922 5.94328 11.329 4.94796 11.6144L2.38281 12.3506V15.649L4.94796 16.3852C5.94328 16.6706 6.41429 17.808 5.91265 18.7133L4.61905 21.0481L6.95145 23.3805L9.2863 22.0869C10.1922 21.5853 11.329 22.0563 11.6144 23.0516L12.3506 25.6168H15.649L16.3852 23.0516C16.6706 22.0563 17.808 21.5853 18.7133 22.0869L21.0481 23.3805L23.3805 21.0481L22.0869 18.7133C21.5853 17.8074 22.0563 16.6706 23.0516 16.3852L25.6168 15.649V12.3506H25.6174ZM13.9995 19.2921C12.5381 19.2921 11.2157 18.6998 10.2577 17.7425C9.30039 16.7851 8.7081 15.4621 8.7081 14.0007C8.7081 12.5393 9.30039 11.2169 10.2577 10.259C11.2151 9.30161 12.5381 8.70932 13.9995 8.70932C16.9223 8.70932 19.2915 11.0785 19.2915 14.0013C19.2915 16.9242 16.9223 19.2933 13.9995 19.2933V19.2921Z" stroke="#1F88AE" stroke-width="1.5" stroke-linecap="round" stroke-linejoin="round"/>
</svg>
