<svg width="32" height="32" viewBox="0 0 32 32" fill="none" xmlns="http://www.w3.org/2000/svg">
<rect width="32" height="32" rx="6" fill="#1F40AE"/>
<path d="M16.6206 17.1709H7.59766L8.12875 18.3334C8.29 18.6859 8.64156 18.9123 9.02922 18.9123H22.8409C23.2286 18.9123 23.5806 18.6864 23.7414 18.3334L24.2725 17.1709H16.6202H16.6206Z" fill="white"/>
<path d="M21.6869 8.96729L23.3678 16.532H8.5042L10.1851 8.96729H21.6864M21.7919 7.93604H10.0797C9.65826 7.93604 9.29311 8.229 9.2017 8.64057L7.46217 16.4687C7.33748 17.0303 7.76498 17.5632 8.34014 17.5632H23.5319C24.1075 17.5632 24.535 17.0303 24.4098 16.4687L22.6703 8.64057C22.5789 8.229 22.2137 7.93604 21.7923 7.93604H21.7919Z" fill="white"/>
<path d="M18.9859 18.9126H12.4258V22.3045H18.9859V18.9126Z" fill="white"/>
<path d="M24.411 22.3042H7.46289V23.9973H24.411V22.3042Z" fill="white"/>
</svg>
