<svg width="24" height="24" viewBox="0 0 24 24" fill="none" xmlns="http://www.w3.org/2000/svg">
<path d="M2.1709 2.83158V18.945C2.1709 21.3688 4.13571 23.3341 6.56009 23.3341H17.4552C19.879 23.3341 21.8443 21.3693 21.8443 18.945V2.83158L19.5904 2.33152C14.596 1.22283 9.41984 1.22283 4.4254 2.33152L2.17146 2.83158H2.1709ZM17.445 21.1505H6.56965C5.34621 21.1505 4.35396 20.1588 4.35396 18.9348V5.04727C9.35346 3.59995 14.6606 3.59995 19.6602 5.04727V18.9348C19.6602 20.1583 18.6685 21.1505 17.4445 21.1505H17.445Z" fill="#B4BFE4"/>
<path d="M17.4761 13.748H6.53713C5.93413 13.748 5.44531 14.2369 5.44531 14.8399C5.44531 15.4429 5.93413 15.9317 6.53713 15.9317H17.4761C18.0791 15.9317 18.5679 15.4429 18.5679 14.8399C18.5679 14.2369 18.0791 13.748 17.4761 13.748Z" fill="#1F40AE"/>
</svg>
