<svg width="22" height="19" viewBox="0 0 22 19" fill="none" xmlns="http://www.w3.org/2000/svg">
<path d="M2.351 15.57L4.52225 9.91797H12.4569L10.5466 14.8905C10.1816 15.84 10.883 16.8603 11.9 16.8603H16.8101V18.8437H4.601C2.91013 18.8437 1.74463 17.1478 2.351 15.5688V15.57Z" fill="#6A80C9"/>
<path d="M2.34014 0.312012L1.28264 1.87014C1.03458 2.2352 0.936703 2.68126 1.00814 3.1172L2.38739 11.5142C2.51508 12.2916 3.1867 12.8619 3.97477 12.8619H19.2123C19.7968 12.8619 20.3165 12.4901 20.5055 11.9366L20.919 10.7239L4.23464 10.635L2.3407 0.313137L2.34014 0.312012Z" fill="#6A80C9"/>
<path d="M4.55756 18.8447H18.7944V16.8613H2.22656L2.25413 16.9873C2.48925 18.0713 3.44831 18.8447 4.55756 18.8447Z" fill="#1F40AE"/>
<path d="M20.2451 11.1212H4.52887C4.15312 11.1212 3.83193 10.8495 3.77006 10.4788L2.20012 0.8955C2.12193 0.426937 2.48362 0 2.95893 0H18.6752C19.0509 0 19.3721 0.271687 19.434 0.642375L21.0039 10.2257C21.0821 10.6943 20.7204 11.1212 20.2451 11.1212Z" fill="#B4BFE4"/>
</svg>
