<svg width="24" height="24" viewBox="0 0 24 24" fill="none" xmlns="http://www.w3.org/2000/svg">
<path d="M7.08984 9.70273C8.48675 9.44909 12.0169 9.54837 13.4182 9.92909C14.4731 15.8538 14.4731 22.0044 14.4731 22.0044H7.08984V9.70218V9.70273Z" fill="#B4BFE4"/>
<path d="M10.2904 8.66615C8.57223 8.66615 7.17969 7.27361 7.17969 5.55543L7.22714 2.83197L7.25169 2.79979C8.81169 0.742335 11.9099 0.758154 13.4486 2.83197L13.4011 5.55543C13.4011 7.27361 12.0086 8.66615 10.2904 8.66615Z" fill="#1F40AE"/>
<path d="M13.4185 9.92828L13.448 22.0036H21.8562V20.9486C21.8562 20.9486 21.8496 20.9459 21.836 20.941C19.4496 20.0186 17.6496 18.0266 16.9411 15.5683C16.1065 12.6741 14.8198 10.309 14.8198 10.309L13.418 9.92773L13.4185 9.92828Z" fill="#B4BFE4"/>
<path d="M7.08984 12.0908L7.10839 22.0045H14.4731C14.4731 22.0045 14.4731 16.6508 13.7586 12.0908H7.08984Z" fill="#1F40AE"/>
<path d="M7.0901 15.7069V9.70312C7.0901 9.70312 4.96392 10.0795 4.00992 10.2829C4.00992 10.2829 2.62119 14.0231 2.91083 18.6082C2.91137 18.6186 2.91192 18.6289 2.91301 18.6388C3.03628 20.5359 4.62628 22.0053 6.52774 22.0053H13.4485L13.2134 20.6237C8.18865 20.2086 7.09065 17.9673 7.09065 15.7069H7.0901Z" fill="#B4BFE4"/>
<path d="M7.08984 12.0909V9.7024C7.08984 9.7024 7.88184 9.57422 8.55657 9.57422C8.68639 10.8326 8.78348 12.0909 8.78348 12.0909H7.09039H7.08984Z" fill="#1F40AE"/>
<path d="M13.7577 12.0912C13.6126 11.0188 13.4179 9.92954 13.4179 9.92954C12.975 9.8139 12.5228 9.73699 12.0663 9.69936L11.9932 9.69336V12.0912H13.7577Z" fill="#1F40AE"/>
</svg>
