<svg width="24" height="24" viewBox="0 0 24 24" fill="none" xmlns="http://www.w3.org/2000/svg">
<path d="M11.6098 7.37413C10.0589 7.37413 8.80176 6.11694 8.80176 4.56613V2.10801L8.82369 2.07932C10.2316 0.221946 13.0289 0.23657 14.4172 2.10801V4.56613C14.4172 6.11694 13.16 7.37413 11.6092 7.37413H11.6098Z" fill="#1F40AE"/>
<path d="M17.6538 12.4771H7.44727V22.6836H17.6538V12.4771Z" fill="#B4BFE4"/>
<path d="M17.6536 11.4682C17.6536 10.1868 16.7811 9.06971 15.538 8.75864L15.5341 8.75752C11.9622 7.86427 8.18838 8.27883 4.89551 9.92527V12.4768H17.6536V11.4676V11.4682Z" fill="#B4BFE4"/>
<path d="M4.89535 9.92586L3.60666 12.497C2.02098 15.6605 1.72623 19.31 2.76798 22.6839H3.7411C4.53704 22.6839 5.15579 21.9982 5.08041 21.2057C4.88241 19.1317 5.25704 16.6961 7.44685 15.0289C9.45554 10.6177 4.89535 9.92529 4.89535 9.92529V9.92586Z" fill="#B4BFE4"/>
<path d="M20.1839 11.4517H12.6869C12.0653 11.4517 11.5349 11.9012 11.4331 12.5143L9.73828 22.6922L19.0977 22.6832L20.3324 22.6922L21.823 13.8193C21.877 13.497 21.8275 13.1662 21.6813 12.8737L21.3213 12.1537C21.1058 11.7234 20.666 11.4512 20.1845 11.4512L20.1839 11.4517Z" fill="#6A80C9"/>
<path d="M20.3456 22.6853L21.7805 14.0757C21.8463 13.682 21.5426 13.3242 21.1438 13.3242H13.7165C13.4009 13.3242 13.1315 13.5526 13.0798 13.8637L11.6094 22.6927L20.3456 22.6853Z" fill="#1F40AE"/>
</svg>
