<svg width="24" height="24" viewBox="0 0 24 24" fill="none" xmlns="http://www.w3.org/2000/svg">
<path d="M5.6377 13.9261V18.6526C10.7112 20.6101 16.2807 19.5546 20.3472 14.9756V14.3056C20.3472 13.7816 19.7617 13.4731 19.3282 13.7676C14.2042 17.2476 7.9167 16.4676 5.6377 13.9261Z" fill="#B4BFE4"/>
<path d="M8.22401 14.6643L5.35401 19.0923C5.14051 19.4218 4.64301 19.3673 4.50551 18.9998L2.82201 14.4958C2.71901 14.2203 2.92251 13.9268 3.21701 13.9268H7.82301C8.20201 13.9268 8.43001 14.3463 8.22401 14.6643Z" fill="#B4BFE4"/>
<path d="M18.3766 10.0604V5.33387C13.3031 3.37637 8.64658 4.48437 4.58008 9.06337V9.72537C4.58008 10.2524 5.17158 10.5594 5.60458 10.2599C10.6226 6.78687 16.1001 7.52187 18.3766 10.0604Z" fill="#1F40AE"/>
<path d="M15.7905 9.32278L18.6605 4.89478C18.874 4.56528 19.3715 4.61978 19.509 4.98728L21.1925 9.49128C21.2955 9.76678 21.092 10.0603 20.7975 10.0603H16.1915C15.8125 10.0603 15.5845 9.64078 15.7905 9.32278Z" fill="#1F40AE"/>
</svg>
