<svg width="32" height="32" viewBox="0 0 32 32" fill="none" xmlns="http://www.w3.org/2000/svg">
<rect width="32" height="32" rx="6" fill="#1F40AE"/>
<path d="M19.3212 9.46025C21.2812 9.95812 22.5495 10.5404 23.9648 11.59V14.8782C23.9648 15.6561 23.6161 16.3811 23.0085 16.8671L19.3916 19.7607L17.4649 21.3025L13.996 18.5279C13.7606 18.3393 13.7256 18.0943 13.7256 17.9648C13.7256 17.8353 13.7606 17.5899 13.996 17.4017C14.1412 17.2854 14.2458 17.1257 14.2943 16.9454L14.6225 15.7235C14.7222 15.4868 14.7235 15.2221 14.6198 14.9819C14.3923 14.4543 13.81 14.3432 13.5305 14.2894C13.2553 14.2369 12.9175 14.1971 12.5911 14.159C12.3444 14.1301 11.9712 14.0864 11.7428 14.0426L11.2778 13.2538C11.5044 13.1282 11.7345 13.0001 11.9288 12.8749C11.9913 12.8347 12.0718 12.7831 12.1563 12.7179C14.3477 12.7183 16.4289 12.7227 16.4508 12.7227H16.4525C16.729 12.7227 16.9893 12.5919 17.1543 12.3705L19.3208 9.46068M18.9646 8.47412L16.4525 11.8481C16.4525 11.8481 14.1281 11.8433 11.7752 11.8433C11.7752 12.1041 9.8629 12.9226 10.1123 13.0014L11.147 14.7562C11.5079 15.0581 14.0813 15.0336 13.8004 15.4111L13.4491 16.7192C12.6511 17.358 12.6511 18.5725 13.4491 19.2117L17.4649 22.4238L19.9381 20.445L23.5549 17.5514C24.3669 16.9021 24.8398 15.9182 24.8398 14.8791V11.1573C22.9542 9.68818 21.3958 9.0385 18.9646 8.47456V8.47412Z" fill="white"/>
<path d="M20.5145 17.3387L18.569 15.0724L13.2564 14.2145L12.5512 13.2713L13.5128 12.3096L16.1194 12.2943L12.8815 8.47363C10.4503 9.03713 8.89148 9.68682 7.00586 11.1555V14.8773C7.00586 15.9173 7.47836 16.9003 8.29036 17.55L8.9593 18.0855L10.6362 16.9471L15.9995 21.0347L15.2488 23.1163L15.9234 23.6553C17.4105 22.4968 19.0695 21.1659 20.2555 20.2083C21.1367 19.4964 21.2539 18.1966 20.515 17.3383L20.5145 17.3387Z" fill="white"/>
<path d="M11.0602 17.9097C11.3586 17.9097 11.6522 18.0108 11.8875 18.1941L14.4425 20.1852C14.772 20.442 14.961 20.8287 14.961 21.2465V21.6534L10.281 17.9093H11.0602M11.0602 16.9468H9.35921C8.75503 16.9468 8.48815 17.7076 8.95978 18.0852L15.923 23.6558V21.2461C15.923 20.5347 15.5949 19.8627 15.0336 19.4257L12.4786 17.4346C12.073 17.1187 11.5738 16.9468 11.0598 16.9468H11.0602Z" fill="white"/>
<path d="M21.2696 18.205L18.5698 15.0725L13.7441 14.2024C13.2865 14.1197 12.9531 13.7211 12.9531 13.256C12.9531 12.7249 13.3836 12.2944 13.9147 12.2944H16.6784L17.4047 11.3057" stroke="white" stroke-linecap="round" stroke-linejoin="round"/>
</svg>
