<svg width="24" height="24" viewBox="0 0 24 24" fill="none" xmlns="http://www.w3.org/2000/svg">
<path d="M8.15105 18.9709C7.62342 18.9709 7.19423 18.5417 7.19423 18.0135L7.18073 3.40261C10.3937 2.87723 13.6405 2.87667 16.8535 3.40261L16.8642 14.899C17.2107 14.9637 17.556 15.0396 17.898 15.1296C18.4133 15.2652 18.7727 15.7275 18.7896 16.2574L18.7767 1.80005L17.9954 1.65098C14.028 0.894984 10.005 0.894984 6.0383 1.65098L5.25586 1.80005L5.27048 18.0141C5.27048 19.6026 6.56255 20.8947 8.15161 20.8947H10.405L9.76373 18.9704H8.15217L8.15105 18.9709Z" fill="#B4BFE4"/>
<path d="M18.5938 19.0577C18.6281 18.9694 18.6584 18.8794 18.6838 18.7871L18.5938 19.0577Z" fill="#B4BFE4"/>
<path d="M15.9106 20.8943H10.4043L11.126 23.06C13.0475 24.0623 15.3369 24.0623 17.2584 23.06L18.5926 19.0566C18.1735 20.1305 17.1307 20.8943 15.9106 20.8943Z" fill="#1F40AE"/>
<path d="M13.2849 13.8387L12.5868 10.3478C11.7875 9.55637 10.8273 10.1099 10.8273 10.8878V15.0452C10.7126 15.0722 10.5984 15.1009 10.4847 15.1307C9.95769 15.2686 9.59375 15.7506 9.59375 16.2957V18.4613L9.76362 18.9704H15.9118C16.4394 18.9704 16.868 18.5412 16.868 18.0136L16.8652 14.8984C16.0046 14.7381 15.1338 14.6549 14.2619 14.6509C13.7855 14.6487 13.3788 14.3056 13.2854 13.8387H13.2849Z" fill="#6A80C9"/>
<path d="M18.7917 16.2951C18.7917 16.2821 18.7906 16.2698 18.79 16.2568L18.7917 18.0113V16.2951Z" fill="#1F40AE"/>
<path d="M18.7924 18.0135V18.0118L18.7907 16.2574C18.7738 15.7275 18.4144 15.2651 17.8991 15.1296C17.5565 15.0396 17.2117 14.9636 16.8652 14.8989L16.868 18.0141C16.868 18.5417 16.4389 18.9709 15.9118 18.9709H9.76367L10.4049 20.8952H15.9112C17.1313 20.8952 18.1742 20.1313 18.5932 19.0575L18.6832 18.7869C18.7519 18.5406 18.7918 18.2818 18.7918 18.0135H18.7924Z" fill="#6A80C9"/>
</svg>
