<svg width="104" height="104" viewBox="0 0 104 104" fill="none" xmlns="http://www.w3.org/2000/svg">
<g filter="url(#filter0_d_1309_30182)">
<circle cx="52" cy="50" r="40" fill="#46DD80"/>
<g clip-path="url(#clip0_1309_30182)">
<path d="M66.0564 35.8087C62.2988 32.0651 57.3 30.0021 51.9799 30C46.6716 30 41.6649 32.0612 37.8826 35.8038C34.0935 39.5529 32.0049 44.5352 32 49.8148V49.8209V49.8245C32.0006 53.02 32.8401 56.2436 34.4338 59.1861L32.0546 70L42.993 67.5119C45.7634 68.9081 48.8546 69.6442 51.9722 69.6454H51.9802C57.2875 69.6454 62.2942 67.5839 66.0771 63.8409C69.8696 60.0888 71.9591 55.1129 71.9615 49.83C71.9631 44.5844 69.8662 39.6048 66.0564 35.8087ZM51.9799 66.5234H51.9728C49.1735 66.5222 46.3997 65.8194 43.9519 64.4904L43.4346 64.2096L36.1611 65.864L37.741 58.6838L37.4364 58.1586C35.9221 55.5472 35.1219 52.6645 35.1219 49.8212C35.1277 40.618 42.6894 33.1219 51.9792 33.1219C56.4672 33.1238 60.6841 34.8636 63.853 38.0203C67.0699 41.2259 68.8408 45.4196 68.8393 49.8291C68.8356 59.0344 61.2725 66.5234 51.9799 66.5234Z" fill="white"/>
<path d="M46.5432 41.0831H45.6673C45.3624 41.0831 44.8674 41.1972 44.4487 41.6528C44.0297 42.1088 42.849 43.2108 42.849 45.452C42.849 47.6932 44.4869 49.8587 44.7151 50.163C44.9437 50.4669 47.8768 55.213 52.5222 57.0389C56.3829 58.5562 57.1688 58.2544 58.0065 58.1784C58.8445 58.1027 60.7106 57.0767 61.0915 56.0132C61.4724 54.9496 61.4724 54.0378 61.3582 53.8474C61.2438 53.6575 60.9389 53.5437 60.4821 53.316C60.0249 53.0881 57.7849 51.9675 57.3659 51.8152C56.9469 51.6635 56.6423 51.5875 56.3375 52.0438C56.0326 52.4991 55.1351 53.5526 54.8683 53.8565C54.6019 54.1608 54.3352 54.1989 53.8781 53.9709C53.4209 53.7424 51.964 53.2529 50.2181 51.7014C48.8591 50.4938 47.9161 48.9539 47.6494 48.4979C47.383 48.0423 47.621 47.7957 47.8502 47.5684C48.0556 47.3645 48.333 47.0856 48.5616 46.8198C48.7899 46.5537 48.8549 46.3638 49.0074 46.0599C49.1597 45.7559 49.0834 45.4898 48.9693 45.2621C48.8549 45.0342 47.9778 42.7817 47.5713 41.8808H47.5716C47.2292 41.1221 46.8688 41.0965 46.5432 41.0831Z" fill="white"/>
</g>
</g>
<defs>
<filter id="filter0_d_1309_30182" x="0" y="0" width="104" height="104" filterUnits="userSpaceOnUse" color-interpolation-filters="sRGB">
<feFlood flood-opacity="0" result="BackgroundImageFix"/>
<feColorMatrix in="SourceAlpha" type="matrix" values="0 0 0 0 0 0 0 0 0 0 0 0 0 0 0 0 0 0 127 0" result="hardAlpha"/>
<feOffset dy="2"/>
<feGaussianBlur stdDeviation="6"/>
<feComposite in2="hardAlpha" operator="out"/>
<feColorMatrix type="matrix" values="0 0 0 0 0.641667 0 0 0 0 0.641667 0 0 0 0 0.641667 0 0 0 0.25 0"/>
<feBlend mode="normal" in2="BackgroundImageFix" result="effect1_dropShadow_1309_30182"/>
<feBlend mode="normal" in="SourceGraphic" in2="effect1_dropShadow_1309_30182" result="shape"/>
</filter>
<clipPath id="clip0_1309_30182">
<rect width="40" height="40" fill="white" transform="translate(32 30)"/>
</clipPath>
</defs>
</svg>
