<svg width="59" height="59" viewBox="0 0 59 59" fill="none" xmlns="http://www.w3.org/2000/svg">
<g clip-path="url(#clip0_781_32484)">
<path d="M44.3988 4.95246L56.3451 20.1405C57.0719 21.0644 56.3194 22.404 55.1513 22.2645L41.5841 20.6436C40.8603 20.5572 40.346 19.9033 40.4325 19.1796L42.0533 5.61239C42.1929 4.44423 43.6721 4.02853 44.3988 4.95246Z" fill="#D2D9EF"/>
<path d="M34.4275 12.7956L46.3738 27.9836C47.1006 28.9075 46.3481 30.2472 45.1799 30.1076L31.6128 28.4868C30.889 28.4003 30.3747 27.7465 30.4612 27.0227L32.082 13.4555C32.2216 12.2874 33.7008 11.8717 34.4275 12.7956Z" fill="#D2D9EF"/>
<path d="M24.3353 20.7337L36.2817 35.9217C37.0084 36.8457 36.2559 38.1853 35.0878 38.0457L21.5206 36.4249C20.7969 36.3384 20.2826 35.6846 20.369 34.9608L21.9899 21.3936C22.1294 20.2255 23.6086 19.8098 24.3353 20.7337Z" fill="#D2D9EF"/>
<path d="M14.2218 28.6886L26.1681 43.8766C26.8949 44.8006 26.1424 46.1402 24.9743 46.0006L11.4071 44.3798C10.6833 44.2933 10.169 43.6395 10.2555 42.9157L11.8763 29.3485C12.0159 28.1804 13.4951 27.7647 14.2218 28.6886Z" fill="#D2D9EF"/>
<path d="M4.12257 36.6323L16.0689 51.8203C16.7956 52.7443 16.0432 54.0839 14.875 53.9444L1.30784 52.3235C0.584085 52.237 0.0697844 51.5832 0.15625 50.8594L1.77709 37.2923C1.91665 36.1241 3.39584 35.7084 4.12257 36.6323Z" fill="#D2D9EF"/>
</g>
<defs>
<clipPath id="clip0_781_32484">
<rect width="52.5382" height="52.5382" fill="white" transform="translate(52.1672 58.3996) rotate(-173.187)"/>
</clipPath>
</defs>
</svg>
