<svg width="169" height="105" viewBox="0 0 169 105" fill="none" xmlns="http://www.w3.org/2000/svg">
<g clip-path="url(#clip0_781_32476)">
<path d="M29.5265 137.679C33.4602 141.608 33.4649 147.984 29.5265 151.913L164.423 17.1829C168.362 13.2494 168.362 6.87786 164.423 2.94901C160.49 -0.979845 154.105 -0.984533 150.172 2.94901L15.2703 137.679C19.204 133.75 25.5881 133.75 29.5218 137.679H29.5265Z" fill="#D2D9EF"/>
<path d="M1.58199 136.099L13.5428 124.153C15.7068 121.991 15.7068 118.485 13.5428 116.318C11.3787 114.157 11.3787 110.65 13.5428 108.484L102.521 19.6162C104.685 17.4548 108.196 17.4548 110.365 19.6162C112.529 21.7775 112.529 25.2844 110.365 27.4504L93.9119 43.8832C91.8042 45.9883 91.8042 49.4061 93.9119 51.5112C96.0196 53.6162 99.4416 53.6162 101.549 51.5112L9.21942 143.727C7.11174 145.832 3.68968 145.832 1.58199 143.727C-0.525701 141.622 -0.525701 138.204 1.58199 136.099Z" fill="#D2D9EF"/>
<path d="M144.665 54.9195L55.0112 144.463C58.161 141.317 63.273 141.317 66.4228 144.463C69.5726 147.609 69.5726 152.714 66.4228 155.86L156.077 66.317C159.227 63.1711 159.227 58.0654 156.077 54.9195C152.927 51.7736 147.815 51.7736 144.665 54.9195Z" fill="#D2D9EF"/>
<path d="M62.7472 173.887L67.1785 169.461C69.2158 167.426 72.5205 167.426 74.5578 169.461C76.595 171.496 79.8997 171.496 81.937 169.461L167.474 84.0297C169.512 81.9949 169.512 78.6943 167.474 76.6595C165.437 74.6248 162.132 74.6248 160.095 76.6595L144.614 92.1218C142.628 94.105 139.413 94.105 137.427 92.1218C135.441 90.1386 135.441 86.9271 137.427 84.9439L55.5604 166.709C53.5748 168.692 53.5748 171.904 55.5604 173.887C57.546 175.87 60.7616 175.87 62.7472 173.887Z" fill="#D2D9EF"/>
<path d="M129.564 61.0004C127.076 58.5155 127.076 54.4836 129.564 51.9987L15.289 166.132C12.8011 168.617 12.8011 172.649 15.289 175.134C17.777 177.619 21.8139 177.619 24.3019 175.134L138.577 61.0004C136.089 63.4852 132.052 63.4852 129.564 61.0004Z" fill="#D2D9EF"/>
</g>
<defs>
<clipPath id="clip0_781_32476">
<rect width="169" height="177" fill="white"/>
</clipPath>
</defs>
</svg>
