<svg width="110" height="177" viewBox="0 0 110 177" fill="none" xmlns="http://www.w3.org/2000/svg">
<g clip-path="url(#clip0_781_32468)">
<path d="M-29.4737 137.679C-25.54 141.608 -25.5353 147.984 -29.4737 151.913L105.423 17.1829C109.361 13.2494 109.361 6.87786 105.423 2.94901C101.489 -0.979845 95.1052 -0.984533 91.1715 2.94901L-43.73 137.679C-39.7963 133.75 -33.4122 133.75 -29.4784 137.679H-29.4737Z" fill="#D2D9EF"/>
<path d="M-57.4183 136.099L-45.4575 124.153C-43.2935 121.991 -43.2935 118.485 -45.4575 116.318C-47.6215 114.157 -47.6215 110.65 -45.4575 108.484L43.5208 19.6162C45.6848 17.4548 49.196 17.4548 51.3648 19.6162C53.5288 21.7775 53.5288 25.2844 51.3648 27.4504L34.9116 43.8832C32.804 45.9883 32.804 49.4061 34.9116 51.5112C37.0193 53.6162 40.4414 53.6162 42.5491 51.5112L-49.7808 143.727C-51.8885 145.832 -55.3106 145.832 -57.4183 143.727C-59.5259 141.622 -59.5259 138.204 -57.4183 136.099Z" fill="#D2D9EF"/>
<path d="M85.6652 54.9195L-3.98901 144.463C-0.839216 141.317 4.27275 141.317 7.42255 144.463C10.5723 147.609 10.5723 152.714 7.42255 155.86L97.0768 66.317C100.227 63.1711 100.227 58.0654 97.0768 54.9195C93.927 51.7736 88.815 51.7736 85.6652 54.9195Z" fill="#D2D9EF"/>
<path d="M3.74707 173.887L8.17838 169.461C10.2157 167.426 13.5204 167.426 15.5576 169.461C17.5949 171.496 20.8996 171.496 22.9369 169.461L108.474 84.0297C110.512 81.9949 110.512 78.6943 108.474 76.6595C106.437 74.6248 103.132 74.6248 101.095 76.6595L85.6136 92.1218C83.628 94.105 80.4125 94.105 78.4268 92.1218C76.4412 90.1386 76.4412 86.9271 78.4268 84.9439L-3.43973 166.709C-5.42536 168.692 -5.42536 171.904 -3.43973 173.887C-1.45409 175.87 1.76143 175.87 3.74707 173.887Z" fill="#D2D9EF"/>
<path d="M70.564 61.0004C68.0761 58.5155 68.0761 54.4836 70.564 51.9987L-43.7112 166.132C-46.1991 168.617 -46.1991 172.649 -43.7112 175.134C-41.2233 177.619 -37.1863 177.619 -34.6984 175.134L79.5768 61.0004C77.0889 63.4852 73.0519 63.4852 70.564 61.0004Z" fill="#D2D9EF"/>
</g>
<defs>
<clipPath id="clip0_781_32468">
<rect width="169" height="177" fill="white" transform="translate(-59)"/>
</clipPath>
</defs>
</svg>
