<svg width="57" height="57" viewBox="0 0 57 57" fill="none" xmlns="http://www.w3.org/2000/svg">
<g clip-path="url(#clip0_781_32490)">
<path d="M15.1879 56.3566L0.421562 41.5903C-0.476715 40.692 0.158989 39.158 1.4304 39.158H16.1967C16.9844 39.158 17.6201 39.7937 17.6201 40.5814V55.3477C17.6201 56.6192 16.0861 57.2549 15.1879 56.3566Z" fill="#D2D9EF"/>
<path d="M24.8822 46.6621L10.1159 31.8958C9.21762 30.9975 9.85332 29.4635 11.1247 29.4635H25.891C26.6788 29.4635 27.3145 30.0992 27.3145 30.8869V45.6532C27.3145 46.9246 25.7805 47.5603 24.8822 46.6621Z" fill="#D2D9EF"/>
<path d="M34.6942 36.8501L19.9279 22.0838C19.0296 21.1855 19.6653 19.6516 20.9367 19.6516H35.703C36.4908 19.6516 37.1265 20.2873 37.1265 21.075V35.8413C37.1265 37.1127 35.5925 37.7484 34.6942 36.8501Z" fill="#D2D9EF"/>
<path d="M44.527 27.0174L29.7607 12.2511C28.8624 11.3528 29.4981 9.81885 30.7695 9.81885H45.5358C46.3235 9.81885 46.9592 10.4546 46.9592 11.2423V26.0086C46.9592 27.28 45.4253 27.9157 44.527 27.0174Z" fill="#D2D9EF"/>
<path d="M54.3458 17.1986L39.5795 2.43226C38.6812 1.53398 39.3169 0 40.5884 0L55.3547 0C56.1424 0 56.7781 0.635704 56.7781 1.42342V16.1897C56.7781 17.4611 55.2441 18.0968 54.3458 17.1986Z" fill="#D2D9EF"/>
</g>
<defs>
<clipPath id="clip0_781_32490">
<rect width="56.7781" height="56.7781" fill="white"/>
</clipPath>
</defs>
</svg>
