<svg width="244" height="197" viewBox="0 0 244 197" fill="none" xmlns="http://www.w3.org/2000/svg">
<path d="M129.022 144.775C162.756 144.775 190.103 117.618 190.103 84.1181C190.103 50.6181 162.756 23.4609 129.022 23.4609C95.2875 23.4609 67.9404 50.6181 67.9404 84.1181C67.9404 117.618 95.2875 144.775 129.022 144.775Z" fill="#F0F1F6"/>
<path d="M71.6739 159.319C85.7621 159.319 97.1829 147.977 97.1829 133.987C97.1829 119.997 85.7621 108.655 71.6739 108.655C57.5858 108.655 46.165 119.997 46.165 133.987C46.165 147.977 57.5858 159.319 71.6739 159.319Z" fill="#F0F1F6"/>
<path d="M47.7573 97.2793C53.7367 97.2793 58.584 92.4657 58.584 86.5278C58.584 80.59 53.7367 75.7764 47.7573 75.7764C41.7779 75.7764 36.9307 80.59 36.9307 86.5278C36.9307 92.4657 41.7779 97.2793 47.7573 97.2793Z" fill="#F0F1F6"/>
<path d="M131.511 87.1314H174.688L194.946 166.096L202.037 75.0605H88.5879L86.8359 97.5464H124.687L131.511 87.1314Z" fill="#4460BB"/>
<path d="M191.026 68.7822L129.153 54.6084L109.005 141.344L170.877 155.518L191.026 68.7822Z" fill="#1F88AE"/>
<g style="mix-blend-mode:multiply" opacity="0.35">
<path d="M170.782 60.3468L107.863 51.8545L95.7913 140.057L158.71 148.549L170.782 60.3468Z" fill="#2E3E8E"/>
</g>
<path d="M169.967 57.6934L107.324 47.3838L92.6689 135.199L155.312 145.509L169.967 57.6934Z" fill="white"/>
<path d="M142.727 91.8302C142.099 91.8302 141.481 91.5393 141.088 90.994L124.361 67.7841C123.713 66.886 123.922 65.6367 124.826 64.9939C125.731 64.351 126.989 64.558 127.636 65.4562L144.363 88.6661C145.01 89.5643 144.802 90.8135 143.898 91.4563C143.542 91.7089 143.133 91.8302 142.727 91.8302Z" fill="#1F40AE"/>
<path d="M122.676 88.532C122.048 88.532 121.43 88.2411 121.037 87.6958C120.389 86.7977 120.598 85.5485 121.502 84.9056L144.874 68.2947C145.779 67.6518 147.037 67.8588 147.684 68.757C148.331 69.6551 148.123 70.9044 147.219 71.5472L123.846 88.1581C123.491 88.4107 123.081 88.532 122.676 88.532Z" fill="#1F40AE"/>
<g style="mix-blend-mode:multiply" opacity="0.35">
<path d="M172.281 91.5332H181.524L194.946 166.097L172.281 91.5332Z" fill="#2E3E8E"/>
</g>
<path d="M194.946 166.096L177.359 97.5468L174.687 87.1318H131.51L124.686 97.5468H63.9092L81.4957 166.096H194.946Z" fill="#B4BFE4"/>
<path d="M76.2481 106.589H90.9358C91.6787 106.589 92.4344 107.187 92.6235 107.925C92.8127 108.662 92.3637 109.261 91.6208 109.261H76.9331C76.1902 109.261 75.4345 108.662 75.2454 107.925C75.0562 107.187 75.5052 106.589 76.2481 106.589Z" fill="white"/>
<path d="M78.5284 115.476H110.594C111.337 115.476 112.093 116.074 112.282 116.811C112.471 117.549 112.022 118.147 111.279 118.147H79.2133C78.4705 118.147 77.7148 117.549 77.5257 116.811C77.3365 116.074 77.7855 115.476 78.5284 115.476Z" fill="white"/>
<path d="M80.8077 124.361H112.874C113.616 124.361 114.372 124.959 114.561 125.697C114.75 126.435 114.301 127.033 113.559 127.033H81.4926C80.7498 127.033 79.9941 126.435 79.805 125.697C79.6158 124.959 80.0648 124.361 80.8077 124.361Z" fill="white"/>
<path opacity="0.3" d="M64.3004 121.42C76.9925 121.42 87.2815 111.203 87.2815 98.5988C87.2815 85.9949 76.9925 75.7773 64.3004 75.7773C51.6083 75.7773 41.3193 85.9949 41.3193 98.5988C41.3193 111.203 51.6083 121.42 64.3004 121.42Z" fill="white"/>
<path d="M64.2497 123.087C59.3143 123.087 54.4974 121.612 50.3415 118.777C44.914 115.074 41.2641 109.493 40.063 103.064C38.862 96.6345 40.254 90.1258 43.9829 84.736C47.7118 79.3461 53.3312 75.7215 59.8055 74.5289C66.2799 73.3362 72.8341 74.7185 78.2617 78.4215C83.6892 82.1245 87.3391 87.7049 88.5401 94.1343C89.7412 100.564 88.3492 107.072 84.6203 112.462C80.8914 117.852 75.2719 121.477 68.7976 122.669C67.2807 122.948 65.7593 123.087 64.2497 123.087ZM64.3323 77.444C57.5431 77.444 50.864 80.6509 46.7366 86.6153C43.5128 91.2738 42.3099 96.9008 43.3475 102.458C44.386 108.016 47.541 112.84 52.233 116.041C56.9242 119.243 62.5905 120.437 68.1879 119.407C73.7844 118.375 78.6418 115.242 81.8657 110.583C88.52 100.965 86.0545 87.7642 76.3692 81.1561C72.6908 78.6458 68.4909 77.4431 64.3323 77.4431V77.444Z" fill="#52617F"/>
<path d="M50.5209 90.8572C50.1949 90.8572 49.8653 90.7624 49.5761 90.5654C48.8158 90.0466 48.623 89.0135 49.1454 88.2585C54.887 79.9598 66.3564 77.8471 74.7131 83.5488C76.3494 84.6658 77.7818 86.0226 78.9699 87.5819C79.5264 88.3123 79.3813 89.3527 78.6458 89.9062C77.9103 90.4587 76.8626 90.3147 76.3053 89.5843C75.3338 88.3095 74.1622 87.1989 72.8216 86.2843C65.9836 81.6185 56.5986 83.3473 51.9001 90.1378C51.5759 90.6055 51.0535 90.8572 50.5218 90.8572H50.5209Z" fill="#52617F"/>
<path d="M47.5844 100.492C46.6735 100.492 45.9279 99.7651 45.9142 98.8579C45.894 97.5175 46.0234 96.1743 46.298 94.8659C46.4862 93.9686 47.3704 93.3932 48.274 93.5802C49.1775 93.7671 49.7569 94.6461 49.5686 95.5424C49.3437 96.6129 49.239 97.7108 49.2555 98.8077C49.2693 99.7241 48.5329 100.477 47.6101 100.491C47.6018 100.491 47.5927 100.491 47.5844 100.491V100.492Z" fill="#52617F"/>
<path d="M49.9117 116.461L45.0361 123.509L47.7902 125.388L52.6658 118.34L49.9117 116.461Z" fill="#52617F"/>
<path d="M35.0769 140.839C33.2579 139.598 32.797 137.128 34.0467 135.322L44.0809 120.819L50.6664 125.313L40.6321 139.816C39.3824 141.622 36.8959 142.08 35.0769 140.839Z" fill="#52617F"/>
<path d="M87.3815 54.2398L86.6735 53.3444C85.1355 51.5298 84.3523 48.953 84.715 45.5628C85.0648 42.5482 85.0263 40.5267 83.9281 38.8936C82.683 37.0425 80.6831 36.5848 78.3563 38.0766C77.0405 38.9492 75.8717 40.3553 75.4227 41.651L73.0068 39.9467C73.6266 38.2754 75.3189 36.3131 77.2554 35.0274C81.4581 32.239 85.0915 33.5539 86.9481 36.3122C88.6082 38.7796 88.4163 41.4795 88.0545 44.712C87.7166 47.6664 88.206 49.6505 89.5613 51.4286L90.2325 52.3477L87.3824 54.2389L87.3815 54.2398ZM89.9966 59.854C89.093 58.5108 89.3722 56.9616 90.6503 56.1127C91.9294 55.2638 93.4417 55.6258 94.3443 56.968C95.1992 58.2382 95.0173 59.7756 93.6657 60.6728C92.3867 61.5217 90.8505 61.1242 89.9956 59.854H89.9966Z" fill="#C7CCD5"/>
<path d="M63.8276 146.368L63.4769 145.882C62.7111 144.896 62.3594 143.526 62.6266 141.756C62.8791 140.183 62.9048 139.121 62.3658 138.24C61.7543 137.242 60.7158 136.956 59.4615 137.687C58.7517 138.115 58.1062 138.827 57.8409 139.496L56.6123 138.548C56.9759 137.685 57.9079 136.693 58.9538 136.063C61.2217 134.694 63.0977 135.467 64.0085 136.955C64.823 138.287 64.6614 139.698 64.3969 141.386C64.1518 142.928 64.3639 143.98 65.0342 144.943L65.3656 145.44L63.8276 146.368V146.368ZM65.0709 149.371C64.6274 148.646 64.8092 147.84 65.4997 147.423C66.1902 147.007 66.9753 147.231 67.4178 147.955C67.8375 148.641 67.7071 149.443 66.9771 149.884C66.2866 150.3 65.4896 150.057 65.0709 149.371Z" fill="#C7CCD5"/>
<path d="M139.353 44.2478L139.651 43.739C140.233 42.6576 141.329 41.7904 143.038 41.3135C144.563 40.9032 145.533 40.4965 146.112 39.6604C146.769 38.7121 146.606 37.6707 145.439 36.8474C144.765 36.3869 143.861 36.0997 143.148 36.1334L143.509 34.6553C144.435 34.6307 145.709 35.0611 146.702 35.7386C148.856 37.2084 148.915 39.1935 147.937 40.6069C147.062 41.8716 145.72 42.2974 144.087 42.7442C142.594 43.1491 141.728 43.7627 141.128 44.7502L140.812 45.2463L139.351 44.2496L139.353 44.2478ZM137.139 46.5703C137.616 45.8818 138.418 45.7177 139.074 46.1654C139.73 46.6122 139.844 47.4028 139.369 48.0912C138.918 48.7423 138.14 48.9502 137.447 48.4778C136.791 48.031 136.689 47.2213 137.139 46.5712V46.5703Z" fill="#C7CCD5"/>
</svg>
