<svg width="30" height="30" viewBox="0 0 30 30" fill="none" xmlns="http://www.w3.org/2000/svg">
<g clip-path="url(#clip0_1201_19208)">
<path d="M9.82083 15.2183L18.0574 21.1781C18.0975 21.2072 18.1448 21.2246 18.1941 21.2284C18.2434 21.2323 18.2928 21.2224 18.3368 21.1998C18.3809 21.1773 18.4178 21.143 18.4436 21.1008C18.4693 21.0585 18.4828 21.01 18.4827 20.9605L18.4827 19.3902C18.4827 19.0487 18.3186 18.7239 18.0407 18.523L13.1724 15.0007L18.0407 11.4784C18.3186 11.2775 18.4827 10.956 18.4827 10.6112L18.4827 9.04087C18.4827 8.82323 18.2349 8.696 18.0574 8.82323L9.82083 14.7831C9.67351 14.8902 9.67351 15.1112 9.82083 15.2183Z" fill="#443E53"/>
<path d="M15 30C23.2835 30 30 23.2835 30 15C30 6.71652 23.2835 -5.87177e-07 15 -1.31134e-06C6.71652 -2.03551e-06 2.03551e-06 6.71651 1.31134e-06 15C5.87177e-07 23.2835 6.71652 30 15 30ZM15 2.54464C21.8772 2.54464 27.4554 8.12277 27.4554 15C27.4554 21.8772 21.8772 27.4554 15 27.4554C8.12277 27.4554 2.54464 21.8772 2.54464 15C2.54465 8.12276 8.12277 2.54464 15 2.54464Z" fill="#443E53"/>
</g>
<defs>
<clipPath id="clip0_1201_19208">
<rect width="30" height="30" fill="white" transform="translate(30 30) rotate(-180)"/>
</clipPath>
</defs>
</svg>
