<svg width="30" height="30" viewBox="0 0 30 30" fill="none" xmlns="http://www.w3.org/2000/svg">
<g clip-path="url(#clip0_1201_19209)">
<path d="M20.1792 14.7817L11.9426 8.82185C11.9025 8.79279 11.8552 8.77538 11.8059 8.77155C11.7566 8.76773 11.7072 8.77763 11.6632 8.80017C11.6191 8.8227 11.5822 8.85699 11.5564 8.89924C11.5307 8.94148 11.5172 8.99002 11.5173 9.03949V10.6098C11.5173 10.9513 11.6814 11.2761 11.9593 11.477L16.8276 14.9993L11.9593 18.5216C11.6814 18.7225 11.5173 19.044 11.5173 19.3888V20.9591C11.5173 21.1768 11.7651 21.304 11.9426 21.1768L20.1792 15.2169C20.3265 15.1098 20.3265 14.8888 20.1792 14.7817Z" fill="#443E53"/>
<path d="M15 0C6.71652 0 0 6.71652 0 15C0 23.2835 6.71652 30 15 30C23.2835 30 30 23.2835 30 15C30 6.71652 23.2835 0 15 0ZM15 27.4554C8.12277 27.4554 2.54464 21.8772 2.54464 15C2.54464 8.12277 8.12277 2.54464 15 2.54464C21.8772 2.54464 27.4554 8.12277 27.4554 15C27.4554 21.8772 21.8772 27.4554 15 27.4554Z" fill="#443E53"/>
</g>
<defs>
<clipPath id="clip0_1201_19209">
<rect width="30" height="30" fill="white"/>
</clipPath>
</defs>
</svg>
