<svg width="82" height="41" viewBox="0 0 82 41" fill="none" xmlns="http://www.w3.org/2000/svg">
<rect y="0.0322266" width="82" height="40.2264" rx="8" fill="#EDEFF7"/>
<g clip-path="url(#clip0_2343_4478)">
<path d="M22.9407 12.4097H12.5141C11.1563 12.4097 10.0566 13.519 10.0566 14.8883V25.4032C10.0566 26.7716 11.1563 27.8813 12.5141 27.8813H22.9407C24.2983 27.8813 25.3973 26.7716 25.3973 25.4032V14.8883C25.3973 13.519 24.2983 12.4097 22.9407 12.4097Z" fill="#1677FF"/>
<path d="M14.2014 24.3077C11.8148 24.3077 11.1092 22.4118 12.2887 21.3745C12.6823 21.0239 13.4015 20.8528 13.785 20.8144C15.2027 20.6731 16.515 21.2185 18.0637 21.9809C16.9751 23.4131 15.5886 24.3077 14.2014 24.3077ZM22.6868 22.1247C22.0729 21.9173 21.2492 21.6002 20.3318 21.2655C20.8827 20.2995 21.3228 19.1994 21.6121 18.0039H18.5882V16.9054H22.2925V16.2923H18.5882V14.4611H17.0764C16.8112 14.4611 16.8112 14.7252 16.8112 14.7252V16.2923H13.0647V16.9054H16.8112V18.0039H13.718V18.6169H19.7172C19.4976 19.3797 19.2029 20.0959 18.8531 20.7465C16.9064 20.0988 14.8292 19.5737 13.5243 19.8969C12.6897 20.1043 12.1522 20.4744 11.8364 20.8622C10.3871 22.6406 11.4266 25.3418 14.4874 25.3418C16.2971 25.3418 18.0404 24.3242 19.3916 22.6472C21.4069 23.6243 25.397 25.3018 25.397 25.3018V22.911C25.397 22.911 24.8959 22.8707 22.6868 22.1247Z" fill="white"/>
<path d="M43.3672 14.6745C43.3672 15.4749 43.9521 16.0137 44.7679 16.0137C45.5838 16.0137 46.1687 15.4749 46.1687 14.6745C46.1687 13.8895 45.5838 13.3352 44.7679 13.3352C43.9521 13.3352 43.3672 13.8895 43.3672 14.6745Z" fill="#1677FF"/>
<path d="M39.457 24.9108H41.8891V13.6738H39.457V24.9108Z" fill="black"/>
<path d="M31.6524 21.0165L33.0992 16.0138H33.161L34.531 21.0165H31.6524ZM35.193 14.0589H31.9295L28.2812 24.9111H30.5287L31.1445 22.7868H35.0082L35.5929 24.9111H38.4717L35.193 14.0589Z" fill="black"/>
<path d="M43.5527 24.9109H45.9848V16.6602H43.5527V24.9109Z" fill="black"/>
<path d="M71.4004 16.6756L71.4156 16.6602H69.122L67.6752 21.6783H67.5982L65.9358 16.6602H63.2109L66.4899 24.9418L65.1199 27.4662V27.5278H67.2596L71.4004 16.6756Z" fill="black"/>
<path d="M50.4959 23.4948C50.219 23.4948 49.9571 23.4641 49.6648 23.3717V18.9077C50.1727 18.5537 50.5884 18.3843 51.1116 18.3843C52.02 18.3843 52.7434 19.1078 52.7434 20.6471C52.7434 22.6174 51.6813 23.4948 50.4959 23.4948ZM52.0353 16.491C51.1425 16.491 50.4498 16.8296 49.6648 17.4761V16.6602H47.2324V27.5278H49.6648V24.834C50.1265 24.9572 50.5575 25.0188 51.0809 25.0188C53.2513 25.0188 55.2064 23.4179 55.2064 20.5702C55.2064 18.0149 53.79 16.491 52.0353 16.491Z" fill="black"/>
<path d="M60.3013 22.91C59.6549 23.2641 59.2852 23.4026 58.8545 23.4026C58.2695 23.4026 57.9001 23.0178 57.9001 22.4021C57.9001 22.1711 57.9462 21.9403 58.1308 21.7556C58.4234 21.4631 58.993 21.2476 60.3013 20.9398V22.91ZM62.7334 22.8484V19.4005C62.7334 17.5224 61.6253 16.4912 59.6704 16.4912C58.4234 16.4912 57.5614 16.7065 55.9913 17.1837L56.4221 19.0772C57.8537 18.4306 58.485 18.1535 59.1469 18.1535C59.9474 18.1535 60.3013 18.723 60.3013 19.6005V19.6621C57.515 20.1855 56.6531 20.4779 56.1143 21.0167C55.7142 21.417 55.5449 21.9865 55.5449 22.6483C55.5449 24.2338 56.7764 25.0806 57.9309 25.0806C58.7929 25.0806 59.4854 24.7573 60.4246 24.0491L60.5939 24.9112H63.026L62.7334 22.8484Z" fill="black"/>
</g>
<defs>
<clipPath id="clip0_2343_4478">
<rect width="61.3582" height="15.4717" fill="white" transform="translate(10.0566 12.4097)"/>
</clipPath>
</defs>
</svg>
