<svg width="82" height="41" viewBox="0 0 82 41" fill="none" xmlns="http://www.w3.org/2000/svg">
<rect y="0.0322266" width="82" height="40.2264" rx="8" fill="#016FD0"/>
<path d="M11.1238 9.31677L7.73633 17.1928H9.94175L10.5668 15.6156H14.2004L14.8221 17.1928H17.0762L13.6918 9.31677H11.1238ZM12.3771 11.1497L13.4846 13.9057H11.2663L12.3771 11.1497ZM17.3093 17.1914V9.31543L20.4433 9.32705L22.2662 14.405L24.0454 9.31543H27.1543V17.1914H25.1853V11.3881L23.0981 17.1914H21.3713L19.2783 11.3881V17.1914H17.3093ZM28.5015 17.1914V9.31543H34.9267V11.0772H30.4913V12.4244H34.8231V14.0825H30.4913V15.4816H34.9267V17.1914H28.5015ZM36.0667 9.31677V17.1928H38.0357V14.3947H38.8647L41.2256 17.1928H43.6318L41.041 14.2911C42.1043 14.2013 43.2011 13.2888 43.2011 11.8719C43.2011 10.2146 41.9002 9.31677 40.4484 9.31677H36.0667ZM38.0357 11.0785H40.2864C40.8264 11.0785 41.2191 11.5008 41.2191 11.9075C41.2191 12.4307 40.7102 12.7366 40.3156 12.7366H38.0357V11.0785ZM46.0154 17.1914H44.0049V9.31543H46.0154V17.1914ZM50.7824 17.1914H50.3485C48.2488 17.1914 46.9739 15.5372 46.9739 13.2858C46.9739 10.9788 48.2345 9.31543 50.886 9.31543H53.0623V11.1808H50.8065C49.7301 11.1808 48.9689 12.0208 48.9689 13.3052C48.9689 14.8305 49.8393 15.4712 51.0933 15.4712H51.6115L50.7824 17.1914ZM55.067 9.31677L51.6795 17.1928H53.8849L54.5099 15.6156H58.1435L58.7653 17.1928H61.0193L57.6351 9.31677H55.067ZM56.3203 11.1497L57.4278 13.9057H55.2094L56.3203 11.1497ZM61.2492 17.1914V9.31543H63.7526L66.9489 14.2639V9.31543H68.918V17.1914H66.4956L63.2182 12.1135V17.1914H61.2492ZM22.0764 30.9745V23.0985H28.5015V24.8602H24.0661V26.2074H28.3979V27.8655H24.0661V29.2646H28.5015V30.9745H22.0764ZM53.5598 30.9745V23.0985H59.9849V24.8602H55.5495V26.2074H59.8606V27.8655H55.5494V29.2646H59.9848V30.9745H53.5598ZM28.7509 30.9745L31.8793 27.0851L28.6764 23.0985H31.1572L33.0646 25.5629L34.9786 23.0985H37.3622L34.2014 27.0365L37.3355 30.9745H34.8553L33.0031 28.5489L31.1961 30.9745H28.7509ZM37.5694 23.0998V30.9758H39.5902V28.4887H41.6628C43.4165 28.4887 44.7459 27.5583 44.7459 25.7489C44.7459 24.25 43.7033 23.0998 41.9186 23.0998H37.5694ZM39.5902 24.881H41.7729C42.3395 24.881 42.7444 25.2282 42.7444 25.7877C42.7444 26.3134 42.3415 26.6945 41.7664 26.6945H39.5902V24.881ZM45.6008 23.0985V30.9745H47.5698V28.1764H48.3989L50.7597 30.9745H53.1659L50.5752 28.0728C51.6384 27.9831 52.7352 27.0704 52.7352 25.6536C52.7352 23.9962 51.4343 23.0985 49.9825 23.0985H45.6008ZM47.5698 24.8602H49.8206C50.3605 24.8602 50.7533 25.2825 50.7533 25.6893C50.7533 26.2125 50.2444 26.5183 49.8497 26.5183H47.5698V24.8602ZM60.8969 30.9745V29.2646H64.8375C65.4205 29.2646 65.673 28.9494 65.673 28.6039C65.673 28.2728 65.4213 27.9381 64.8375 27.9381H63.0567C61.5089 27.9381 60.6469 26.9951 60.6469 25.5792C60.6469 24.3163 61.4363 23.0985 63.7365 23.0985H67.5708L66.7417 24.8706H63.4255C62.7916 24.8706 62.5965 25.2032 62.5965 25.5209C62.5965 25.8473 62.8376 26.2074 63.3218 26.2074H65.1872C66.9127 26.2074 67.6614 27.1862 67.6614 28.4679C67.6614 29.8459 66.8271 30.9745 65.0933 30.9745H60.8969ZM68.1236 30.9745V29.2646H72.0641C72.6473 29.2646 72.8997 28.9494 72.8997 28.6039C72.8997 28.2728 72.6481 27.9381 72.0641 27.9381H70.2835C68.7356 27.9381 67.8736 26.9951 67.8736 25.5792C67.8736 24.3163 68.663 23.0985 70.9631 23.0985H74.7975L73.9684 24.8706H70.6522C70.0183 24.8706 69.8231 25.2032 69.8231 25.5209C69.8231 25.8473 70.0642 26.2074 70.5486 26.2074H72.4139C74.1394 26.2074 74.8882 27.1862 74.8882 28.4679C74.8882 29.8459 74.0538 30.9745 72.32 30.9745H68.1236Z" fill="white"/>
</svg>
