<svg width="82" height="42" viewBox="0 0 82 42" fill="none" xmlns="http://www.w3.org/2000/svg">
<rect y="0.805664" width="82" height="40.2264" rx="8" fill="black"/>
<g clip-path="url(#clip0_2343_4463)">
<path d="M24.3422 12.8814C23.724 13.6131 22.7347 14.1901 21.7455 14.1077C21.6218 13.1184 22.1061 12.0674 22.6729 11.4182C23.2912 10.6659 24.3731 10.1301 25.249 10.0889C25.3521 11.1193 24.9502 12.1292 24.3422 12.8814ZM25.2387 14.3035C23.8064 14.221 22.5801 15.1175 21.9 15.1175C21.2096 15.1175 20.1689 14.3447 19.0353 14.3653C17.5618 14.3859 16.1913 15.2206 15.439 16.5499C13.8933 19.2085 15.0371 23.1449 16.5313 25.3088C17.2629 26.3805 18.1388 27.5553 19.293 27.514C20.3852 27.4728 20.818 26.803 22.137 26.803C23.4663 26.803 23.8476 27.514 25.0017 27.4934C26.1971 27.4728 26.9493 26.4217 27.6809 25.3501C28.5156 24.1341 28.8557 22.9491 28.8763 22.8872C28.8557 22.8666 26.568 21.9907 26.5474 19.3527C26.5268 17.1476 28.3507 16.0965 28.4332 16.0347C27.4027 14.5096 25.7952 14.3447 25.2387 14.3035ZM33.5134 11.3151V27.3801H36.0071V21.8877H39.4592C42.6124 21.8877 44.8279 19.7237 44.8279 16.5911C44.8279 13.4585 42.6536 11.3151 39.5416 11.3151H33.5134ZM36.0071 13.4173H38.8821C41.0461 13.4173 42.2826 14.5714 42.2826 16.6014C42.2826 18.6314 41.0461 19.7958 38.8718 19.7958H36.0071V13.4173ZM49.3825 27.5037C50.9488 27.5037 52.4018 26.7103 53.0613 25.4531H53.1128V27.3801H55.4211V19.3837C55.4211 17.0651 53.5662 15.5709 50.7118 15.5709C48.0635 15.5709 46.1057 17.0857 46.0335 19.1673H48.2799C48.4654 18.178 49.3825 17.5288 50.6397 17.5288C52.1648 17.5288 53.0201 18.2398 53.0201 19.5485V20.4347L49.9081 20.6202C47.0125 20.7954 45.4462 21.9804 45.4462 24.0414C45.4462 26.1229 47.064 27.5037 49.3825 27.5037ZM50.0523 25.5974C48.723 25.5974 47.8781 24.9585 47.8781 23.9795C47.8781 22.9697 48.6921 22.3823 50.2481 22.2896L53.0201 22.1144V23.0212C53.0201 24.5257 51.7423 25.5974 50.0523 25.5974ZM58.5022 31.7492C60.9341 31.7492 62.0779 30.8218 63.0774 28.0087L67.4569 15.7255H64.922L61.9851 25.2161H61.9336L58.9968 15.7255H56.3897L60.6146 27.4213L60.3879 28.1323C60.0066 29.338 59.3884 29.8017 58.2858 29.8017C58.09 29.8017 57.7087 29.7811 57.5541 29.7604V31.6874C57.6984 31.7286 58.3167 31.7492 58.5022 31.7492Z" fill="white"/>
</g>
<defs>
<clipPath id="clip0_2343_4463">
<rect width="52.7598" height="21.6604" fill="white" transform="translate(14.6973 10.0889)"/>
</clipPath>
</defs>
</svg>
