<svg width="82" height="42" viewBox="0 0 82 42" fill="none" xmlns="http://www.w3.org/2000/svg">
<rect y="0.805664" width="82" height="40.2264" rx="8" fill="#EDEFF7"/>
<g clip-path="url(#clip0_2343_4467)">
<path d="M40.0571 21.2886V26.5758H38.3516V13.5H42.786C43.8661 13.5 44.8895 13.898 45.6854 14.637C46.4813 15.3192 46.8793 16.3426 46.8793 17.4227C46.8793 18.5029 46.4813 19.4694 45.6854 20.2085C44.8895 20.9475 43.923 21.3455 42.786 21.3455L40.0571 21.2886ZM40.0571 15.0918V19.6399H42.8997C43.525 19.6399 44.1504 19.4125 44.5484 18.9577C45.458 18.105 45.458 16.6837 44.6052 15.8309L44.5484 15.7741C44.0936 15.3192 43.525 15.035 42.8997 15.0918H40.0571Z" fill="#5F6368"/>
<path d="M50.8017 17.3657C52.0524 17.3657 53.0189 17.7068 53.7579 18.389C54.497 19.0713 54.8381 19.9809 54.8381 21.1179V26.5756H53.2463V25.3249H53.1894C52.5072 26.3482 51.5407 26.8599 50.4037 26.8599C49.4372 26.8599 48.5844 26.5756 47.9022 26.0071C47.2769 25.4386 46.8789 24.6427 46.8789 23.7899C46.8789 22.8803 47.22 22.1412 47.9022 21.5727C48.5844 21.0042 49.5509 20.7768 50.6879 20.7768C51.7113 20.7768 52.5072 20.9474 53.1326 21.3453V20.9474C53.1326 20.3788 52.9052 19.8103 52.4503 19.4692C51.9955 19.0713 51.427 18.8439 50.8017 18.8439C49.8352 18.8439 49.0961 19.2418 48.5844 20.0377L47.1063 19.1281C48.0159 17.9342 49.2098 17.3657 50.8017 17.3657ZM48.6413 23.8468C48.6413 24.3016 48.8687 24.6996 49.2098 24.927C49.6078 25.2112 50.0626 25.3818 50.5174 25.3818C51.1996 25.3818 51.8818 25.0975 52.3935 24.5858C52.962 24.0742 53.2463 23.4488 53.2463 22.7666C52.7346 22.3686 51.9955 22.1412 51.0291 22.1412C50.3468 22.1412 49.7783 22.3118 49.3235 22.6529C48.8687 22.9372 48.6413 23.3351 48.6413 23.8468Z" fill="#5F6368"/>
<path d="M64.0468 17.6499L58.4185 30.5552H56.7129L58.8164 26.0639L55.1211 17.7068H56.9403L59.6123 24.131H59.6692L62.2844 17.7068H64.0468V17.6499Z" fill="#5F6368"/>
<path d="M33.2904 20.1517C33.2904 19.64 33.2336 19.1284 33.1767 18.6167H26.0703V21.5161H30.1068C29.9362 22.4257 29.4245 23.2785 28.6286 23.7902V25.6663H31.0732C32.4945 24.3587 33.2904 22.4257 33.2904 20.1517Z" fill="#4285F4"/>
<path d="M26.0717 27.4854C28.1184 27.4854 29.8239 26.8032 31.0747 25.6662L28.6301 23.7901C27.9478 24.2449 27.0951 24.5292 26.0717 24.5292C24.1388 24.5292 22.4333 23.2216 21.8647 21.4023H19.3633V23.3353C20.6709 25.8936 23.2292 27.4854 26.0717 27.4854Z" fill="#34A853"/>
<path d="M21.8643 21.4022C21.5232 20.4926 21.5232 19.4692 21.8643 18.5028V16.5698H19.3629C18.2827 18.6733 18.2827 21.1748 19.3629 23.3351L21.8643 21.4022Z" fill="#FBBC04"/>
<path d="M26.0715 15.433C27.1517 15.433 28.175 15.8309 28.971 16.57L31.1313 14.4096C29.7669 13.1589 27.9476 12.4198 26.1284 12.4767C23.2858 12.4767 20.6707 14.0685 19.4199 16.6268L21.9214 18.5598C22.433 16.7405 24.1386 15.433 26.0715 15.433Z" fill="#EA4335"/>
</g>
<defs>
<clipPath id="clip0_2343_4467">
<rect width="45.4811" height="21.6604" fill="white" transform="translate(18.5664 10.0889)"/>
</clipPath>
</defs>
</svg>
