<svg width="76" height="82" viewBox="0 0 76 82" fill="none" xmlns="http://www.w3.org/2000/svg">
<g filter="url(#filter0_d_110_2927)">
<path d="M34 9.3094C36.4752 7.88034 39.5248 7.88034 42 9.3094L59.9808 19.6906C62.456 21.1197 63.9808 23.7607 63.9808 26.6188V47.3812C63.9808 50.2393 62.456 52.8803 59.9808 54.3094L42 64.6906C39.5248 66.1197 36.4752 66.1197 34 64.6906L16.0192 54.3094C13.544 52.8803 12.0192 50.2393 12.0192 47.3812V26.6188C12.0192 23.7607 13.544 21.1197 16.0192 19.6906L34 9.3094Z" fill="#F9A20E"/>
<path d="M41.5 10.1754L59.4808 20.5566C61.6466 21.8071 62.9808 24.1179 62.9808 26.6188V47.3812C62.9808 49.8821 61.6466 52.1929 59.4808 53.4434L41.5 63.8246C39.3342 65.075 36.6658 65.075 34.5 63.8246L16.5192 53.4434C14.3534 52.1929 13.0192 49.8821 13.0192 47.3812V26.6188C13.0192 24.1179 14.3534 21.8071 16.5192 20.5566L34.5 10.1754C36.6658 8.925 39.3342 8.925 41.5 10.1754Z" stroke="#F5F5F5" stroke-width="2"/>
</g>
<path d="M48.2437 27.7966H27.7559C27.641 27.7966 27.5469 27.8907 27.5469 28.0057V29.6782C27.5469 29.7931 27.641 29.8872 27.7559 29.8872H48.2437C48.3587 29.8872 48.4528 29.7931 48.4528 29.6782V28.0057C48.4528 27.8907 48.3587 27.7966 48.2437 27.7966ZM48.2437 44.1033H27.7559C27.641 44.1033 27.5469 44.1973 27.5469 44.3123V45.9848C27.5469 46.0998 27.641 46.1938 27.7559 46.1938H48.2437C48.3587 46.1938 48.4528 46.0998 48.4528 45.9848V44.3123C48.4528 44.1973 48.3587 44.1033 48.2437 44.1033ZM48.2437 35.9499H27.7559C27.641 35.9499 27.5469 36.044 27.5469 36.159V37.8315C27.5469 37.9465 27.641 38.0405 27.7559 38.0405H48.2437C48.3587 38.0405 48.4528 37.9465 48.4528 37.8315V36.159C48.4528 36.044 48.3587 35.9499 48.2437 35.9499Z" fill="white"/>
<defs>
<filter id="filter0_d_110_2927" x="0.0192871" y="0.23761" width="75.9614" height="81.5248" filterUnits="userSpaceOnUse" color-interpolation-filters="sRGB">
<feFlood flood-opacity="0" result="BackgroundImageFix"/>
<feColorMatrix in="SourceAlpha" type="matrix" values="0 0 0 0 0 0 0 0 0 0 0 0 0 0 0 0 0 0 127 0" result="hardAlpha"/>
<feOffset dy="4"/>
<feGaussianBlur stdDeviation="6"/>
<feComposite in2="hardAlpha" operator="out"/>
<feColorMatrix type="matrix" values="0 0 0 0 0.376471 0 0 0 0 0.376471 0 0 0 0 0.376471 0 0 0 0.15 0"/>
<feBlend mode="normal" in2="BackgroundImageFix" result="effect1_dropShadow_110_2927"/>
<feBlend mode="normal" in="SourceGraphic" in2="effect1_dropShadow_110_2927" result="shape"/>
</filter>
</defs>
</svg>
