<svg width="76" height="82" viewBox="0 0 76 82" fill="none" xmlns="http://www.w3.org/2000/svg">
<g filter="url(#filter0_d_110_2940)">
<path d="M34 9.3094C36.4752 7.88034 39.5248 7.88034 42 9.3094L59.9808 19.6906C62.456 21.1197 63.9808 23.7607 63.9808 26.6188V47.3812C63.9808 50.2393 62.456 52.8803 59.9808 54.3094L42 64.6906C39.5248 66.1197 36.4752 66.1197 34 64.6906L16.0192 54.3094C13.544 52.8803 12.0192 50.2393 12.0192 47.3812V26.6188C12.0192 23.7607 13.544 21.1197 16.0192 19.6906L34 9.3094Z" fill="#2D9E2E"/>
<path d="M41.5 10.1754L59.4808 20.5566C61.6466 21.8071 62.9808 24.1179 62.9808 26.6188V47.3812C62.9808 49.8821 61.6466 52.1929 59.4808 53.4434L41.5 63.8246C39.3342 65.075 36.6658 65.075 34.5 63.8246L16.5192 53.4434C14.3534 52.1929 13.0192 49.8821 13.0192 47.3812V26.6188C13.0192 24.1179 14.3534 21.8071 16.5192 20.5566L34.5 10.1754C36.6658 8.925 39.3342 8.925 41.5 10.1754Z" stroke="#F5F5F5" stroke-width="2"/>
</g>
<path d="M38 26.7561C32.343 26.7561 27.7561 31.343 27.7561 37C27.7561 42.657 32.343 47.2439 38 47.2439C43.657 47.2439 48.2439 42.657 48.2439 37C48.2439 31.343 43.657 26.7561 38 26.7561ZM38.5099 41.9665L38.5145 42.6913C38.5145 42.7919 38.4322 42.8765 38.3316 42.8765H37.6822C37.5816 42.8765 37.4992 42.7942 37.4992 42.6936V41.9756C35.4688 41.8247 34.513 40.6677 34.4101 39.4101C34.4009 39.3026 34.4855 39.2111 34.593 39.2111H35.6494C35.7386 39.2111 35.8163 39.2752 35.83 39.362C35.9467 40.0869 36.5114 40.6288 37.5244 40.7637V37.5008L36.9596 37.3567C35.7637 37.0709 34.625 36.3255 34.625 34.7797C34.625 33.1128 35.8918 32.2165 37.5107 32.0587V31.3041C37.5107 31.2035 37.593 31.1212 37.6936 31.1212H38.3361C38.4367 31.1212 38.5191 31.2035 38.5191 31.3041V32.0518C40.0854 32.2096 41.2607 33.1242 41.3979 34.5488C41.4093 34.6563 41.3247 34.75 41.2149 34.75H40.1883C40.0968 34.75 40.0191 34.6814 40.0076 34.5922C39.9162 33.9245 39.3811 33.3803 38.5099 33.2614V36.3323L39.0907 36.4672C40.5724 36.8331 41.5808 37.5419 41.5808 39.1288C41.5808 40.8506 40.3003 41.811 38.5099 41.9665ZM36.0473 34.6745C36.0473 35.2553 36.4063 35.7058 37.1791 35.9848C37.2866 36.0282 37.3941 36.0625 37.5221 36.0991V33.2637C36.6784 33.3712 36.0473 33.8445 36.0473 34.6745ZM38.7111 37.766C38.6471 37.7523 38.5831 37.7363 38.5099 37.7157V40.7729C39.484 40.686 40.1563 40.1509 40.1563 39.2546C40.1563 38.5526 39.7927 38.0953 38.7111 37.766Z" fill="white"/>
<defs>
<filter id="filter0_d_110_2940" x="0.0192871" y="0.23761" width="75.9614" height="81.5248" filterUnits="userSpaceOnUse" color-interpolation-filters="sRGB">
<feFlood flood-opacity="0" result="BackgroundImageFix"/>
<feColorMatrix in="SourceAlpha" type="matrix" values="0 0 0 0 0 0 0 0 0 0 0 0 0 0 0 0 0 0 127 0" result="hardAlpha"/>
<feOffset dy="4"/>
<feGaussianBlur stdDeviation="6"/>
<feComposite in2="hardAlpha" operator="out"/>
<feColorMatrix type="matrix" values="0 0 0 0 0.376471 0 0 0 0 0.376471 0 0 0 0 0.376471 0 0 0 0.15 0"/>
<feBlend mode="normal" in2="BackgroundImageFix" result="effect1_dropShadow_110_2940"/>
<feBlend mode="normal" in="SourceGraphic" in2="effect1_dropShadow_110_2940" result="shape"/>
</filter>
</defs>
</svg>
