<svg width="76" height="82" viewBox="0 0 76 82" fill="none" xmlns="http://www.w3.org/2000/svg">
<g filter="url(#filter0_d_110_2912)">
<path d="M34 9.3094C36.4752 7.88034 39.5248 7.88034 42 9.3094L59.9808 19.6906C62.456 21.1197 63.9808 23.7607 63.9808 26.6188V47.3812C63.9808 50.2393 62.456 52.8803 59.9808 54.3094L42 64.6906C39.5248 66.1197 36.4752 66.1197 34 64.6906L16.0192 54.3094C13.544 52.8803 12.0192 50.2393 12.0192 47.3812V26.6188C12.0192 23.7607 13.544 21.1197 16.0192 19.6906L34 9.3094Z" fill="#CF1845"/>
<path d="M41.5 10.1754L59.4808 20.5566C61.6466 21.8071 62.9808 24.1179 62.9808 26.6188V47.3812C62.9808 49.8821 61.6466 52.1929 59.4808 53.4434L41.5 63.8246C39.3342 65.075 36.6658 65.075 34.5 63.8246L16.5192 53.4434C14.3534 52.1929 13.0192 49.8821 13.0192 47.3812V26.6188C13.0192 24.1179 14.3534 21.8071 16.5192 20.5566L34.5 10.1754C36.6658 8.925 39.3342 8.925 41.5 10.1754Z" stroke="#F5F5F5" stroke-width="2"/>
</g>
<path d="M36.8499 26.962H28.8011C28.3385 26.962 27.9648 27.3357 27.9648 27.7983V35.8471C27.9648 35.962 28.0589 36.0561 28.1739 36.0561H36.8499C36.9648 36.0561 37.0589 35.962 37.0589 35.8471V27.1711C37.0589 27.0561 36.9648 26.962 36.8499 26.962ZM35.3864 34.3836H29.6373V28.6345H35.3864V34.3836ZM31.7802 32.4498H33.2436C33.3586 32.4498 33.4526 32.3558 33.4526 32.2408V30.7774C33.4526 30.6624 33.3586 30.5683 33.2436 30.5683H31.7802C31.6652 30.5683 31.5711 30.6624 31.5711 30.7774V32.2408C31.5711 32.3558 31.6652 32.4498 31.7802 32.4498ZM36.8499 37.9376H28.1739C28.0589 37.9376 27.9648 38.0317 27.9648 38.1467V46.1955C27.9648 46.658 28.3385 47.0317 28.8011 47.0317H36.8499C36.9648 47.0317 37.0589 46.9377 37.0589 46.8227V38.1467C37.0589 38.0317 36.9648 37.9376 36.8499 37.9376ZM35.3864 45.3593H29.6373V39.6101H35.3864V45.3593ZM31.7802 43.4255H33.2436C33.3586 43.4255 33.4526 43.3314 33.4526 43.2164V41.753C33.4526 41.638 33.3586 41.5439 33.2436 41.5439H31.7802C31.6652 41.5439 31.5711 41.638 31.5711 41.753V43.2164C31.5711 43.3314 31.6652 43.4255 31.7802 43.4255ZM47.1983 26.962H39.1495C39.0345 26.962 38.9405 27.0561 38.9405 27.1711V35.8471C38.9405 35.962 39.0345 36.0561 39.1495 36.0561H47.8255C47.9405 36.0561 48.0345 35.962 48.0345 35.8471V27.7983C48.0345 27.3357 47.6608 26.962 47.1983 26.962ZM46.3621 34.3836H40.6129V28.6345H46.3621V34.3836ZM42.7558 32.4498H44.2192C44.3342 32.4498 44.4283 32.3558 44.4283 32.2408V30.7774C44.4283 30.6624 44.3342 30.5683 44.2192 30.5683H42.7558C42.6408 30.5683 42.5467 30.6624 42.5467 30.7774V32.2408C42.5467 32.3558 42.6408 32.4498 42.7558 32.4498ZM47.8255 37.9376H46.5711C46.4561 37.9376 46.3621 38.0317 46.3621 38.1467V41.6485H44.3237V38.1467C44.3237 38.0317 44.2297 37.9376 44.1147 37.9376H39.1495C39.0345 37.9376 38.9405 38.0317 38.9405 38.1467V46.8227C38.9405 46.9377 39.0345 47.0317 39.1495 47.0317H40.4039C40.5189 47.0317 40.6129 46.9377 40.6129 46.8227V40.4464H42.6513V43.1119C42.6513 43.2268 42.7453 43.3209 42.8603 43.3209H47.8255C47.9405 43.3209 48.0345 43.2268 48.0345 43.1119V38.1467C48.0345 38.0317 47.9405 37.9376 47.8255 37.9376ZM44.1147 45.3593H42.8603C42.7453 45.3593 42.6513 45.4533 42.6513 45.5683V46.8227C42.6513 46.9377 42.7453 47.0317 42.8603 47.0317H44.1147C44.2297 47.0317 44.3237 46.9377 44.3237 46.8227V45.5683C44.3237 45.4533 44.2297 45.3593 44.1147 45.3593ZM47.8255 45.3593H46.5711C46.4561 45.3593 46.3621 45.4533 46.3621 45.5683V46.8227C46.3621 46.9377 46.4561 47.0317 46.5711 47.0317H47.8255C47.9405 47.0317 48.0345 46.9377 48.0345 46.8227V45.5683C48.0345 45.4533 47.9405 45.3593 47.8255 45.3593Z" fill="white"/>
<defs>
<filter id="filter0_d_110_2912" x="0.0192871" y="0.237549" width="75.9614" height="81.5249" filterUnits="userSpaceOnUse" color-interpolation-filters="sRGB">
<feFlood flood-opacity="0" result="BackgroundImageFix"/>
<feColorMatrix in="SourceAlpha" type="matrix" values="0 0 0 0 0 0 0 0 0 0 0 0 0 0 0 0 0 0 127 0" result="hardAlpha"/>
<feOffset dy="4"/>
<feGaussianBlur stdDeviation="6"/>
<feComposite in2="hardAlpha" operator="out"/>
<feColorMatrix type="matrix" values="0 0 0 0 0.376471 0 0 0 0 0.376471 0 0 0 0 0.376471 0 0 0 0.15 0"/>
<feBlend mode="normal" in2="BackgroundImageFix" result="effect1_dropShadow_110_2912"/>
<feBlend mode="normal" in="SourceGraphic" in2="effect1_dropShadow_110_2912" result="shape"/>
</filter>
</defs>
</svg>
