<svg width="76" height="82" viewBox="0 0 76 82" fill="none" xmlns="http://www.w3.org/2000/svg">
<g filter="url(#filter0_d_2343_5523)">
<path d="M34 9.3094C36.4752 7.88034 39.5248 7.88034 42 9.3094L59.9808 19.6906C62.456 21.1197 63.9808 23.7607 63.9808 26.6188V47.3812C63.9808 50.2393 62.456 52.8803 59.9808 54.3094L42 64.6906C39.5248 66.1197 36.4752 66.1197 34 64.6906L16.0192 54.3094C13.544 52.8803 12.0192 50.2393 12.0192 47.3812V26.6188C12.0192 23.7607 13.544 21.1197 16.0192 19.6906L34 9.3094Z" fill="#1F40AE"/>
<path d="M34.5 10.1754C36.6658 8.925 39.3342 8.925 41.5 10.1754L59.4808 20.5566C61.6466 21.8071 62.9808 24.1179 62.9808 26.6188V47.3812C62.9808 49.8821 61.6466 52.1929 59.4808 53.4434L41.5 63.8246C39.3342 65.075 36.6658 65.075 34.5 63.8246L16.5192 53.4434C14.3534 52.1929 13.0192 49.8821 13.0192 47.3812V26.6188C13.0192 24.1179 14.3534 21.8071 16.5192 20.5566L34.5 10.1754Z" stroke="#F5F5F5" stroke-width="2"/>
</g>
<path d="M46.1145 29.1776L38.3447 26.5297C38.251 26.4977 38.1252 26.4817 37.9994 26.4817C37.8737 26.4817 37.7479 26.4977 37.6542 26.5297L29.8843 29.1776C29.6946 29.2416 29.5391 29.4611 29.5391 29.6623V40.6928C29.5391 40.894 29.6694 41.1593 29.8272 41.285L37.709 47.4268C37.7891 47.4886 37.892 47.5206 37.9971 47.5206C38.1023 47.5206 38.2075 47.4886 38.2853 47.4268L46.1671 41.285C46.3249 41.1616 46.4552 40.8963 46.4552 40.6928V29.6623C46.4598 29.4611 46.3043 29.2439 46.1145 29.1776ZM42.1724 33.0831L37.3112 39.7759C37.277 39.8227 37.2323 39.8607 37.1806 39.887C37.129 39.9132 37.0718 39.9269 37.0139 39.9269C36.956 39.9269 36.8989 39.9132 36.8472 39.887C36.7956 39.8607 36.7508 39.8227 36.7167 39.7759L33.8264 35.7972C33.7395 35.676 33.8264 35.5068 33.975 35.5068H35.2372C35.3538 35.5068 35.4659 35.564 35.5345 35.6578L37.0139 37.6928L40.4644 32.9413C40.533 32.8475 40.6427 32.7904 40.7616 32.7904H42.0238C42.1724 32.7927 42.2593 32.9619 42.1724 33.0831Z" fill="white"/>
<defs>
<filter id="filter0_d_2343_5523" x="0.0195312" y="0.237549" width="75.9609" height="81.5249" filterUnits="userSpaceOnUse" color-interpolation-filters="sRGB">
<feFlood flood-opacity="0" result="BackgroundImageFix"/>
<feColorMatrix in="SourceAlpha" type="matrix" values="0 0 0 0 0 0 0 0 0 0 0 0 0 0 0 0 0 0 127 0" result="hardAlpha"/>
<feOffset dy="4"/>
<feGaussianBlur stdDeviation="6"/>
<feComposite in2="hardAlpha" operator="out"/>
<feColorMatrix type="matrix" values="0 0 0 0 0.376471 0 0 0 0 0.376471 0 0 0 0 0.376471 0 0 0 0.15 0"/>
<feBlend mode="normal" in2="BackgroundImageFix" result="effect1_dropShadow_2343_5523"/>
<feBlend mode="normal" in="SourceGraphic" in2="effect1_dropShadow_2343_5523" result="shape"/>
</filter>
</defs>
</svg>
