<svg width="32" height="33" viewBox="0 0 32 33" fill="none" xmlns="http://www.w3.org/2000/svg">
<rect y="0.5" width="32" height="32" rx="6" fill="#1F40AE"/>
<path d="M16.6206 17.6707H7.59766L8.12875 18.8332C8.29 19.1857 8.64156 19.4121 9.02922 19.4121H22.8409C23.2286 19.4121 23.5806 19.1861 23.7414 18.8332L24.2725 17.6707H16.6202H16.6206Z" fill="white"/>
<path d="M21.6878 9.46729L23.3688 17.032H8.50518L10.1861 9.46729H21.6874M21.7928 8.43604H10.0806C9.65924 8.43604 9.29408 8.729 9.20268 9.14057L7.46314 16.9687C7.33846 17.5303 7.76596 18.0632 8.34111 18.0632H23.5328C24.1085 18.0632 24.536 17.5303 24.4108 16.9687L22.6713 9.14057C22.5799 8.729 22.2147 8.43604 21.7933 8.43604H21.7928Z" fill="white"/>
<path d="M18.9859 19.4126H12.4258V22.8045H18.9859V19.4126Z" fill="white"/>
<path d="M24.411 22.8043H7.46289V24.4974H24.411V22.8043Z" fill="white"/>
</svg>
