<svg width="82" height="42" viewBox="0 0 82 42" fill="none" xmlns="http://www.w3.org/2000/svg">
<rect y="0.805664" width="82" height="40.2264" rx="8" fill="#EDEFF7"/>
<g clip-path="url(#clip0_2343_4455)">
<path d="M30.5303 33.2418V31.5989C30.5303 30.9705 30.1475 30.559 29.4904 30.559C29.1618 30.559 28.8045 30.6674 28.5589 31.0247C28.3675 30.7248 28.0931 30.559 27.6816 30.559C27.4073 30.559 27.1329 30.6419 26.916 30.9418V30.6132H26.3418V33.2418H26.916V31.7903C26.916 31.3246 27.1616 31.1045 27.5444 31.1045C27.9272 31.1045 28.1186 31.3501 28.1186 31.7903V33.2418H28.6929V31.7903C28.6929 31.3246 28.9672 31.1045 29.3213 31.1045C29.7041 31.1045 29.8955 31.3501 29.8955 31.7903V33.2418H30.5303ZM39.0477 30.6132H38.1162V29.8189H37.542V30.6132H37.0221V31.1332H37.542V32.339C37.542 32.9419 37.7877 33.296 38.4448 33.296C38.6904 33.296 38.9648 33.2131 39.1562 33.1046L38.9903 32.6102C38.8244 32.7186 38.633 32.7473 38.4959 32.7473C38.2215 32.7473 38.113 32.5815 38.113 32.3103V31.1332H39.0445V30.6132H39.0477ZM43.9221 30.5558C43.5935 30.5558 43.3734 30.7217 43.2363 30.9386V30.61H42.662V33.2386H43.2363V31.7584C43.2363 31.3214 43.4277 31.0726 43.7849 31.0726C43.8934 31.0726 44.0306 31.1013 44.1422 31.1268L44.3081 30.5781C44.1933 30.5558 44.0306 30.5558 43.9221 30.5558ZM36.5563 30.8301C36.282 30.6387 35.8992 30.5558 35.4876 30.5558C34.8305 30.5558 34.3935 30.8843 34.3935 31.4043C34.3935 31.8414 34.722 32.0902 35.2962 32.1699L35.5706 32.1986C35.8704 32.2529 36.0363 32.3358 36.0363 32.473C36.0363 32.6644 35.8162 32.8016 35.4334 32.8016C35.0506 32.8016 34.7476 32.6644 34.5562 32.5272L34.2818 32.9643C34.5817 33.1844 34.9932 33.2928 35.4047 33.2928C36.1703 33.2928 36.6105 32.9355 36.6105 32.4443C36.6105 31.9785 36.2533 31.7329 35.7078 31.65L35.4334 31.6212C35.1878 31.5925 34.9964 31.5383 34.9964 31.3756C34.9964 31.1842 35.1878 31.0758 35.4908 31.0758C35.8194 31.0758 36.148 31.2129 36.3139 31.2959L36.5563 30.8301ZM51.8334 30.5558C51.5048 30.5558 51.2847 30.7217 51.1476 30.9386V30.61H50.5733V33.2386H51.1476V31.7584C51.1476 31.3214 51.339 31.0726 51.6962 31.0726C51.8047 31.0726 51.9419 31.1013 52.0535 31.1268L52.2194 30.5845C52.1078 30.5558 51.9451 30.5558 51.8334 30.5558ZM44.4963 31.9275C44.4963 32.7218 45.045 33.296 45.8936 33.296C46.2764 33.296 46.5507 33.2131 46.825 32.9962L46.5507 32.5304C46.3306 32.6963 46.1137 32.776 45.8648 32.776C45.3991 32.776 45.0705 32.4475 45.0705 31.9275C45.0705 31.433 45.3991 31.1045 45.8648 31.0789C46.1105 31.0789 46.3306 31.1619 46.5507 31.3246L46.825 30.8588C46.5507 30.6387 46.2764 30.559 45.8936 30.559C45.045 30.5558 44.4963 31.1332 44.4963 31.9275ZM49.8077 31.9275V30.6132H49.2335V30.9418C49.0421 30.6961 48.7678 30.559 48.4105 30.559C47.6704 30.559 47.0962 31.1332 47.0962 31.9275C47.0962 32.7218 47.6704 33.296 48.4105 33.296C48.7933 33.296 49.0676 33.1588 49.2335 32.9132V33.2418H49.8077V31.9275ZM47.6991 31.9275C47.6991 31.4617 47.999 31.0789 48.4934 31.0789C48.9592 31.0789 49.2878 31.4362 49.2878 31.9275C49.2878 32.3932 48.9592 32.776 48.4934 32.776C48.0022 32.7473 47.6991 32.39 47.6991 31.9275ZM40.8278 30.5558C40.0622 30.5558 39.5135 31.1045 39.5135 31.9243C39.5135 32.7473 40.0622 33.2928 40.8565 33.2928C41.2393 33.2928 41.6221 33.1844 41.9251 32.9355L41.6508 32.524C41.4307 32.6899 41.1563 32.7984 40.8852 32.7984C40.5279 32.7984 40.1738 32.6325 40.0909 32.1699H42.0336C42.0336 32.087 42.0336 32.0328 42.0336 31.9498C42.0591 31.1045 41.5647 30.5558 40.8278 30.5558ZM40.8278 31.0502C41.1851 31.0502 41.4307 31.2703 41.4849 31.6787H40.1164C40.1706 31.3246 40.4163 31.0502 40.8278 31.0502ZM55.0936 31.9275V29.5732H54.5194V30.9418C54.328 30.6961 54.0537 30.559 53.6964 30.559C52.9563 30.559 52.3821 31.1332 52.3821 31.9275C52.3821 32.7218 52.9563 33.296 53.6964 33.296C54.0792 33.296 54.3535 33.1588 54.5194 32.9132V33.2418H55.0936V31.9275ZM52.985 31.9275C52.985 31.4617 53.2849 31.0789 53.7793 31.0789C54.2451 31.0789 54.5737 31.4362 54.5737 31.9275C54.5737 32.3932 54.2451 32.776 53.7793 32.776C53.2849 32.7473 52.985 32.39 52.985 31.9275ZM33.7618 31.9275V30.6132H33.1876V30.9418C32.9962 30.6961 32.7219 30.559 32.3646 30.559C31.6245 30.559 31.0503 31.1332 31.0503 31.9275C31.0503 32.7218 31.6245 33.296 32.3646 33.296C32.7474 33.296 33.0217 33.1588 33.1876 32.9132V33.2418H33.7618V31.9275ZM31.6277 31.9275C31.6277 31.4617 31.9276 31.0789 32.422 31.0789C32.8878 31.0789 33.2163 31.4362 33.2163 31.9275C33.2163 32.3932 32.8878 32.776 32.422 32.776C31.9276 32.7473 31.6277 32.39 31.6277 31.9275Z" fill="black"/>
<path d="M44.9911 10.6499H36.3652V26.1471H44.9911V10.6499Z" fill="#FF5A00"/>
<path d="M36.9399 18.3987C36.9399 15.2502 38.42 12.4557 40.6913 10.6501C39.0198 9.33582 36.9112 8.5415 34.6111 8.5415C29.1625 8.5415 24.7539 12.9501 24.7539 18.3987C24.7539 23.8473 29.1625 28.256 34.6111 28.256C36.9112 28.256 39.0198 27.4616 40.6913 26.1473C38.4169 24.3673 36.9399 21.5473 36.9399 18.3987Z" fill="#EB001B"/>
<path d="M56.6288 18.3987C56.6288 23.8473 52.2202 28.256 46.7716 28.256C44.4716 28.256 42.363 27.4616 40.6914 26.1473C42.9914 24.3386 44.4429 21.5473 44.4429 18.3987C44.4429 15.2502 42.9627 12.4557 40.6914 10.6501C42.3598 9.33582 44.4684 8.5415 46.7684 8.5415C52.2202 8.5415 56.6288 12.9789 56.6288 18.3987Z" fill="#F79E1B"/>
</g>
<defs>
<clipPath id="clip0_2343_4455">
<rect width="31.8749" height="24.7547" fill="white" transform="translate(24.7539 8.5415)"/>
</clipPath>
</defs>
</svg>
