<svg width="82" height="41" viewBox="0 0 82 41" fill="none" xmlns="http://www.w3.org/2000/svg">
<rect y="0.0322266" width="82" height="40.2264" rx="8" fill="#EDEFF7"/>
<g clip-path="url(#clip0_2343_4501)">
<path d="M30.2648 15.5034C30.1447 15.5034 30.0426 15.5906 30.0239 15.7093L28.6336 24.526C28.6285 24.5583 28.6305 24.5912 28.6394 24.6225C28.6483 24.6539 28.6639 24.683 28.685 24.7078C28.7062 24.7325 28.7325 24.7524 28.7621 24.7661C28.7918 24.7797 28.824 24.7868 28.8566 24.7868H30.5053C30.6253 24.7868 30.7274 24.6994 30.7462 24.5808L31.1546 21.9918C31.1732 21.8732 31.2754 21.7858 31.3955 21.7858H32.8945C34.646 21.7858 36.1327 20.5079 36.4043 18.7763C36.6781 17.03 35.3139 15.5072 33.3803 15.5034H30.2648ZM31.8675 17.4716H33.0668C34.0542 17.4716 34.3758 18.0543 34.2741 18.6986C34.1724 19.3442 33.6731 19.8198 32.7179 19.8198H31.4972L31.8675 17.4716ZM39.7576 18.071C39.3413 18.0725 38.8623 18.1578 38.3245 18.3818C37.0908 18.896 36.4984 19.9587 36.2468 20.7335C36.2468 20.7335 35.4461 23.0972 37.2552 24.3958C37.2552 24.3958 38.9331 25.646 40.8219 24.3187L40.7893 24.526C40.7843 24.5582 40.7863 24.5911 40.7951 24.6225C40.804 24.6538 40.8195 24.6829 40.8407 24.7076C40.8618 24.7324 40.8881 24.7523 40.9176 24.766C40.9472 24.7796 40.9794 24.7867 41.012 24.7868H42.5771C42.6972 24.7868 42.7993 24.6994 42.818 24.5808L43.7701 18.5431C43.7752 18.5109 43.7733 18.478 43.7644 18.4466C43.7556 18.4152 43.7401 18.3861 43.7189 18.3613C43.6978 18.3365 43.6715 18.3166 43.6419 18.3029C43.6123 18.2892 43.5801 18.2821 43.5475 18.2821H41.9823C41.8622 18.2821 41.76 18.3694 41.7414 18.488L41.6902 18.813C41.6902 18.813 41.0068 18.0663 39.7576 18.071ZM39.8088 19.978C39.9886 19.978 40.153 20.0028 40.3005 20.0502C40.9758 20.267 41.3587 20.9158 41.2479 21.619C41.1112 22.4849 40.4011 23.1225 39.4904 23.1225C39.3108 23.1225 39.1464 23.0979 38.9988 23.0505C38.3236 22.8337 37.9383 22.1849 38.0491 21.4817C38.1858 20.6158 38.8981 19.978 39.8088 19.978Z" fill="#003087"/>
<path d="M52.8038 15.5034C52.6837 15.5034 52.5817 15.5906 52.5629 15.7093L51.1726 24.526C51.1676 24.5583 51.1696 24.5912 51.1785 24.6225C51.1873 24.6539 51.2029 24.683 51.2241 24.7078C51.2453 24.7325 51.2716 24.7524 51.3012 24.7661C51.3308 24.7797 51.363 24.7868 51.3956 24.7868H53.0444C53.1643 24.7868 53.2665 24.6994 53.2853 24.5808L53.6937 21.9918C53.7123 21.8732 53.8145 21.7858 53.9346 21.7858H55.4336C57.185 21.7858 58.6716 20.5079 58.943 18.7763C59.217 17.03 57.8529 15.5072 55.9194 15.5034H52.8038ZM54.4066 17.4716H55.6059C56.5933 17.4716 56.9148 18.0543 56.8132 18.6986C56.7115 19.3442 56.2123 19.8198 55.257 19.8198H54.0363L54.4066 17.4716ZM62.2965 18.071C61.8802 18.0725 61.4012 18.1578 60.8634 18.3818C59.6297 18.896 59.0373 19.9587 58.7857 20.7335C58.7857 20.7335 57.9853 23.0972 59.7945 24.3958C59.7945 24.3958 61.472 25.646 63.361 24.3187L63.3284 24.526C63.3233 24.5583 63.3253 24.5912 63.3342 24.6225C63.3431 24.6539 63.3587 24.683 63.3798 24.7078C63.401 24.7325 63.4273 24.7524 63.457 24.7661C63.4866 24.7797 63.5188 24.7868 63.5514 24.7868H65.1164C65.2365 24.7868 65.3385 24.6994 65.3573 24.5808L66.3097 18.5431C66.3148 18.5109 66.3129 18.4779 66.304 18.4465C66.2951 18.4151 66.2796 18.386 66.2584 18.3612C66.2372 18.3364 66.2109 18.3165 66.1812 18.3028C66.1516 18.2891 66.1193 18.2821 66.0867 18.2821H64.5215C64.4014 18.2821 64.2992 18.3694 64.2806 18.488L64.2294 18.813C64.2294 18.813 63.5457 18.0663 62.2965 18.071ZM62.3477 19.978C62.5275 19.978 62.6918 20.0028 62.8394 20.0502C63.5147 20.267 63.8976 20.9158 63.7868 21.619C63.6501 22.4849 62.94 23.1225 62.0293 23.1225C61.8497 23.1225 61.6853 23.0979 61.5377 23.0505C60.8625 22.8337 60.4772 22.1849 60.588 21.4817C60.7247 20.6158 61.437 19.978 62.3477 19.978Z" fill="#0070E0"/>
<path d="M44.5133 18.2819C44.3893 18.2819 44.301 18.4031 44.339 18.5211L46.0549 23.8459L44.5033 26.3552C44.428 26.4771 44.5156 26.6344 44.6588 26.6344H46.4926C46.545 26.6343 46.5966 26.6208 46.6423 26.595C46.6879 26.5692 46.7262 26.5321 46.7533 26.4872L51.5457 18.5593C51.6193 18.4375 51.5314 18.2817 51.3891 18.2817H49.5554C49.5025 18.2818 49.4504 18.2956 49.4044 18.3219C49.3584 18.3481 49.3201 18.3859 49.2931 18.4315L47.4068 21.6163L46.4492 18.4551C46.418 18.3522 46.323 18.2817 46.2157 18.2817L44.5133 18.2819Z" fill="#003087"/>
<path d="M68.0894 15.5034C67.9694 15.5034 67.8673 15.5908 67.8485 15.7093L66.4579 24.5257C66.4528 24.5579 66.4547 24.5909 66.4636 24.6223C66.4724 24.6537 66.488 24.6828 66.5092 24.7076C66.5304 24.7325 66.5567 24.7524 66.5863 24.766C66.616 24.7797 66.6482 24.7868 66.6808 24.7868H68.3296C68.4495 24.7868 68.5517 24.6994 68.5705 24.5808L69.9608 15.7641C69.9658 15.732 69.9638 15.6991 69.955 15.6677C69.9461 15.6364 69.9306 15.6073 69.9094 15.5826C69.8883 15.5578 69.862 15.5379 69.8324 15.5242C69.8029 15.5106 69.7707 15.5035 69.7381 15.5034H68.0894Z" fill="#0070E0"/>
<path d="M16.5199 15.5034C16.4137 15.5035 16.311 15.5415 16.2303 15.6105C16.1496 15.6795 16.0961 15.775 16.0795 15.8799L15.3477 20.5215C15.3818 20.3047 15.5686 20.145 15.7881 20.145H17.9326C20.0909 20.145 21.9223 18.5705 22.257 16.4369C22.2819 16.2776 22.296 16.1168 22.2992 15.9556C21.7507 15.668 21.1064 15.5034 20.4004 15.5034H16.5199Z" fill="#001C64"/>
<path d="M22.2985 15.9556C22.2953 16.1168 22.2811 16.2776 22.2562 16.4369C21.9216 18.5705 20.09 20.145 17.9319 20.145H15.7874C15.568 20.145 15.3811 20.3046 15.3469 20.5215L14.674 24.7868L14.2525 27.4625C14.2443 27.5142 14.2474 27.5671 14.2616 27.6175C14.2758 27.6679 14.3007 27.7146 14.3347 27.7544C14.3687 27.7942 14.4109 27.8261 14.4585 27.8481C14.506 27.87 14.5578 27.8813 14.6101 27.8813H16.9378C17.044 27.8812 17.1467 27.8432 17.2274 27.7742C17.3082 27.7052 17.3616 27.6096 17.3782 27.5047L17.9913 23.616C18.008 23.5111 18.0615 23.4155 18.1423 23.3464C18.2231 23.2774 18.3259 23.2395 18.4321 23.2395H19.8026C21.9609 23.2395 23.7923 21.665 24.1269 19.5314C24.3646 18.017 23.6019 16.639 22.2985 15.9556Z" fill="#0070E0"/>
<path d="M13.875 12.4097C13.6557 12.4097 13.4687 12.5692 13.4346 12.7858L11.608 24.3684C11.5734 24.5883 11.7433 24.7872 11.9659 24.7872H14.6746L15.3472 20.5219L16.079 15.8803C16.0956 15.7754 16.1491 15.6799 16.2298 15.6109C16.3106 15.5419 16.4132 15.5039 16.5195 15.5038H20.3999C21.1061 15.5038 21.7502 15.6686 22.2987 15.956C22.3363 14.0134 20.7333 12.4097 18.5296 12.4097H13.875Z" fill="#003087"/>
</g>
<defs>
<clipPath id="clip0_2343_4501">
<rect width="58.3588" height="15.4717" fill="white" transform="translate(11.6035 12.4097)"/>
</clipPath>
</defs>
</svg>
