<svg width="82" height="42" viewBox="0 0 82 42" fill="none" xmlns="http://www.w3.org/2000/svg">
<rect y="0.805664" width="82" height="40.2264" rx="8" fill="#00579F"/>
<g clip-path="url(#clip0_2343_4446)">
<path d="M37.7359 28.4316H33.8633L36.2855 13.4546H40.1578L37.7359 28.4316Z" fill="white"/>
<path d="M51.7729 13.8207C51.0091 13.5177 49.7976 13.1831 48.2995 13.1831C44.4752 13.1831 41.7822 15.2224 41.7657 18.138C41.7339 20.2892 43.6938 21.484 45.1597 22.2012C46.6579 22.9341 47.1672 23.4125 47.1672 24.0658C47.152 25.0692 45.9565 25.5317 44.8416 25.5317C43.2955 25.5317 42.4671 25.2932 41.2081 24.735L40.6982 24.4957L40.1562 27.8577C41.0645 28.2715 42.7379 28.6387 44.4752 28.6548C48.5386 28.6548 51.184 26.647 51.2154 23.54C51.2308 21.8351 50.1959 20.5287 47.9647 19.4612C46.6103 18.7759 45.7808 18.3138 45.7808 17.6126C45.7967 16.9752 46.4824 16.3223 48.0113 16.3223C49.2703 16.2904 50.1953 16.593 50.896 16.8958L51.2463 17.0548L51.7729 13.8207Z" fill="white"/>
<path d="M56.9212 23.1258C57.2401 22.2654 58.4673 18.9353 58.4673 18.9353C58.4512 18.9673 58.7856 18.059 58.9768 17.5015L59.2475 18.792C59.2475 18.792 59.9808 22.377 60.1401 23.1258C59.5348 23.1258 57.6861 23.1258 56.9212 23.1258ZM61.7014 13.4546H58.706C57.7823 13.4546 57.0805 13.7252 56.6819 14.6972L50.9297 28.4314H54.9931C54.9931 28.4314 55.662 26.5829 55.8058 26.1848C56.2516 26.1848 60.2044 26.1848 60.7779 26.1848C60.8891 26.7106 61.24 28.4314 61.24 28.4314H64.8256L61.7014 13.4546Z" fill="white"/>
<path d="M30.6275 13.4546L26.8349 23.6675L26.4205 21.5962C25.7194 19.2062 23.5204 16.6095 21.0664 15.3184L24.5402 28.4157H28.6354L34.7224 13.4546H30.6275Z" fill="white"/>
<path d="M23.3139 13.4546H17.0833L17.0195 13.7572C21.8798 15.0001 25.0987 17.9959 26.4211 21.5968L25.0667 14.7135C24.8437 13.757 24.1584 13.4861 23.3139 13.4546Z" fill="#FAA61A"/>
</g>
<defs>
<clipPath id="clip0_2343_4446">
<rect width="47.8055" height="15.4717" fill="white" transform="translate(17.0195 13.1831)"/>
</clipPath>
</defs>
</svg>
