<svg width="41" height="40" viewBox="0 0 41 40" fill="none" xmlns="http://www.w3.org/2000/svg">
<g clip-path="url(#clip0_781_35778)">
<mask id="mask0_781_35778" style="mask-type:luminance" maskUnits="userSpaceOnUse" x="0" y="0" width="41" height="40">
<path d="M0.333252 3.8147e-06H40.3332V40H0.333252V3.8147e-06Z" fill="white"/>
</mask>
<g mask="url(#mask0_781_35778)">
<path d="M0.630615 6.30063C0.630615 2.78977 3.50202 -0.0504675 7.02452 0.000235558C10.4366 0.0492983 13.2111 2.84758 13.2327 6.25992C13.2448 8.17086 12.4058 9.88602 11.0729 11.0494C10.9322 11.1721 10.9525 11.3962 11.1132 11.4913L12.3005 12.1937C12.4924 12.3073 12.4119 12.6016 12.1888 12.6016L6.81241 12.6002C3.38749 12.5366 0.630615 9.7407 0.630615 6.30063Z" fill="#6AB0C9"/>
<path d="M12.3003 12.1938L11.1131 11.4913C10.9532 11.3967 10.931 11.173 11.0709 11.0509C12.4191 9.87516 13.2624 8.13516 13.2319 6.19875C13.1789 2.8493 10.468 0.0998449 7.11954 0.00226688C6.64462 -0.0115614 6.18134 0.0272675 5.73462 0.113204C8.62899 0.66797 10.8347 3.21922 10.8539 6.25992C10.8632 7.7325 10.3673 9.08875 9.52923 10.1659C9.02321 10.8163 9.18767 11.7594 9.89688 12.1791L9.92173 12.1938C10.1116 12.306 10.0345 12.5947 9.81712 12.6009L12.1887 12.6016C12.4117 12.6016 12.4923 12.3073 12.3003 12.1938Z" fill="#1F88AE"/>
<path d="M31.3326 22.8711H17.0384C13.4682 22.8711 11.5146 18.7105 13.7948 15.9634L13.9216 15.8105C14.9261 14.6002 15.476 13.077 15.476 11.5041V8.74758C15.476 3.91617 19.3925 -0.000389099 24.2239 -0.000389099C29.0553 -0.000389099 32.9719 3.91617 32.9719 8.74758V11.5971C32.9719 13.1864 33.5333 14.7247 34.557 15.9403C36.8657 18.6819 34.9168 22.8711 31.3326 22.8711Z" fill="#152B74"/>
<path d="M38.8465 29.9553V39.4053H9.52466V30.0264C9.52466 27.9029 10.7972 25.9865 12.7536 25.1631L17.4872 23.1053L19.0808 22.4123C20.2902 21.8865 21.0722 20.6936 21.0722 19.3748V18.7631H27.2981V19.3436C27.2981 20.6678 28.0879 21.8654 29.3058 22.3873L35.7082 25.1318C37.616 25.9771 38.8465 27.8678 38.8465 29.9553Z" fill="white"/>
<path d="M17.4867 25.3583C19.1023 25.841 21.4801 26.3558 24.3787 26.3051C27.0983 26.2576 29.3308 25.7288 30.8841 25.2327L31.656 23.3947L29.3055 22.3872C28.0878 21.8654 27.2983 20.6679 27.2983 19.3432V18.7632H21.0725V19.3747C21.0725 20.6933 20.2905 21.8862 19.0812 22.4119L17.1775 23.2397L17.4867 25.3583Z" fill="#FFCEBF"/>
<path d="M35.7079 25.1316L30.8851 23.0645L30.8843 23.0646V39.4053H38.8466V29.9554C38.8466 27.8682 37.6162 25.9771 35.7079 25.1316Z" fill="#1F40AE"/>
<path d="M17.4872 23.1053V39.4053H9.52466V30.0264C9.52466 27.9029 10.7972 25.9865 12.7536 25.1631L17.4872 23.1053Z" fill="#1F40AE"/>
<path d="M26.3437 22.1807C27.0599 22.1807 27.7424 22.0368 28.3646 21.7773C27.6972 21.1613 27.2985 20.2847 27.2985 19.3436V18.7636H21.0726V19.3751C21.0726 19.8514 20.9701 20.3111 20.7827 20.7292C21.7254 21.6279 23.0008 22.1807 24.4061 22.1807H26.3437Z" fill="#FFB09E"/>
<path d="M30.4081 9.3977V14.5481C30.4081 17.4496 28.0559 19.8018 25.1544 19.8018H23.2168C20.3153 19.8018 17.9631 17.4496 17.9631 14.5481V9.3977C17.9631 7.51012 19.4933 5.97988 21.3809 5.97988H26.9902C28.8778 5.97988 30.4081 7.51012 30.4081 9.3977Z" fill="#FFCEBF"/>
<path d="M30.4081 12.0777C30.4058 12.0848 30.403 12.0917 30.4008 12.099C30.2109 12.7548 29.7125 13.9938 28.508 14.9226C27.947 15.3551 27.3073 15.6677 26.6065 15.8516C26.2888 15.9349 26.0989 16.26 26.1822 16.5777C26.2523 16.8447 26.4933 17.0215 26.757 17.0215C26.807 17.0215 26.8578 17.0152 26.9083 17.0019C27.764 16.7773 28.5465 16.3946 29.2342 15.8644C29.7091 15.4982 30.0935 15.0937 30.4046 14.6869C30.4059 14.6408 30.4081 14.5949 30.4081 14.5485V12.0777Z" fill="#7A6D79"/>
<path d="M25.9541 17.4951H24.5606C23.9263 17.4951 23.4121 16.9809 23.4121 16.3466C23.4121 15.7124 23.9263 15.1982 24.5606 15.1982H25.9541C26.5884 15.1982 27.1027 15.7124 27.1027 16.3466C27.1027 16.9809 26.5884 17.4951 25.9541 17.4951Z" fill="#685E68"/>
<path d="M25.4271 4.6174C25.5606 2.93459 27.1717 1.81779 28.7135 1.23936C31.2643 2.76779 32.972 5.5585 32.972 8.74842V9.34982C32.831 9.37943 32.6907 9.40537 32.5519 9.426C31.7025 9.55287 30.979 9.49803 30.4849 9.426C27.3003 9.00178 25.266 6.64982 25.4271 4.6174Z" fill="#0A153A"/>
<path d="M24.224 0.000234604C26.1997 0.000234604 28.0222 0.655392 29.4865 1.76C28.7561 3.03117 27.0786 5.54445 23.9329 7.40508C21.5979 8.78641 19.396 9.25055 18.04 9.42578H15.4761V8.7482C15.4761 3.9168 19.3926 0.000234604 24.224 0.000234604Z" fill="#0F2057"/>
<path d="M34.0029 39.4053H14.9673L13.9174 29.5009C13.8429 28.7984 14.3936 28.1862 15.1001 28.1862H33.8701C34.5765 28.1862 35.1273 28.7984 35.0527 29.5009L34.0029 39.4053Z" fill="#EFEDEF"/>
<path d="M33.87 28.1862H31.4915C32.1979 28.1862 32.7486 28.7984 32.6741 29.5009L31.6242 39.4053H34.0028L35.0527 29.5009C35.1272 28.7984 34.5765 28.1862 33.87 28.1862Z" fill="#E5E1E5"/>
<path d="M39.7473 40H0.919189C0.595518 40 0.333252 39.7377 0.333252 39.4141C0.333252 39.0905 0.595518 38.8281 0.919189 38.8281H39.7473C40.071 38.8281 40.3332 39.0905 40.3332 39.4141C40.3332 39.7377 40.071 40 39.7473 40Z" fill="#C9BFC8"/>
<path d="M26.1501 33.7959C26.1501 34.7155 25.4046 35.4609 24.4851 35.4609C23.5655 35.4609 22.8201 34.7155 22.8201 33.7959C22.8201 32.8763 23.5655 32.1309 24.4851 32.1309C25.4046 32.1309 26.1501 32.8763 26.1501 33.7959Z" fill="#C9BFC8"/>
<path d="M5.14779 6.3009C5.14779 6.62934 4.88162 6.89551 4.55318 6.89551C4.22475 6.89551 3.9585 6.62934 3.9585 6.3009C3.9585 5.97246 4.22475 5.70621 4.55318 5.70621C4.88162 5.70621 5.14779 5.97246 5.14779 6.3009Z" fill="white"/>
<path d="M7.52621 6.3009C7.52621 6.62934 7.25996 6.89551 6.9316 6.89551C6.60316 6.89551 6.33691 6.62934 6.33691 6.3009C6.33691 5.97246 6.60316 5.70621 6.9316 5.70621C7.25996 5.70621 7.52621 5.97246 7.52621 6.3009Z" fill="white"/>
<path d="M9.90495 6.3009C9.90495 6.62934 9.6387 6.89551 9.31026 6.89551C8.9819 6.89551 8.71558 6.62934 8.71558 6.3009C8.71558 5.97246 8.9819 5.70621 9.31026 5.70621C9.6387 5.70621 9.90495 5.97246 9.90495 6.3009Z" fill="white"/>
</g>
</g>
<defs>
<clipPath id="clip0_781_35778">
<rect width="40" height="40" fill="white" transform="translate(0.333252)"/>
</clipPath>
</defs>
</svg>
