<svg width="40" height="40" viewBox="0 0 40 40" fill="none" xmlns="http://www.w3.org/2000/svg">
<path d="M25 3.33301H8.33333C6.49238 3.33301 5 4.82539 5 6.66634V33.333C5 35.174 6.49238 36.6663 8.33333 36.6663H25C26.841 36.6663 28.3333 35.174 28.3333 33.333V6.66634C28.3333 4.82539 26.841 3.33301 25 3.33301Z" fill="#1F40AE"/>
<path d="M23.3333 8.33301V14.9997H9.99992V8.33301H23.3333Z" fill="#EDEBEA"/>
<path d="M28.3333 8.33301H33.3333C34.2531 8.33301 34.9999 9.07984 34.9999 9.99967V23.333C34.9999 24.2528 34.2531 24.9997 33.3333 24.9997H28.3333V8.33301Z" fill="#449CBB"/>
<path d="M22.4998 21.25H19.1665C18.4763 21.25 17.9165 20.6902 17.9165 20C17.9165 19.3098 18.4763 18.75 19.1665 18.75H22.4998C23.19 18.75 23.7498 19.3098 23.7498 20C23.7498 20.6902 23.19 21.25 22.4998 21.25Z" fill="#B4BFE4"/>
<path d="M14.1666 21.25H10.8333C10.1431 21.25 9.58325 20.6902 9.58325 20C9.58325 19.3098 10.1431 18.75 10.8333 18.75H14.1666C14.8568 18.75 15.4166 19.3098 15.4166 20C15.4166 20.6902 14.8568 21.25 14.1666 21.25Z" fill="#B4BFE4"/>
<path d="M22.4998 26.25H19.1665C18.4763 26.25 17.9165 25.6902 17.9165 25C17.9165 24.3098 18.4763 23.75 19.1665 23.75H22.4998C23.19 23.75 23.7498 24.3098 23.7498 25C23.7498 25.6902 23.19 26.25 22.4998 26.25Z" fill="#B4BFE4"/>
<path d="M14.1666 26.25H10.8333C10.1431 26.25 9.58325 25.6902 9.58325 25C9.58325 24.3098 10.1431 23.75 10.8333 23.75H14.1666C14.8568 23.75 15.4166 24.3098 15.4166 25C15.4166 25.6902 14.8568 26.25 14.1666 26.25Z" fill="#B4BFE4"/>
<path d="M22.4998 31.25H19.1665C18.4763 31.25 17.9165 30.6902 17.9165 30C17.9165 29.3098 18.4763 28.75 19.1665 28.75H22.4998C23.19 28.75 23.7498 29.3098 23.7498 30C23.7498 30.6902 23.19 31.25 22.4998 31.25Z" fill="#B4BFE4"/>
<path d="M14.1666 31.25H10.8333C10.1431 31.25 9.58325 30.6902 9.58325 30C9.58325 29.3098 10.1431 28.75 10.8333 28.75H14.1666C14.8568 28.75 15.4166 29.3098 15.4166 30C15.4166 30.6902 14.8568 31.25 14.1666 31.25Z" fill="#B4BFE4"/>
</svg>
