<svg width="41" height="40" viewBox="0 0 41 40" fill="none" xmlns="http://www.w3.org/2000/svg">
<g clip-path="url(#clip0_781_35747)">
<path d="M37.7826 7.65039H3.55054V36.9504H37.7826V7.65039Z" fill="#D2D9EF"/>
<path d="M37.7831 7.65039H33.437V36.9504H37.7831V7.65039Z" fill="#B4BFE4"/>
<path d="M37.9024 7.65016H3.43115V2.84031C3.43115 2.45602 3.74264 2.14453 4.12693 2.14453H37.2066C37.5909 2.14453 37.9024 2.45602 37.9024 2.84031V7.65016Z" fill="#1F88AE"/>
<path d="M37.2067 2.14453H33.5564V5.76539H37.9025V2.84031C37.9025 2.45609 37.591 2.14453 37.2067 2.14453Z" fill="#1F88AE"/>
<path d="M3.55049 16.373C1.97502 16.373 0.697754 15.0958 0.697754 13.5204V11.1963H6.40314V13.5204C6.40322 15.0958 5.12596 16.373 3.55049 16.373Z" fill="#4460BB"/>
<path d="M9.25605 16.373C7.68059 16.373 6.40332 15.0958 6.40332 13.5204V11.1963H12.1087V13.5204C12.1088 15.0958 10.8315 16.373 9.25605 16.373Z" fill="#B4BFE4"/>
<path d="M14.9614 16.373C13.3859 16.373 12.1086 15.0958 12.1086 13.5204V11.1963H17.814V13.5204C17.8141 15.0958 16.5368 16.373 14.9614 16.373Z" fill="#4460BB"/>
<path d="M20.6667 16.373C19.0912 16.373 17.814 15.0958 17.814 13.5204V11.1963H23.5194V13.5204C23.5194 15.0958 22.2422 16.373 20.6667 16.373Z" fill="#B4BFE4"/>
<path d="M26.372 16.373C24.7966 16.373 23.5193 15.0958 23.5193 13.5204V11.1963H29.2247V13.5204C29.2248 15.0958 27.9475 16.373 26.372 16.373Z" fill="#4460BB"/>
<path d="M32.0776 16.373C30.5021 16.373 29.2249 15.0958 29.2249 13.5204V11.1963H34.9302V13.5204C34.9303 15.0958 33.6531 16.373 32.0776 16.373Z" fill="#B4BFE4"/>
<path d="M37.7829 16.373C36.2074 16.373 34.9302 15.0958 34.9302 13.5204V11.1963H40.6356V13.5204C40.6356 15.0958 39.3584 16.373 37.7829 16.373Z" fill="#4460BB"/>
<path d="M6.40314 11.1956H0.697754L3.42814 5.76562H8.35346L6.40314 11.1956Z" fill="#1F40AE"/>
<path d="M12.1087 11.1956H6.40332L8.35363 5.76562H13.2789L12.1087 11.1956Z" fill="#8F9FD6"/>
<path d="M17.814 11.1956H12.1086L13.2788 5.76562H18.2041L17.814 11.1956Z" fill="#1F40AE"/>
<path d="M23.5194 11.1956H17.814L18.204 5.76562H23.1294L23.5194 11.1956Z" fill="#8F9FD6"/>
<path d="M29.2248 11.1956H23.5194L23.1294 5.76562H28.0547L29.2248 11.1956Z" fill="#1F40AE"/>
<path d="M34.9302 11.1956H29.2248L28.0547 5.76562H32.9799L34.9302 11.1956Z" fill="#8F9FD6"/>
<path d="M40.6356 11.1956H34.9302L32.98 5.76562H37.9053L40.6356 11.1956Z" fill="#1F40AE"/>
<path d="M39.3639 34.2734H1.96964C1.25011 34.2734 0.666748 34.8567 0.666748 35.5763V37.4856C0.666748 37.6896 0.832139 37.8549 1.03604 37.8549H40.2974C40.5014 37.8549 40.6667 37.6895 40.6667 37.4856V35.5763C40.6667 34.8567 40.0834 34.2734 39.3639 34.2734Z" fill="#152B74"/>
<path d="M39.3639 34.2734H36.3074V37.8549H40.2975C40.5015 37.8549 40.6668 37.6896 40.6668 37.4856V35.5763C40.6668 34.8567 40.0835 34.2734 39.3639 34.2734Z" fill="#1A3591"/>
<path d="M34.411 30.4444H16.8397C16.553 30.4444 16.3206 30.212 16.3206 29.9253V20.2564C16.3206 19.9697 16.553 19.7373 16.8397 19.7373H34.411C34.6977 19.7373 34.9302 19.9697 34.9302 20.2564V29.9254C34.9302 30.212 34.6977 30.4444 34.411 30.4444Z" fill="#1F88AE"/>
<path d="M34.4112 19.7373H30.5708V30.4444H34.4112C34.6979 30.4444 34.9303 30.212 34.9303 29.9253V20.2564C34.9303 19.9697 34.6979 19.7373 34.4112 19.7373Z" fill="#1A7191"/>
<path d="M13.8528 34.2737H5.83594V20.2564C5.83594 19.9697 6.06836 19.7373 6.35508 19.7373H13.3337C13.6204 19.7373 13.8528 19.9697 13.8528 20.2564V34.2737Z" fill="#1F88AE"/>
<path d="M13.3336 19.7373H9.49316V34.2737H13.8526V20.2564C13.8527 19.9697 13.6203 19.7373 13.3336 19.7373Z" fill="#1A7191"/>
<path d="M11.6124 27.948C11.9457 27.948 12.216 27.6777 12.216 27.3444V26.2579C12.216 25.9245 11.9457 25.6543 11.6124 25.6543C11.279 25.6543 11.0088 25.9245 11.0088 26.2579V27.3444C11.0087 27.6777 11.279 27.948 11.6124 27.948Z" fill="#8F9FD6"/>
</g>
<defs>
<clipPath id="clip0_781_35747">
<rect width="40" height="40" fill="white" transform="translate(0.666748)"/>
</clipPath>
</defs>
</svg>
