<svg width="1440" height="838" viewBox="0 0 1440 838" fill="none" xmlns="http://www.w3.org/2000/svg">
<path opacity="0.4" d="M1309.25 733.661C983.6 595.791 713.55 384.891 398.73 208.001C302.46 153.961 195.8 98.2711 86.3 67.1611C-71.76 18.7511 -239.87 -3.75892 -407.58 0.511077C-473.45 112.001 -519.63 237.621 -540.08 373.541C-546.37 415.361 -549.77 456.931 -551 498.181C-293.29 390.191 11.3099 390.621 275.4 485.321C516.71 550.581 1138.11 859.441 1476.63 836.361C1482.03 818.921 1486.94 801.241 1491.46 783.371C1429.34 777.801 1366.42 755.031 1309.27 733.651L1309.25 733.661Z" fill="url(#paint0_linear_781_33836)"/>
<defs>
<linearGradient id="paint0_linear_781_33836" x1="-226.5" y1="26.5" x2="1549.5" y2="870" gradientUnits="userSpaceOnUse">
<stop stop-color="#B4BFE4"/>
<stop offset="1" stop-color="#C0CAE8" stop-opacity="0"/>
</linearGradient>
</defs>
</svg>
