<svg width="1245" height="416" viewBox="0 0 1245 416" fill="none" xmlns="http://www.w3.org/2000/svg">
<path opacity="0.4" d="M1062.25 103.929C736.6 241.799 466.55 452.699 151.73 629.589C55.46 683.629 -51.2 739.319 -160.7 770.429C-318.76 818.839 -486.87 841.349 -654.58 837.079C-720.45 725.589 -766.63 599.969 -787.08 464.049C-793.37 422.229 -796.77 380.659 -798 339.409C-540.29 447.399 -235.69 446.969 28.4 352.269C269.71 287.009 891.11 -21.8513 1229.63 1.22876C1235.03 18.6688 1239.94 36.3488 1244.46 54.2188C1182.34 59.7888 1119.42 82.5587 1062.27 103.939L1062.25 103.929Z" fill="#6A80C9" fill-opacity="0.2"/>
</svg>
