<svg width="424" height="376" viewBox="0 0 424 376" fill="none" xmlns="http://www.w3.org/2000/svg">
<path opacity="0.4" d="M173.12 352.456C203.303 433.522 185.036 524.493 123.747 601.514C46.2984 581.757 -19.2054 541.251 -59.8744 485.542C-36.798 471.905 -18.3463 454.295 -4.89108 432.153C42.773 357.952 -86.7016 187.53 -43.1036 96.0318C-31.1334 88.4567 -18.6284 81.3309 -5.53342 74.7826C-16.7616 112.363 154.829 297.61 173.125 352.458L173.12 352.456Z" fill="#152B74"/>
<path opacity="0.4" d="M-30.4564 154.074C42.3977 228.82 136.589 282.878 222.271 351.56C248.454 372.567 276 396.184 295.164 422.569C324.052 460.367 344.642 502.948 355.834 547.621C321.822 574.181 281.379 596.696 235.387 613.257C221.236 618.352 206.954 622.663 192.619 626.374C210.896 549.402 187.704 468.937 134.606 406.917C93.5273 348.5 -61.5032 209.627 -79.0376 118.268C-73.3463 115.41 -67.534 112.661 -61.6257 110C-54.9786 125.959 -42.2552 140.719 -30.4544 154.068L-30.4564 154.074Z" fill="#152B74"/>
<path opacity="0.4" d="M17.7514 306.229C-23.552 285.465 -95.202 253.665 -127.628 214.123C-127.305 213.99 -126.993 213.844 -126.67 213.712C-122.404 211.977 -118.105 210.379 -113.81 208.773C-100.932 220.116 -84.2861 229.523 -68.9108 237.926C33.3778 288.855 150.183 316.032 261.727 357.305C300.259 371.331 339.471 387.839 371.538 409.819C380.862 415.931 389.876 422.353 398.565 429.056C400.316 461.583 394.752 494.305 382.53 525.864C363.026 496.314 337.367 469.377 306.896 446.403C223.331 386.969 114.975 354.043 17.7444 306.23L17.7514 306.229Z" fill="#152B74"/>
</svg>
