<svg width="20" height="21" viewBox="0 0 20 21" fill="none" xmlns="http://www.w3.org/2000/svg">
<path d="M10 1.75C5.16797 1.75 1.25 5.66797 1.25 10.5C1.25 15.332 5.16797 19.25 10 19.25C14.832 19.25 18.75 15.332 18.75 10.5C18.75 5.66797 14.832 1.75 10 1.75ZM13.7793 7.64258L9.66602 13.3457C9.60853 13.4259 9.53274 13.4913 9.44493 13.5364C9.35713 13.5815 9.25984 13.6051 9.16113 13.6051C9.06242 13.6051 8.96513 13.5815 8.87733 13.5364C8.78953 13.4913 8.71374 13.4259 8.65625 13.3457L6.2207 9.9707C6.14648 9.86719 6.2207 9.72266 6.34766 9.72266H7.26367C7.46289 9.72266 7.65234 9.81836 7.76953 9.98242L9.16016 11.9121L12.2305 7.6543C12.3477 7.49219 12.5352 7.39453 12.7363 7.39453H13.6523C13.7793 7.39453 13.8535 7.53906 13.7793 7.64258Z" fill="#6A80C9"/>
</svg>
