<svg width="36" height="37" viewBox="0 0 36 37" fill="none" xmlns="http://www.w3.org/2000/svg">
<g clip-path="url(#clip0_781_33859)">
<path d="M31.6203 11.511H4.38049C3.33333 11.511 2.48438 12.3599 2.48438 13.4071V25.8076H33.5164V13.4071C33.5164 12.3599 32.6674 11.511 31.6203 11.511Z" fill="#1A3591"/>
<path d="M7.27952 0.5C5.94345 0.5 4.86035 1.58309 4.86035 2.91917V34.0808C4.86035 35.4169 5.94345 36.5 7.27952 36.5H28.7203C30.0564 36.5 31.1395 35.4169 31.1395 34.0808V7.95973C31.1395 7.47366 30.9464 7.00756 30.6027 6.66381L24.9756 1.0367C24.6319 0.693078 24.1658 0.5 23.6797 0.5L7.27952 0.5Z" fill="#D2D9EF"/>
<path d="M30.6026 6.66353L26.8726 2.93359L26.8594 9.19035C26.8585 9.58312 27.1767 9.90198 27.5694 9.90198C27.9616 9.90198 28.2795 10.2199 28.2795 10.6121V34.0806C28.2795 35.4166 27.1964 36.4997 25.8604 36.4997H28.7201C30.0562 36.4997 31.1393 35.4166 31.1393 34.0806V10.4124V7.95939C31.1394 7.47332 30.9463 7.00722 30.6026 6.66353Z" fill="#8F9FD6"/>
<path d="M30.6024 6.66382L24.9752 1.03671C24.8186 0.880055 24.6363 0.755109 24.4385 0.665039V4.78141C24.4385 6.11749 25.5216 7.20059 26.8576 7.20059H30.974C30.884 7.00273 30.7591 6.82048 30.6024 6.66382Z" fill="#6A80C9"/>
<path d="M13.3565 18.4666L12.8565 17.3349C12.553 16.6481 11.8729 16.2051 11.1221 16.2051H4.38049C3.33333 16.2051 2.48438 17.054 2.48438 18.1012V34.6052C2.48438 35.6524 3.33326 36.5013 4.38049 36.5013H31.6203C32.6674 36.5013 33.5164 35.6525 33.5164 34.6052V21.4926C33.5164 20.4454 32.6675 19.5965 31.6203 19.5965H15.0909C14.34 19.5965 13.66 19.1534 13.3565 18.4666Z" fill="#4460BB"/>
<path d="M9.97059 17.3349L10.4706 18.4666C10.7741 19.1534 11.4542 19.5964 12.205 19.5964H15.0899C14.3391 19.5963 13.6591 19.1534 13.3556 18.4666L12.8556 17.3349C12.5521 16.6481 11.872 16.2051 11.1212 16.2051H8.23633C8.98713 16.2051 9.66712 16.6481 9.97059 17.3349Z" fill="#1A3591"/>
<path d="M31.6192 19.5968H28.7343C29.7814 19.5969 30.6302 20.4458 30.6302 21.4929V34.6056C30.6302 35.6528 29.7814 36.5018 28.7341 36.5018H31.6191C32.6663 36.5018 33.5152 35.6529 33.5152 34.6056V21.4928C33.5153 20.4457 32.6664 19.5968 31.6192 19.5968Z" fill="#1A3591"/>
<path d="M13.5965 4.48323H8.22282C7.92272 4.48323 7.67944 4.23995 7.67944 3.93986C7.67944 3.63977 7.92272 3.39648 8.22282 3.39648H13.5965C13.8965 3.39648 14.1398 3.63977 14.1398 3.93986C14.1398 4.23995 13.8966 4.48323 13.5965 4.48323Z" fill="#4460BB"/>
<path d="M13.5965 7.75093H8.22282C7.92272 7.75093 7.67944 7.50765 7.67944 7.20756C7.67944 6.90747 7.92272 6.66418 8.22282 6.66418H13.5965C13.8965 6.66418 14.1398 6.90747 14.1398 7.20756C14.1398 7.50765 13.8966 7.75093 13.5965 7.75093Z" fill="#4460BB"/>
</g>
<defs>
<clipPath id="clip0_781_33859">
<rect width="36" height="36" fill="white" transform="translate(0 0.5)"/>
</clipPath>
</defs>
</svg>
