<svg width="44" height="37" viewBox="0 0 44 37" fill="none" xmlns="http://www.w3.org/2000/svg">
<path d="M19.2901 9.14001H24.2103C25.4104 9.14001 26.5614 9.61675 27.41 10.4654C28.2586 11.3139 28.7353 12.4649 28.7353 13.665V18.1822H14.7651V13.665C14.7651 12.4649 15.2419 11.3139 16.0905 10.4654C16.9391 9.61675 18.09 9.14001 19.2901 9.14001Z" fill="#1F40AE"/>
<path d="M21.7498 9.13974C24.2831 9.13974 26.3367 7.09374 26.3367 4.56987C26.3367 2.046 24.2831 0 21.7498 0C19.2165 0 17.1628 2.046 17.1628 4.56987C17.1628 7.09374 19.2165 9.13974 21.7498 9.13974Z" fill="#1F40AE"/>
<path d="M4.52742 27.7448H9.44518C10.6453 27.7448 11.7962 28.2215 12.6448 29.0701C13.4934 29.9187 13.9702 31.0696 13.9702 32.2697V36.7879H0V32.2697C-8.63932e-08 31.6753 0.117123 31.0867 0.344677 30.5375C0.572231 29.9884 0.905757 29.4894 1.3262 29.0692C1.74664 28.649 2.24576 28.3158 2.79504 28.0885C3.34431 27.8612 3.93299 27.7444 4.52742 27.7448Z" fill="#1F40AE"/>
<path d="M6.98465 27.7462C9.51795 27.7462 11.5716 25.7002 11.5716 23.1763C11.5716 20.6524 9.51795 18.6064 6.98465 18.6064C4.45135 18.6064 2.39771 20.6524 2.39771 23.1763C2.39771 25.7002 4.45135 27.7462 6.98465 27.7462Z" fill="#1F40AE"/>
<path d="M34.0577 27.7448H38.9755C40.1756 27.7448 41.3265 28.2215 42.1751 29.0701C43.0237 29.9187 43.5004 31.0696 43.5004 32.2697V36.7879H29.5327V32.2697C29.5327 31.0696 30.0095 29.9187 30.8581 29.0701C31.7067 28.2215 32.8576 27.7448 34.0577 27.7448Z" fill="#1F40AE"/>
<path d="M36.5174 27.7462C39.0507 27.7462 41.1043 25.7002 41.1043 23.1763C41.1043 20.6524 39.0507 18.6064 36.5174 18.6064C33.9841 18.6064 31.9304 20.6524 31.9304 23.1763C31.9304 25.7002 33.9841 27.7462 36.5174 27.7462Z" fill="#1F40AE"/>
<path d="M6.98497 15.8791C6.75855 15.879 6.54144 15.789 6.38134 15.6289C6.22123 15.4688 6.13123 15.2517 6.1311 15.0253V13.7635C6.13252 12.5645 6.60946 11.415 7.4573 10.5672C8.30513 9.71932 9.45463 9.24239 10.6536 9.24097H11.407C11.6335 9.24097 11.8506 9.33093 12.0108 9.49106C12.1709 9.65119 12.2609 9.86837 12.2609 10.0948C12.2609 10.3213 12.1709 10.5385 12.0108 10.6986C11.8506 10.8587 11.6335 10.9487 11.407 10.9487H10.6536C9.90739 10.9496 9.19195 11.2464 8.66427 11.7741C8.13658 12.3018 7.83973 13.0173 7.83883 13.7635V15.0267C7.83844 15.2529 7.74831 15.4697 7.58822 15.6296C7.42813 15.7894 7.21117 15.8791 6.98497 15.8791Z" fill="#6A80C9"/>
<path d="M25.8115 33.6833H17.7179C17.4914 33.6833 17.2742 33.5934 17.1141 33.4332C16.954 33.2731 16.864 33.0559 16.864 32.8294C16.864 32.603 16.954 32.3858 17.1141 32.2257C17.2742 32.0655 17.4914 31.9756 17.7179 31.9756H25.8115C26.038 31.9756 26.2552 32.0655 26.4153 32.2257C26.5754 32.3858 26.6654 32.603 26.6654 32.8294C26.6654 33.0559 26.5754 33.2731 26.4153 33.4332C26.2552 33.5934 26.038 33.6833 25.8115 33.6833Z" fill="#6A80C9"/>
<path d="M36.5164 15.8791C36.29 15.8791 36.0728 15.7892 35.9127 15.629C35.7525 15.4689 35.6626 15.2517 35.6626 15.0253V13.7635C35.6617 13.0173 35.3648 12.3018 34.8371 11.7741C34.3094 11.2464 33.594 10.9496 32.8477 10.9487H32.1612C31.9348 10.9487 31.7176 10.8587 31.5575 10.6986C31.3973 10.5385 31.3074 10.3213 31.3074 10.0948C31.3074 9.86837 31.3973 9.65119 31.5575 9.49106C31.7176 9.33093 31.9348 9.24097 32.1612 9.24097H32.8477C34.0468 9.24239 35.1963 9.71932 36.0441 10.5672C36.8919 11.415 37.3689 12.5645 37.3703 13.7635V15.0267C37.3698 15.2529 37.2796 15.4696 37.1195 15.6294C36.9595 15.7892 36.7426 15.879 36.5164 15.8791Z" fill="#6A80C9"/>
</svg>
