<svg width="36" height="36" viewBox="0 0 36 36" fill="none" xmlns="http://www.w3.org/2000/svg">
<g clip-path="url(#clip0_781_33910)">
<path d="M16.1778 6.62369C16.0109 6.62369 15.8463 6.54712 15.7398 6.40235C15.2458 5.73114 14.3667 4.96115 12.9835 5.10888C11.3549 5.28234 10.1456 4.76407 9.4177 4.29881C9.16492 4.13723 9.09103 3.80135 9.25253 3.54857C9.41404 3.29573 9.75006 3.2219 10.0028 3.38341C10.5842 3.75494 11.5533 4.16887 12.8684 4.02853C14.8645 3.81661 16.0724 5.0212 16.6148 5.75843C16.7926 6.00002 16.7409 6.34012 16.4992 6.51794C16.4023 6.58924 16.2895 6.62369 16.1778 6.62369Z" fill="#6A80C9"/>
<path d="M10.4901 9.50834C10.3931 9.50834 10.2951 9.48246 10.2064 9.42797C9.95063 9.27103 9.87068 8.93656 10.0276 8.68083C10.7239 7.54648 12 6.76685 13.7178 6.42626C14.9704 6.17799 16.0213 6.24598 16.0654 6.24907C16.3647 6.2696 16.5907 6.52885 16.5701 6.82817C16.5496 7.12728 16.2897 7.35157 15.9917 7.33301C15.954 7.33048 12.2654 7.11181 10.9535 9.24917C10.851 9.4163 10.6726 9.50834 10.4901 9.50834Z" fill="#6A80C9"/>
<path d="M18.679 30.3242C27.6003 30.3242 32.5333 17.2383 18.4451 7.13138C18.0947 6.87994 17.8865 6.47515 17.8913 6.04385C17.8951 5.68744 18.008 5.34143 18.2124 5.04942C18.872 4.10759 19.8213 2.49645 20.3907 1.19876C20.527 0.887977 20.3319 0.553711 19.9672 0.553711C19.121 0.553781 19.121 0 18.2747 0C17.4285 0 17.4285 0.553781 16.5822 0.553781C15.8611 0.553781 15.5652 -0.0666563 15.2147 0.384609C14.1922 1.70058 17.6943 6.32834 17.6943 6.32834C2.22739 16.4962 7.21444 30.3242 16.3463 30.3242H18.679V30.3242Z" fill="#4460BB"/>
<path d="M22.1858 6.32827C22.1858 6.32827 25.7399 1.71548 24.7179 0.392273C24.3696 -0.0587109 24.0726 0.553781 23.3522 0.553781C22.5059 0.553711 22.5059 0 21.6595 0C20.8133 0 20.8133 0.553711 19.967 0.553711C19.9253 0.553711 19.8873 0.551391 19.8495 0.548789C19.5095 2.00637 17.9771 4.27711 17.1003 5.49295C17.4456 5.9997 17.6942 6.3282 17.6942 6.3282C17.4879 6.46383 17.286 6.60023 17.0869 6.73713C31.8646 16.8944 26.9199 30.3241 17.8821 30.3241H23.5886C32.7481 30.3242 37.7043 16.53 22.1858 6.32827Z" fill="#1F40AE"/>
<path d="M22.8473 7.96931C20.7821 8.49089 18.7418 8.49089 16.6763 7.96931C15.9575 7.78776 15.5499 6.97938 15.8086 6.24455C15.8115 6.23632 15.8144 6.22809 15.8173 6.21987C16.0342 5.60379 16.6493 5.25806 17.2523 5.40944C18.9433 5.83399 20.5797 5.83413 22.2713 5.40944C22.8742 5.25806 23.4893 5.60379 23.7063 6.21987C23.7091 6.22809 23.712 6.23632 23.7149 6.24455C23.9737 6.97938 23.5661 7.78776 22.8473 7.96931Z" fill="#8F9FD6"/>
<path d="M3.42969 32.6962L11.2946 35.6236C11.9625 35.8723 12.6695 35.9996 13.3823 35.9996H21.4876C22.6219 35.9996 23.7328 35.6773 24.691 35.0701L34.8397 28.6393C35.5093 28.0448 35.6334 27.0456 35.1297 26.3053C34.5785 25.4953 33.6667 25.3546 32.6634 25.829L22.7827 30.1795L22.7944 28.5764C22.6635 27.2606 21.6504 26.2046 20.3412 26.0194L14.3241 25.3266C12.9361 25.1302 12.2425 24.665 11.0324 23.9572C9.38045 22.9908 7.50099 22.4814 5.58709 22.4814H3.42969V32.6962Z" fill="#FFDDCE"/>
<path d="M10.8169 34.0638C11.5191 34.3252 12.2624 34.459 13.0117 34.459H21.5326C22.4397 34.459 23.3324 34.2624 24.1512 33.8876L30.1094 30.1121C30.663 29.7613 31.0144 29.1507 30.9964 28.4956C30.9868 28.1482 30.8807 27.8004 30.6726 27.4947C30.6726 27.4947 30.4912 27.1839 30.3048 26.8675L22.7827 30.1795L22.7944 28.5764C22.6635 27.2606 21.6504 26.2046 20.3412 26.0194L14.3241 25.3266C12.9361 25.1302 12.2425 24.665 11.0324 23.9572C9.38045 22.9908 7.50099 22.4814 5.58709 22.4814H3.42969V31.3142L10.8169 34.0638Z" fill="#B4BFE4"/>
<path d="M35.1296 26.3053C34.5784 25.4953 33.6667 25.3546 32.6634 25.829L29.9456 27.0256C30.0772 27.234 30.1819 27.4002 30.1819 27.4002C30.6856 28.1406 30.5615 29.1397 29.8919 29.7343L23.9784 33.4814C23.1996 33.8379 22.3504 34.025 21.4875 34.025H13.3823C12.6695 34.025 11.9625 33.8976 11.2946 33.649L3.42969 30.7215V32.6962L11.2946 35.6236C11.9625 35.8723 12.6695 35.9996 13.3823 35.9996H20.0044H21.4877C22.622 35.9996 23.7329 35.6773 24.6911 35.0701L34.8398 28.6394C35.5092 28.0448 35.6334 27.0456 35.1296 26.3053Z" fill="#8F9FD6"/>
<path d="M22.0569 26.9248L22.0566 26.9635L22.0822 26.9522C22.0739 26.9429 22.0653 26.934 22.0569 26.9248Z" fill="#F5DBCC"/>
<path d="M22.7828 30.1781H16.6389C16.3389 30.1781 16.0957 29.935 16.0957 29.6349C16.0957 29.3348 16.3388 29.0917 16.6389 29.0917H22.7907L22.7828 30.1781Z" fill="#FFCBBE"/>
<path d="M5.12171 34.2631C5.12171 34.8338 4.65913 35.2964 4.08847 35.2964H1.59477C1.02411 35.2964 0.561523 34.8338 0.561523 34.2631V21.6114C0.561523 21.0407 1.02411 20.5781 1.59477 20.5781H4.08847C4.65913 20.5781 5.12171 21.0407 5.12171 21.6114V34.2631Z" fill="#152B74"/>
<path d="M21.1367 16.8347C20.8879 16.7468 20.659 16.6627 20.4478 16.5814V13.1179C21.0903 13.2244 21.476 13.5567 21.5043 13.5818C21.725 13.7825 22.0664 13.7677 22.2689 13.5482C22.4723 13.3276 22.4585 12.984 22.2379 12.7806C22.1997 12.7452 21.5344 12.1459 20.4477 12.0207V11.2483C20.4477 10.9483 20.2045 10.7051 19.9044 10.7051C19.6044 10.7051 19.3612 10.9482 19.3612 11.2483V12.0647C19.2302 12.0898 19.0961 12.1217 18.9582 12.1632C18.0367 12.4407 17.3479 13.2309 17.1605 14.2252C16.9905 15.1275 17.2765 15.9952 17.9071 16.4898C18.2691 16.7737 18.7248 17.0336 19.3612 17.3115V21.6077C18.7326 21.5814 18.3465 21.463 17.6717 21.0216C17.4206 20.8574 17.084 20.9277 16.9198 21.1788C16.7555 21.4298 16.8259 21.7665 17.077 21.9307C17.9638 22.5109 18.5566 22.6622 19.3612 22.6935V23.5558C19.3612 23.8558 19.6044 24.099 19.9044 24.099C20.2045 24.099 20.4477 23.8559 20.4477 23.5558V22.6553C21.9726 22.4079 22.8625 21.1736 23.056 20.0221C23.298 18.5835 22.5445 17.3324 21.1367 16.8347ZM18.5776 15.6348C18.2674 15.3916 18.1336 14.9285 18.2283 14.4264C18.316 13.9607 18.6362 13.3949 19.2716 13.2035C19.3019 13.1944 19.3316 13.1865 19.3614 13.1785V16.1129C19.036 15.9505 18.7809 15.7943 18.5776 15.6348ZM21.9847 19.8418C21.8648 20.5547 21.3416 21.3158 20.4478 21.5449V17.7414C20.5534 17.7801 20.6614 17.8191 20.7745 17.859C22.1264 18.3369 22.0426 19.4975 21.9847 19.8418Z" fill="white"/>
</g>
<defs>
<clipPath id="clip0_781_33910">
<rect width="36" height="36" fill="white"/>
</clipPath>
</defs>
</svg>
