<svg width="36" height="37" viewBox="0 0 36 37" fill="none" xmlns="http://www.w3.org/2000/svg">
<g clip-path="url(#clip0_781_33852)">
<path d="M1.20376 12.4925H14.2088C14.8725 12.4925 15.4125 11.9525 15.4125 11.2887V7.69995H23.9963C26.6513 7.69995 28.8 9.86 28.8 12.5037C28.8 13.7862 28.305 14.99 27.405 15.9012C26.4825 16.8012 25.2788 17.3075 23.9963 17.3075H22.3988L18.8438 13.7525C18.3825 13.28 17.6175 13.28 17.1562 13.7525L13.6013 17.3075H12.0038C8.03252 17.3075 4.80378 20.5363 4.80378 24.5075C4.80378 26.42 5.54625 28.2312 6.90753 29.6037C8.28 30.9537 10.08 31.7075 12.0038 31.7075H20.5875V35.2962C20.5875 35.96 21.1275 36.5 21.7913 36.5H34.7962C35.46 36.5 36 35.96 36 35.2962V25.7112C36 25.0475 35.46 24.5075 34.7962 24.5075H21.7913C21.1275 24.5075 20.5875 25.0475 20.5875 25.7112V29.3H12.0038C10.7213 29.3 9.51753 28.805 8.60628 27.905C7.69503 26.9937 7.20003 25.7787 7.20003 24.5075C7.20003 21.8525 9.34875 19.7038 12.0038 19.7038H13.6013L17.1562 23.2475C17.3813 23.4837 17.6963 23.6075 18 23.6075C18.3038 23.6075 18.6187 23.4837 18.8438 23.2475L22.3988 19.7038H23.9963C25.92 19.7038 27.72 18.9612 29.1037 17.6C30.4537 16.2275 31.1962 14.4162 31.1962 12.5037C31.1962 8.53251 27.9675 5.3037 23.9963 5.3037H15.4125V1.70376C15.4125 1.03998 14.8725 0.5 14.2087 0.5H1.20375C0.540045 0.5 0 1.03998 0 1.70376V11.2887C0 11.9525 0.540045 12.4925 1.20376 12.4925Z" fill="#1F40AE"/>
</g>
<defs>
<clipPath id="clip0_781_33852">
<rect width="36" height="36" fill="white" transform="translate(0 0.5)"/>
</clipPath>
</defs>
</svg>
