<svg width="40" height="40" viewBox="0 0 40 40" fill="none" xmlns="http://www.w3.org/2000/svg">
<rect width="40" height="40" rx="4" fill="#1F40AE"/>
<g clip-path="url(#clip0_2683_11911)">
<path d="M26.3281 19.7188L20.7031 21.5938L26.3281 23.4688L31.9531 21.5938L26.3281 19.7188Z" fill="white"/>
<path d="M8.04688 21.5938L13.6719 23.4688L19.2969 21.5938L13.6719 19.7188L8.04688 21.5938Z" fill="white"/>
<path d="M20.2223 8.03607C20.078 7.98798 19.922 7.98798 19.7776 8.03607L14.375 9.83696L20 11.712L25.625 9.83696L20.2223 8.03607Z" fill="white"/>
<path d="M14.375 32.0001L19.2969 30.3595V23.0762L14.375 24.7168V32.0001Z" fill="white"/>
<path d="M8.04688 29.8527C8.04688 30.1554 8.24052 30.4241 8.52767 30.5197L12.9688 32.0001V24.7168L8.04688 23.0762V29.8527Z" fill="white"/>
<path d="M20.7031 30.3595L25.625 32.0001V24.7168L20.7031 23.0762V30.3595Z" fill="white"/>
<path d="M27.0312 32.0001L31.4723 30.5197C31.7594 30.424 31.9531 30.1553 31.9531 29.8527V23.0762L27.0312 24.7168V32.0001Z" fill="white"/>
<path d="M14.375 18.7335L19.2969 20.3741V12.959L14.375 11.3184V18.7335Z" fill="white"/>
<path d="M25.625 18.7335V11.3184L20.7031 12.959V20.3741L25.625 18.7335Z" fill="white"/>
</g>
<defs>
<clipPath id="clip0_2683_11911">
<rect width="24" height="24" fill="white" transform="translate(8 8)"/>
</clipPath>
</defs>
</svg>
