<svg width="32" height="33" viewBox="0 0 32 33" fill="none" xmlns="http://www.w3.org/2000/svg">
<rect y="0.5" width="32" height="32" rx="6" fill="#1F40AE"/>
<path d="M24.2983 15.322L22.466 14.7961C21.7551 14.5923 21.4186 13.7798 21.777 13.1332L22.701 11.4655L21.035 9.79946L19.3672 10.7235C18.7201 11.0818 17.9081 10.7453 17.7043 10.0344L17.1784 8.20215H14.8225L14.2716 10.1206C14.0805 10.7873 13.3183 11.1028 12.7115 10.7668L10.9655 9.79946L9.29946 11.4655L10.2235 13.1332C10.5818 13.7803 10.2453 14.5923 9.5344 14.7961L7.70215 15.322V17.678L9.5344 18.2038C10.2453 18.4077 10.5818 19.2201 10.2235 19.8668L9.29946 21.5345L10.9655 23.2005L12.6332 22.2765C13.2803 21.9182 14.0923 22.2546 14.2961 22.9656L14.822 24.7978H17.178L17.7038 22.9656C17.9077 22.2546 18.7201 21.9182 19.3668 22.2765L21.0345 23.2005L22.7005 21.5345L21.7765 19.8668C21.4182 19.2197 21.7546 18.4077 22.4656 18.2038L24.2978 17.678L24.2983 15.322ZM15.9998 21.3757C14.6536 21.3757 13.4347 20.8301 12.5523 19.9477C11.6698 19.0653 11.1243 17.846 11.1243 16.4998C11.1243 15.1536 11.6698 13.9347 12.5523 13.0523C13.4347 12.1698 14.6536 11.6238 15.9998 11.6238C18.6926 11.6238 20.8757 13.807 20.8757 16.4998C20.8757 19.1926 18.6926 21.3757 15.9998 21.3757Z" stroke="white" stroke-miterlimit="10"/>
<path d="M24.2983 15.322L22.466 14.7961C21.7551 14.5923 21.4186 13.7798 21.777 13.1332L22.701 11.4655L21.035 9.79946L19.3672 10.7235C18.7201 11.0818 17.9081 10.7453 17.7043 10.0344L17.1784 8.20215H14.8225L14.2716 10.1206C14.0805 10.7873 13.3183 11.1028 12.7115 10.7668L10.9655 9.79946L9.29946 11.4655L10.2235 13.1332C10.5818 13.7803 10.2453 14.5923 9.5344 14.7961L7.70215 15.322V17.678L9.5344 18.2038C10.2453 18.4077 10.5818 19.2201 10.2235 19.8668L9.29946 21.5345L10.9655 23.2005L12.6332 22.2765C13.2803 21.9182 14.0923 22.2546 14.2961 22.9656L14.822 24.7978H17.178L17.7038 22.9656C17.9077 22.2546 18.7201 21.9182 19.3668 22.2765L21.0345 23.2005L22.7005 21.5345L21.7765 19.8668C21.4182 19.2197 21.7546 18.4077 22.4656 18.2038L24.2978 17.678V15.322H24.2983ZM15.9998 20.2802C14.9559 20.2802 14.0113 19.8571 13.3271 19.1733C12.6433 18.4895 12.2202 17.5445 12.2202 16.5006C12.2202 15.4568 12.6433 14.5122 13.3271 13.828C14.0109 13.1441 14.9559 12.7211 15.9998 12.7211C18.0875 12.7211 19.7798 14.4133 19.7798 16.5011C19.7798 18.5888 18.0875 20.2811 15.9998 20.2811V20.2802Z" stroke="white" stroke-linecap="round" stroke-linejoin="round"/>
</svg>
