<svg width="40" height="40" viewBox="0 0 40 40" fill="none" xmlns="http://www.w3.org/2000/svg">
<rect width="40" height="40" rx="4" fill="#1F40AE"/>
<g clip-path="url(#clip0_2683_11899)">
<path d="M17.6906 16.5903L19.3436 13.8342L9.48655 11.0742L8.1687 13.2784C7.83512 13.8334 8.01461 14.5538 8.56968 14.8874C8.65963 14.9414 8.75636 14.9832 8.85741 15.0115L16.3698 17.1162C16.8783 17.2584 17.419 17.0431 17.6906 16.5903Z" fill="white"/>
<path d="M10.0263 23.6849L13.5715 24.6531V20.4278C13.5715 19.4811 14.339 18.7135 15.2857 18.7135H19.5714V15.1191L18.4254 17.0297C17.9544 17.8127 17.0187 18.185 16.1386 17.9396L9.71436 16.1421V23.2735C9.71476 23.4649 9.84212 23.6328 10.0263 23.6849Z" fill="white"/>
<path d="M20.0003 13.1271L29.1374 10.569L20.2299 8.03183C20.0793 7.98939 19.9199 7.98939 19.7692 8.03183L10.8632 10.569L20.0003 13.1271Z" fill="white"/>
<path d="M29.9755 23.685C30.1591 23.6323 30.2856 23.4645 30.2858 23.2736V16.1422L23.8616 17.9422C23.6843 17.9921 23.501 18.0174 23.3168 18.0172C22.6034 18.017 21.9422 17.6429 21.5747 17.0314L20.4287 15.1191V18.7135H24.7144C25.6611 18.7135 26.4286 19.4811 26.4286 20.4278V24.6531L29.9755 23.685Z" fill="white"/>
<path d="M22.3098 16.5904C22.5817 17.0428 23.1222 17.258 23.6307 17.1162L31.1431 15.0115C31.7666 14.8366 32.1302 14.1893 31.9553 13.5658C31.9271 13.4652 31.8856 13.3688 31.8318 13.2792L30.5148 11.0742L20.6577 13.8342L22.3098 16.5904Z" fill="white"/>
<path d="M25.5715 31.1436V20.4294C25.5715 19.956 25.1878 19.5723 24.7144 19.5723H15.2859C14.8125 19.5723 14.4287 19.956 14.4287 20.4294V31.1436C14.4287 31.617 14.8125 32.0008 15.2859 32.0008H24.7144C25.1878 32.0008 25.5715 31.617 25.5715 31.1436ZM18.1603 29.3038L16.8746 30.5895C16.7072 30.7568 16.4359 30.7568 16.2686 30.5895L15.84 30.1609C15.6756 29.9907 15.6803 29.7194 15.8505 29.5549C16.0166 29.3945 16.2799 29.3945 16.446 29.5549L16.5716 29.6805L17.5543 28.6978C17.7245 28.5333 17.9958 28.5381 18.1603 28.7083C18.3207 28.8744 18.3207 29.1377 18.1603 29.3038ZM18.1603 26.7324L16.8746 28.0181C16.7072 28.1854 16.4359 28.1854 16.2686 28.0181L15.84 27.5895C15.6756 27.4193 15.6803 27.1479 15.8505 26.9835C16.0166 26.8231 16.2799 26.8231 16.446 26.9835L16.5716 27.1091L17.5543 26.1264C17.7245 25.9619 17.9958 25.9667 18.1603 26.1369C18.3207 26.303 18.3207 26.5663 18.1603 26.7324ZM18.1603 24.1609L16.8746 25.4466C16.7072 25.6139 16.4359 25.6139 16.2686 25.4466L15.84 25.0181C15.6756 24.8478 15.6803 24.5765 15.8505 24.4121C16.0166 24.2517 16.2799 24.2517 16.446 24.4121L16.5716 24.5377L17.5543 23.5549C17.7245 23.3905 17.9958 23.3952 18.1603 23.5654C18.3207 23.7316 18.3207 23.9949 18.1603 24.1609ZM18.1603 21.5895L16.8746 22.8752C16.7072 23.0425 16.4359 23.0425 16.2686 22.8752L15.84 22.4467C15.6756 22.2764 15.6803 22.0051 15.8505 21.8407C16.0166 21.6803 16.2799 21.6803 16.446 21.8407L16.5716 21.9662L17.5543 20.9835C17.7245 20.8191 17.9958 20.8238 18.1603 20.994C18.3207 21.1602 18.3207 21.4235 18.1603 21.5895ZM23.8573 30.2865H19.5716C19.3349 30.2865 19.143 30.0946 19.143 29.8579C19.143 29.6212 19.3349 29.4294 19.5716 29.4294H23.8573C24.094 29.4294 24.2858 29.6212 24.2858 29.8579C24.2858 30.0946 24.0939 30.2865 23.8573 30.2865ZM23.8573 27.7151H19.5716C19.3349 27.7151 19.143 27.5232 19.143 27.2865C19.143 27.0498 19.3349 26.858 19.5716 26.858H23.8573C24.094 26.858 24.2858 27.0499 24.2858 27.2865C24.2858 27.5232 24.0939 27.7151 23.8573 27.7151ZM23.8573 25.1436H19.5716C19.3349 25.1436 19.143 24.9518 19.143 24.7151C19.143 24.4784 19.3349 24.2865 19.5716 24.2865H23.8573C24.094 24.2865 24.2858 24.4784 24.2858 24.7151C24.2858 24.9518 24.0939 25.1436 23.8573 25.1436ZM23.8573 22.5722H19.5716C19.3349 22.5722 19.143 22.3804 19.143 22.1437C19.143 21.907 19.3349 21.7151 19.5716 21.7151H23.8573C24.094 21.7151 24.2858 21.907 24.2858 22.1437C24.2858 22.3804 24.0939 22.5722 23.8573 22.5722Z" fill="white"/>
</g>
<defs>
<clipPath id="clip0_2683_11899">
<rect width="24" height="24" fill="white" transform="translate(8 8)"/>
</clipPath>
</defs>
</svg>
