<svg width="41" height="40" viewBox="0 0 41 40" fill="none" xmlns="http://www.w3.org/2000/svg">
<rect x="0.333374" width="40" height="40" rx="4" fill="#1F40AE"/>
<g clip-path="url(#clip0_2683_11882)">
<path fill-rule="evenodd" clip-rule="evenodd" d="M18.4509 25.3337C18.2511 25.2803 18.1324 25.075 18.1858 24.8752C18.2392 24.6754 18.4444 24.5567 18.6443 24.6101C19.5911 24.8637 20.5295 25.1686 21.4894 25.367C21.9834 25.4276 22.3916 25.2697 22.5286 24.7585C22.6532 24.2936 22.3601 23.8549 21.9206 23.703C20.6075 23.4627 19.3322 23.0018 18.3296 22.6393C16.8722 22.1124 16.4799 21.9913 15.0435 22.823L12.346 24.3848L14.5259 28.2365L14.8375 28.0566C14.9266 28.0054 15.0279 27.995 15.12 28.0196L20.8796 29.5617C21.6089 29.7572 22.2995 29.6687 22.9444 29.2717C25.5911 27.6424 28.2382 26.0135 30.8847 24.3839C31.2936 24.1322 31.3475 23.447 31.1052 23.0565C30.5739 22.2005 29.1118 22.9056 28.4987 23.2627L24.1232 25.8111C23.4358 26.2115 22.7078 26.3212 21.9266 26.1963C20.7238 25.9939 19.6188 25.6466 18.4509 25.3337ZM23.0156 12.0667L24.4622 12.902L19.9911 15.4834V17.4352C19.9911 17.4868 20.0167 17.5311 20.0614 17.557L21.0768 18.1432C21.1708 18.1976 21.2877 18.1301 21.2877 18.0215V16.232L25.7589 13.6505L27.2056 14.4858C27.295 14.5374 27.3462 14.6261 27.3462 14.7293V19.5674C27.3462 19.6707 27.295 19.7593 27.2056 19.811L23.0156 22.2301C22.9262 22.2817 22.8238 22.2817 22.7344 22.2301L18.5445 19.811C18.455 19.7593 18.4038 19.6707 18.4038 19.5674V14.7293C18.4038 14.6261 18.455 14.5374 18.5445 14.4858L22.7344 12.0667C22.8238 12.0151 22.9262 12.0151 23.0156 12.0667ZM25.9045 9.94494C26.0509 9.7985 26.2884 9.7985 26.4347 9.94494C26.5812 10.0914 26.5812 10.3288 26.4347 10.4752L25.3305 11.5794C25.1841 11.7259 24.9467 11.7259 24.8003 11.5794C24.6538 11.433 24.6538 11.1956 24.8003 11.0492L25.9045 9.94494ZM19.3152 10.4752C19.1687 10.3287 19.1687 10.0913 19.3152 9.94494C19.4616 9.7985 19.699 9.7985 19.8454 9.94494L20.9497 11.0492C21.0961 11.1956 21.0961 11.433 20.9497 11.5794C20.8032 11.7259 20.5658 11.7259 20.4194 11.5794L19.3152 10.4752ZM22.5 8.9375C22.5 8.73041 22.6679 8.5625 22.875 8.5625C23.0821 8.5625 23.25 8.73041 23.25 8.9375V10.4991C23.25 10.7062 23.0821 10.8741 22.875 10.8741C22.6679 10.8741 22.5 10.7062 22.5 10.4991V8.9375ZM11.0939 23.695L14.5726 29.8415C14.7408 30.1387 14.6352 30.5195 14.338 30.6877L13.1548 31.3574C12.8576 31.5256 12.4768 31.4201 12.3086 31.1229L8.82995 24.9763C8.66176 24.6791 8.76728 24.2983 9.06451 24.1301L10.2477 23.4605C10.5449 23.2922 10.9257 23.3978 11.0939 23.695ZM10.3433 24.6994C10.1124 24.7332 9.95261 24.9477 9.98636 25.1785C10.0201 25.4094 10.2346 25.5692 10.4655 25.5354C10.6964 25.5017 10.8561 25.2872 10.8224 25.0563C10.7886 24.8254 10.5741 24.6657 10.3433 24.6994Z" fill="white"/>
</g>
<defs>
<clipPath id="clip0_2683_11882">
<rect width="24" height="24" fill="white" transform="translate(8 8)"/>
</clipPath>
</defs>
</svg>
