<svg width="68" height="68" viewBox="0 0 68 68" fill="none" xmlns="http://www.w3.org/2000/svg">
<circle cx="33.9863" cy="33.9355" r="33.5" fill="#1A3591"/>
<path d="M48.2861 46.4355H37.1471C36.0588 42.8437 35.5146 39.1213 35.5146 35.2682C35.5146 31.3498 36.5069 28.2478 38.4914 25.9621C40.54 23.6111 43.5488 22.4355 47.5179 22.4355V27.9213C44.317 27.9213 42.7166 29.9131 42.7166 33.8968V35.758H48.2861V46.4355ZM32.0577 46.4355H20.9186C19.8303 42.8437 19.2861 39.1213 19.2861 35.2682C19.2861 31.3498 20.2784 28.2478 22.263 25.9621C24.3115 23.6111 27.3203 22.4355 31.2894 22.4355V27.9213C28.0886 27.9213 26.4881 29.9131 26.4881 33.8968V35.758H32.0577V46.4355Z" fill="white"/>
</svg>
