<svg width="389" height="451" viewBox="0 0 389 451" fill="none" xmlns="http://www.w3.org/2000/svg">
<path opacity="0.4" d="M262.307 100.878C236.232 16.8885 259.436 -75.4579 325.189 -151.968C402.074 -128.937 465.84 -85.126 503.81 -26.6792C479.866 -13.5799 460.366 3.75111 445.653 25.898C393.759 100.024 515.008 279.005 466.288 370.964C453.842 378.272 440.881 385.1 427.357 391.317C440.648 353.303 277.805 157.624 262.303 100.876L262.307 100.878Z" fill="#1F40AE"/>
<path opacity="0.4" d="M457.293 310.457C387.983 231.395 296.117 172.702 213.583 99.3717C188.363 76.9441 161.911 51.7985 144.036 24.1293C116.986 -15.561 98.5355 -59.8363 89.6469 -105.907C125.262 -131.814 167.131 -153.352 214.266 -168.601C228.768 -173.292 243.361 -177.177 257.975 -180.447C235.513 -102.438 254.571 -19.3441 304.687 45.9886C342.905 107.199 491.464 254.806 504.256 348.829C498.38 351.543 492.389 354.14 486.305 356.645C480.466 340.089 468.452 324.538 457.291 310.463L457.293 310.457Z" fill="#1F40AE"/>
<path opacity="0.4" d="M416.458 152.933C456.783 175.601 526.958 210.622 557.383 252.114C557.052 252.237 556.731 252.376 556.4 252.499C552.029 254.113 547.634 255.586 543.24 257.068C530.926 245.036 514.73 234.841 499.755 225.715C399.865 170.08 284.157 138.135 174.473 92.0092C136.571 76.3119 98.1185 58.0588 67.1221 34.4854C58.0947 27.9158 49.3945 21.0409 41.0359 13.8919C41.0033 -19.3357 48.3192 -52.4972 62.2499 -84.2309C80.2445 -53.3946 104.551 -24.9996 133.894 -0.470492C214.554 63.1566 321.483 100.657 416.466 152.932L416.458 152.933Z" fill="#1F40AE"/>
</svg>
