<svg width="40" height="40" viewBox="0 0 40 40" fill="none" xmlns="http://www.w3.org/2000/svg">
<rect width="40" height="40" rx="4" fill="#1F40AE"/>
<path d="M13.25 20H15.5008V22.25H13.25V20Z" fill="white"/>
<path d="M17.75 20H17V22.25C17 22.6478 16.842 23.0294 16.5607 23.3107C16.2794 23.592 15.8978 23.75 15.5 23.75H13.25C12.8522 23.75 12.4706 23.592 12.1893 23.3107C11.908 23.0294 11.75 22.6478 11.75 22.25V20H11C10.6022 20 10.2206 20.158 9.93934 20.4393C9.65804 20.7206 9.5 21.1022 9.5 21.5V28.25C9.5 28.6478 9.65804 29.0294 9.93934 29.3107C10.2206 29.592 10.6022 29.75 11 29.75H17.75C18.1478 29.75 18.5294 29.592 18.8107 29.3107C19.092 29.0294 19.25 28.6478 19.25 28.25V21.5C19.25 21.1022 19.092 20.7206 18.8107 20.4393C18.5294 20.158 18.1478 20 17.75 20Z" fill="white"/>
<path d="M24.5 20H26.7507V22.25H24.5V20Z" fill="white"/>
<path d="M29 20H28.25V22.25C28.25 22.6478 28.092 23.0294 27.8107 23.3107C27.5294 23.592 27.1478 23.75 26.75 23.75H24.5C24.1022 23.75 23.7206 23.592 23.4393 23.3107C23.158 23.0294 23 22.6478 23 22.25V20H22.25C21.8522 20 21.4706 20.158 21.1893 20.4393C20.908 20.7206 20.75 21.1022 20.75 21.5V28.25C20.75 28.6478 20.908 29.0294 21.1893 29.3107C21.4706 29.592 21.8522 29.75 22.25 29.75H29C29.3978 29.75 29.7794 29.592 30.0607 29.3107C30.342 29.0294 30.5 28.6478 30.5 28.25V21.5C30.5 21.1022 30.342 20.7206 30.0607 20.4393C29.7794 20.158 29.3978 20 29 20Z" fill="white"/>
<path d="M19.25 9.5H20.7507V11.75H19.25V9.5Z" fill="white"/>
<path d="M16.25 18.5H23.75C24.1478 18.5 24.5294 18.342 24.8107 18.0607C25.092 17.7794 25.25 17.3978 25.25 17V11C25.25 10.6022 25.092 10.2206 24.8107 9.93934C24.5294 9.65804 24.1478 9.5 23.75 9.5H22.25V11.75C22.25 12.1478 22.092 12.5294 21.8107 12.8107C21.5294 13.092 21.1478 13.25 20.75 13.25H19.25C18.8522 13.25 18.4706 13.092 18.1893 12.8107C17.908 12.5294 17.75 12.1478 17.75 11.75V9.5H16.25C15.8522 9.5 15.4706 9.65804 15.1893 9.93934C14.908 10.2206 14.75 10.6022 14.75 11V17C14.75 17.3978 14.908 17.7794 15.1893 18.0607C15.4706 18.342 15.8522 18.5 16.25 18.5Z" fill="white"/>
</svg>
