<svg width="41" height="40" viewBox="0 0 41 40" fill="none" xmlns="http://www.w3.org/2000/svg">
<rect x="0.666626" width="40" height="40" rx="4" fill="#1F40AE"/>
<path d="M31.51 15.15L29.94 10.45C29.8244 10.101 29.6019 9.79717 29.3039 9.58176C29.0059 9.36636 28.6477 9.25028 28.28 9.25H13.72C13.3523 9.25028 12.994 9.36636 12.6961 9.58176C12.3981 9.79717 12.1755 10.101 12.06 10.45L10.49 15.15C10.3302 15.6339 10.2492 16.1404 10.25 16.65V17.36C10.2383 18.1822 10.5294 18.98 11.0678 19.6014C11.6063 20.2228 12.3545 20.6245 13.17 20.73C13.6224 20.7766 14.0796 20.7277 14.512 20.5864C14.9444 20.4451 15.3423 20.2147 15.68 19.91C15.7944 19.815 15.9014 19.7114 16 19.6C16.3058 19.9645 16.6887 20.2567 17.1209 20.4555C17.5532 20.6544 18.0242 20.7549 18.5 20.75C18.9752 20.7515 19.4451 20.6494 19.8768 20.4508C20.3086 20.2522 20.6919 19.9618 21 19.6C21.308 19.9671 21.694 20.2609 22.13 20.4598C22.566 20.6588 23.0408 20.7579 23.52 20.75C23.9933 20.7455 24.46 20.6386 24.8881 20.4366C25.3162 20.2346 25.6955 19.9424 26 19.58C26.0989 19.6973 26.2058 19.8075 26.32 19.91C26.6573 20.2152 27.0552 20.446 27.4876 20.5873C27.9201 20.7286 28.3775 20.7772 28.83 20.73C29.6455 20.6245 30.3937 20.2228 30.9321 19.6014C31.4706 18.98 31.7617 18.1822 31.75 17.36V16.65C31.7508 16.1404 31.6698 15.6339 31.51 15.15Z" fill="white"/>
<path d="M23.5 25.75H18.5C18.4337 25.75 18.3701 25.7763 18.3232 25.8232C18.2763 25.8701 18.25 25.9337 18.25 26V30.75H23.75V26C23.75 25.9337 23.7237 25.8701 23.6768 25.8232C23.6299 25.7763 23.5663 25.75 23.5 25.75Z" fill="white"/>
<path d="M29.0001 22.2291H28.5301C27.639 22.2394 26.7627 22.0004 26.0001 21.5391C25.2497 22.005 24.3835 22.251 23.5001 22.2491C22.6119 22.2509 21.7402 22.0088 20.9801 21.5491C20.2329 22.0046 19.3752 22.2466 18.5001 22.2491C17.6187 22.2472 16.7544 22.0052 16.0001 21.5491C15.2519 22.0107 14.3893 22.2532 13.5101 22.2491H13.0401C12.4175 22.188 11.8146 21.9973 11.2701 21.6891V28.9991C11.2727 29.459 11.4551 29.8996 11.7785 30.2267C12.1018 30.5537 12.5403 30.7412 13.0001 30.7491H16.7501V25.7491C16.7501 25.3512 16.9082 24.9697 17.1895 24.6884C17.4708 24.4071 17.8523 24.2491 18.2501 24.2491H23.7501C24.148 24.2491 24.5295 24.4071 24.8108 24.6884C25.0921 24.9697 25.2501 25.3512 25.2501 25.7491V30.7491H29.0001C29.4635 30.7464 29.9071 30.5612 30.2347 30.2336C30.5623 29.906 30.7475 29.4624 30.7501 28.9991V21.6691C30.2118 21.9746 29.6159 22.1653 29.0001 22.2291Z" fill="white"/>
</svg>
