<svg width="130" height="46" viewBox="0 0 130 46" fill="none" xmlns="http://www.w3.org/2000/svg">
<rect x="0.486328" width="128.7" height="46.129" rx="23.0645" fill="white"/>
<path d="M46.2303 30.1481L42.2646 15.2075H46.3354L48.1738 24.3995H48.2788L50.4587 15.2075H53.6627L55.8425 24.4287H55.9476L57.786 15.2075H61.8567L57.891 30.1481H54.3981L52.1132 21.8024H52.0082L49.7233 30.1481H46.2303Z" fill="#1E293B"/>
<path d="M64.7276 30.3232C64.0841 30.3232 63.5151 30.2065 63.0205 29.9731C62.5303 29.7347 62.1451 29.3748 61.8649 28.8934C61.5848 28.4119 61.4447 27.7991 61.4447 27.055C61.4447 26.4422 61.5388 25.9193 61.727 25.4865C61.9153 25.0488 62.1779 24.6913 62.5149 24.4141C62.852 24.1369 63.2437 23.9253 63.6902 23.7794C64.141 23.6335 64.6269 23.5387 65.1478 23.4949C65.7124 23.4463 66.1655 23.3879 66.5069 23.3198C66.8527 23.2469 67.1022 23.1472 67.2554 23.0207C67.4086 22.8894 67.4852 22.7167 67.4852 22.5027V22.4736C67.4852 22.1817 67.3845 21.958 67.1832 21.8024C66.9818 21.6468 66.7236 21.5689 66.4084 21.5689C66.0626 21.5689 65.7803 21.6541 65.5614 21.8243C65.3469 21.9896 65.2178 22.245 65.174 22.5903H61.8387C61.8824 21.9094 62.0772 21.282 62.423 20.7081C62.7732 20.1294 63.2831 19.6673 63.9528 19.322C64.6225 18.9718 65.4586 18.7968 66.4609 18.7968C67.1832 18.7968 67.831 18.8916 68.4044 19.0813C68.9778 19.2661 69.4658 19.5263 69.8685 19.8619C70.2712 20.1926 70.5776 20.5817 70.7877 21.0291C71.0022 21.4717 71.1094 21.9532 71.1094 22.4736V30.1481H67.7215V28.5724H67.6427C67.4414 28.9906 67.1963 29.3286 66.9074 29.5864C66.6229 29.8442 66.2968 30.0314 65.9291 30.1481C65.5658 30.2649 65.1653 30.3232 64.7276 30.3232ZM65.9094 27.7845C66.1852 27.7845 66.4434 27.7213 66.6842 27.5948C66.9293 27.4684 67.1284 27.286 67.2816 27.0477C67.4348 26.8094 67.5114 26.52 67.5114 26.1795V25.2457C67.4151 25.2895 67.3123 25.3309 67.2028 25.3698C67.0978 25.4087 66.984 25.4451 66.8614 25.4792C66.7432 25.5132 66.6163 25.5449 66.4806 25.574C66.3493 25.6032 66.2114 25.63 66.067 25.6543C65.7868 25.7029 65.557 25.7832 65.3776 25.895C65.2025 26.002 65.0712 26.1358 64.9836 26.2963C64.9005 26.4519 64.8589 26.627 64.8589 26.8215C64.8589 27.1328 64.9574 27.3711 65.1543 27.5364C65.3513 27.7018 65.603 27.7845 65.9094 27.7845Z" fill="#1E293B"/>
<path d="M82.6437 18.9427L79.2558 30.1481H75.0538L71.6659 18.9427H75.474L77.1023 26.3546H77.2073L78.8356 18.9427H82.6437Z" fill="#1E293B"/>
<path d="M88.2 30.3524C87.1232 30.3524 86.1953 30.1238 85.4161 29.6667C84.6414 29.2046 84.0439 28.5432 83.6237 27.6824C83.2079 26.8167 82.9999 25.7807 82.9999 24.5746C82.9999 23.4171 83.21 22.4055 83.6302 21.5398C84.0505 20.6741 84.6436 20.0005 85.4096 19.519C86.1756 19.0375 87.0794 18.7968 88.1212 18.7968C88.8828 18.7968 89.5722 18.9281 90.1894 19.1907C90.8066 19.4533 91.334 19.8351 91.7717 20.3361C92.2094 20.8321 92.5465 21.4352 92.7828 22.1453C93.0192 22.8553 93.1374 23.6554 93.1374 24.5454V25.4792H84.1292V23.2614H89.802C89.7976 22.9405 89.7232 22.6584 89.5788 22.4152C89.4387 22.1672 89.2483 21.975 89.0076 21.8389C88.7712 21.6978 88.502 21.6273 88.2 21.6273C87.9067 21.6273 87.6375 21.6978 87.3924 21.8389C87.1473 21.975 86.9503 22.1647 86.8015 22.4079C86.657 22.6511 86.5804 22.9356 86.5717 23.2614V25.6543C86.5717 26.0142 86.6395 26.3352 86.7752 26.6172C86.9109 26.8993 87.1057 27.1206 87.3596 27.2811C87.6134 27.4416 87.9198 27.5219 88.2788 27.5219C88.5283 27.5219 88.7559 27.4829 88.9616 27.4051C89.1717 27.3273 89.3512 27.2155 89.5 27.0696C89.6488 26.9188 89.7582 26.7388 89.8283 26.5297H93.1374C93.0236 27.3079 92.7544 27.9839 92.3298 28.5578C91.9052 29.1268 91.3428 29.5694 90.6424 29.8855C89.9465 30.1968 89.1323 30.3524 88.2 30.3524Z" fill="#1E293B"/>
<path d="M94.6163 30.1481V18.9427H98.1355V21.0729H98.2406C98.4244 20.285 98.7155 19.7087 99.1138 19.3439C99.5165 18.9791 99.9871 18.7968 100.525 18.7968C100.683 18.7968 100.838 18.8114 100.992 18.8405C101.149 18.8649 101.3 18.9013 101.445 18.95V22.386C101.265 22.3179 101.044 22.2669 100.782 22.2328C100.519 22.1988 100.293 22.1817 100.105 22.1817C99.7507 22.1817 99.4312 22.2717 99.1467 22.4517C98.8665 22.6268 98.6455 22.8748 98.4835 23.1958C98.3216 23.5119 98.2406 23.884 98.2406 24.312V30.1481H94.6163Z" fill="#1E293B"/>
<path d="M102.633 30.1481V18.9427H106.257V30.1481H102.633ZM104.445 17.7754C103.955 17.7754 103.535 17.5955 103.185 17.2356C102.834 16.8757 102.659 16.4428 102.659 15.937C102.659 15.4312 102.834 14.9984 103.185 14.6385C103.535 14.2786 103.955 14.0986 104.445 14.0986C104.94 14.0986 105.36 14.2786 105.706 14.6385C106.056 14.9984 106.231 15.4312 106.231 15.937C106.231 16.4428 106.056 16.8757 105.706 17.2356C105.36 17.5955 104.94 17.7754 104.445 17.7754Z" fill="#1E293B"/>
<path d="M112.963 30.3524C111.868 30.3524 110.932 30.1117 110.152 29.6302C109.373 29.1438 108.776 28.4678 108.36 27.6021C107.944 26.7315 107.736 25.7224 107.736 24.5746C107.736 23.4268 107.944 22.4201 108.36 21.5544C108.776 20.6838 109.373 20.0078 110.152 19.5263C110.932 19.0399 111.868 18.7968 112.963 18.7968C114.057 18.7968 114.994 19.0399 115.773 19.5263C116.552 20.0078 117.149 20.6838 117.565 21.5544C117.981 22.4201 118.189 23.4268 118.189 24.5746C118.189 25.7224 117.981 26.7315 117.565 27.6021C117.149 28.4678 116.552 29.1438 115.773 29.6302C114.994 30.1117 114.057 30.3524 112.963 30.3524ZM112.989 27.376C113.295 27.376 113.56 27.2617 113.783 27.0331C114.006 26.8045 114.179 26.4786 114.302 26.0555C114.425 25.6324 114.486 25.129 114.486 24.5454C114.486 23.9569 114.425 23.4536 114.302 23.0353C114.179 22.6122 114.006 22.2863 113.783 22.0577C113.56 21.8291 113.295 21.7149 112.989 21.7149C112.665 21.7149 112.387 21.8291 112.155 22.0577C111.923 22.2863 111.746 22.6122 111.623 23.0353C111.501 23.4536 111.439 23.9569 111.439 24.5454C111.439 25.129 111.501 25.6324 111.623 26.0555C111.746 26.4786 111.923 26.8045 112.155 27.0331C112.387 27.2617 112.665 27.376 112.989 27.376Z" fill="#1E293B"/>
<path fill-rule="evenodd" clip-rule="evenodd" d="M14.3045 10.9756C13.3479 11.7188 12.4829 12.5975 11.732 13.5866C14.8005 13.2701 18.699 13.787 23.225 16.3014C28.0582 18.9865 31.9501 19.0773 34.6587 18.4968C34.4129 17.67 34.1035 16.8753 33.737 16.12C30.6364 16.4833 26.6615 16.0024 22.029 13.4288C19.0873 11.7946 16.4942 11.1214 14.3045 10.9756ZM31.9258 13.2555C29.4772 10.2157 25.9189 8.30273 21.9584 8.30273C20.7953 8.30273 19.6668 8.46774 18.591 8.77781C20.048 9.21955 21.5959 9.86581 23.225 10.7709C26.6167 12.6551 29.5448 13.2618 31.9258 13.2555ZM35.2378 21.3989C31.9656 22.1168 27.447 21.9694 22.029 18.9594C16.9638 16.1454 12.9323 16.1808 10.2133 16.8522C10.073 16.8868 9.93591 16.9232 9.80218 16.9611C9.4462 17.8213 9.16205 18.7259 8.95816 19.6652C9.17592 19.6006 9.40094 19.5391 9.63311 19.4818C12.9317 18.6673 17.5923 18.7027 23.225 21.832C28.2903 24.646 32.3217 24.6106 35.0408 23.9392C35.1339 23.9162 35.2257 23.8925 35.316 23.868C35.3259 23.6337 35.3308 23.398 35.3308 23.161C35.3308 22.5648 35.2993 21.9768 35.2378 21.3989ZM34.8794 27.0036C31.6389 27.633 27.2519 27.3914 22.029 24.4899C16.9638 21.6759 12.9323 21.7113 10.2133 22.3827C9.60977 22.5317 9.06684 22.7132 8.5879 22.9048C8.58659 22.99 8.58594 23.0754 8.58594 23.161C8.58594 31.367 14.573 38.0193 21.9584 38.0193C28.1479 38.0193 33.3552 33.347 34.8794 27.0036Z" fill="#7F57F1"/>
</svg>
